<svg version="1.0" xmlns="http://www.w3.org/2000/svg" width="286.000000pt" height="210.000000pt" viewBox="0 0 286.000000 210.000000" preserveAspectRatio="xMidYMid meet">

<g transform="translate(0.000000,210.000000) scale(0.100000,-0.100000)" fill="#000000" stroke="none">
<path d="M695 2061 c-106 -28 -185 -126 -185 -230 0 -58 -2 -60 -93 -109 -179 -98 -311 -265 -367 -467 -30 -104 -32 -287 -5 -385 56 -210 210 -401 395 -495 30 -15 58 -33 62 -39 4 -6 8 -34 8 -63 0 -111 73 -205 184 -237 30 -9 62 -16 71 -16 42 0 126 34 163 66 45 38 92 126 92 173 l0 31 398 0 399 0 12 -54 c24 -109 91 -176 203 -206 37 -10 58 -10 94 -1 135 34 200 111 213 251 6 59 8 66 36 79 282 141 445 397 445 696 0 170 -61 347 -165 477 -55 70 -176 168 -256 209 l-59 29 0 49 c0 110 -90 218 -200 242 -140 30 -266 -45 -304 -181 l-17 -60 -400 0 -399 0 0 29 c0 17 -4 32 -9 35 -4 3 -11 18 -14 33 -9 41 -58 95 -111 122 -51 25 -141 35 -191 22z m150 -104 c26 -14 48 -37 63 -67 21 -42 22 -56 22 -276 l0 -231 -30 -59 c-50 -98 -64 -158 -64 -274 0 -118 17 -192 65 -278 l30 -54 -3 -248 c-3 -234 -4 -250 -24 -277 -38 -51 -81 -73 -143 -73 -62 0 -94 16 -133 65 l-23 30 -3 805 c-2 443 0 819 3 837 18 100 145 153 240 100z m1314 3 c22 -11 50 -36 62 -57 l24 -38 0 -815 c0 -804 0 -815 -21 -850 -62 -106 -219 -110 -283 -6 -20 31 -21 49 -21 283 l0 250 29 59 c83 166 82 365 -3 531 l-26 52 0 249 c0 242 1 250 23 283 51 76 137 100 216 59z m-339 -350 c0 -66 -3 -120 -6 -120 -3 0 -20 12 -37 26 -83 69 -226 117 -357 117 -108 1 -231 -36 -326 -99 -37 -24 -69 -44 -70 -44 -2 0 -4 54 -4 120 l0 120 400 0 400 0 0 -120z m-1310 -549 c0 -409 -3 -602 -11 -606 -17 -11 -116 55 -181 122 -116 116 -168 217 -196 380 -42 242 65 492 278 649 56 41 75 52 98 53 9 1 12 -125 12 -598z m1910 563 c357 -232 416 -739 121 -1035 -62 -62 -167 -139 -191 -139 -7 0 -10 190 -10 605 0 483 3 605 13 605 7 0 37 -16 67 -36z m-787 -127 c92 -43 190 -133 231 -215 157 -309 -28 -673 -368 -723 -269 -40 -523 143 -567 409 -30 181 41 359 186 471 107 81 177 102 330 98 102 -3 116 -6 188 -40z m-543 -933 c56 -39 104 -61 195 -85 159 -43 334 -9 482 92 23 16 44 29 47 29 3 0 6 -49 6 -110 l0 -110 -400 0 -400 0 0 116 c0 89 3 113 13 108 6 -5 32 -22 57 -40z"/>
<path d="M1386 1244 c-3 -9 -6 -40 -6 -69 0 -84 -1 -85 -89 -85 -79 0 -101 -9 -101 -41 0 -36 39 -49 142 -49 132 0 138 6 138 131 0 50 -5 99 -10 110 -13 24 -65 26 -74 3z"/>
</g>
</svg>