<svg version="1.0" xmlns="http://www.w3.org/2000/svg" width="142.000000pt" height="194.000000pt" viewBox="0 0 142.000000 194.000000" preserveAspectRatio="xMidYMid meet">

<g transform="translate(0.000000,194.000000) scale(0.100000,-0.100000)" fill="#000000" stroke="none">
<path d="M560 1891 c-30 -10 -74 -27 -97 -39 -64 -33 -154 -123 -197 -196 -37 -64 -40 -66 -78 -66 -77 0 -146 -59 -163 -139 -18 -83 51 -184 135 -197 l40 -7 0 -262 0 -263 -47 -11 c-116 -30 -167 -162 -100 -262 27 -41 98 -79 147 -79 32 0 37 -4 64 -56 43 -81 133 -167 219 -208 157 -74 301 -74 457 1 68 33 188 150 218 214 21 43 26 47 67 52 25 2 63 16 84 30 122 81 81 282 -64 309 -19 3 -20 12 -23 269 l-2 266 32 7 c40 8 94 49 113 86 23 45 19 130 -8 171 -33 49 -83 79 -131 79 -39 0 -42 2 -69 53 -59 113 -158 198 -282 242 -88 31 -230 34 -315 6z m330 -77 c77 -37 152 -101 192 -163 15 -25 28 -49 28 -53 0 -4 -180 -8 -400 -8 -329 0 -400 2 -400 13 0 39 118 160 192 198 79 41 118 49 223 46 88 -2 108 -6 165 -33z m396 -318 c46 -46 48 -101 5 -148 l-29 -33 -166 -3 c-162 -3 -168 -3 -219 23 -109 53 -229 53 -345 0 -50 -23 -66 -25 -204 -25 -175 0 -206 9 -232 65 -25 51 -9 107 37 135 31 19 54 20 575 20 l544 0 34 -34z m-439 -217 c76 -36 134 -100 164 -178 29 -78 24 -194 -13 -266 -95 -182 -316 -238 -484 -122 -158 109 -186 344 -57 487 104 115 251 145 390 79z m-451 -51 c-105 -147 -111 -320 -15 -465 l28 -43 -74 0 -75 0 0 265 0 265 76 0 76 0 -16 -22z m764 -243 l0 -265 -81 0 -80 0 21 30 c56 79 82 189 69 290 -8 57 -57 171 -79 185 -27 16 -3 25 70 25 l80 0 0 -265z m-614 -362 c51 -24 72 -28 154 -28 81 0 105 4 161 28 63 26 73 27 233 27 l168 0 29 -29 c24 -24 29 -38 29 -76 0 -38 -5 -52 -29 -76 l-29 -29 -555 0 -555 0 -30 25 c-36 30 -47 75 -28 119 26 61 42 66 227 66 160 0 169 -1 225 -27z m564 -262 c0 -5 -20 -36 -45 -69 -155 -206 -455 -237 -652 -68 -39 34 -103 119 -103 138 0 4 180 8 400 8 231 0 400 -4 400 -9z"/>
<path d="M680 1121 c-5 -11 -10 -45 -10 -76 0 -86 8 -95 89 -95 48 0 72 4 81 15 23 27 4 44 -52 47 l-53 3 -3 55 c-4 67 -30 92 -52 51z"/>
</g>
</svg>