<svg version="1.0" xmlns="http://www.w3.org/2000/svg" width="1024.000000pt" height="1024.000000pt" viewBox="0 0 1024.000000 1024.000000" preserveAspectRatio="xMidYMid meet">

<g transform="translate(0.000000,1024.000000) scale(0.100000,-0.100000)" fill="#000000" stroke="none">
<path d="M6414 8964 c-5 -2 -43 -5 -84 -7 -41 -2 -100 -11 -130 -20 -76 -21 -190 -89 -251 -148 -61 -59 -78 -69 -120 -69 -17 0 -48 -4 -68 -10 -20 -5 -74 -16 -121 -25 -47 -8 -96 -17 -110 -20 -13 -3 -42 -7 -65 -10 -22 -4 -53 -9 -70 -11 -16 -3 -66 -12 -110 -19 -44 -7 -159 -28 -255 -48 -154 -31 -302 -60 -380 -73 -14 -3 -47 -9 -75 -14 -27 -6 -75 -13 -105 -16 -30 -3 -125 -19 -210 -36 -85 -16 -167 -32 -182 -34 -16 -2 -40 -6 -55 -8 -16 -3 -48 -7 -73 -11 -25 -3 -94 -15 -155 -26 -166 -30 -216 -39 -265 -45 -157 -18 -364 -59 -386 -75 -6 -5 -13 -6 -17 -3 -3 3 -29 1 -59 -5 -29 -6 -71 -13 -93 -17 -22 -3 -67 -11 -100 -19 -33 -7 -64 -10 -70 -5 -18 14 -117 41 -205 54 -216 34 -399 -10 -634 -151 -286 -173 -513 -453 -629 -778 -48 -132 -73 -256 -94 -444 -14 -134 -14 -178 -4 -311 6 -85 13 -164 15 -175 31 -209 82 -380 156 -523 91 -177 146 -251 217 -295 86 -54 254 -68 377 -32 31 9 70 18 87 20 17 3 39 7 49 10 10 3 29 8 42 11 13 3 33 8 46 11 17 4 22 1 22 -14 0 -21 -65 -49 -200 -85 -112 -29 -245 -102 -308 -167 -31 -33 -52 -64 -52 -77 0 -12 -4 -24 -9 -26 -32 -11 -34 -201 -3 -269 20 -45 69 -102 109 -129 l23 -15 2 -705 c2 -655 5 -789 22 -864 8 -34 44 -107 86 -173 23 -36 30 -59 30 -97 1 -107 83 -205 205 -246 92 -31 142 -31 181 -2 l30 23 90 -54 c49 -29 126 -75 171 -102 96 -58 126 -75 244 -137 47 -26 108 -60 136 -77 28 -17 55 -31 60 -31 6 0 25 -10 44 -23 19 -13 69 -42 112 -65 204 -111 264 -143 287 -155 27 -14 43 -41 59 -104 41 -156 260 -279 489 -274 84 1 245 37 307 68 64 32 135 107 168 177 24 50 30 56 84 76 32 12 189 55 348 96 309 78 362 92 438 119 27 9 51 14 55 11 3 -3 10 -2 16 3 7 6 25 13 41 16 38 8 44 10 77 23 24 10 125 38 168 47 12 3 120 31 190 51 8 2 42 10 75 18 33 8 101 26 150 41 50 15 104 29 120 32 17 3 65 16 109 30 43 13 86 26 95 28 9 2 61 18 116 35 87 27 206 62 255 75 29 7 265 74 335 95 39 12 78 23 87 25 10 2 30 11 45 19 78 42 126 45 192 11 164 -82 511 -22 612 107 38 48 46 67 54 123 6 38 18 63 52 105 25 30 56 76 69 102 54 107 54 102 54 911 l0 750 48 51 c75 79 97 134 97 237 0 78 -3 91 -38 162 -69 139 -138 178 -627 353 -194 69 -286 103 -400 146 -126 48 -168 63 -325 118 -66 23 -127 45 -135 49 -8 5 -58 21 -110 36 -52 15 -149 49 -215 75 -66 26 -160 59 -210 74 -49 15 -159 49 -244 75 -188 59 -278 66 -394 30 -40 -12 -76 -25 -82 -29 -5 -4 -30 -10 -55 -13 -25 -3 -54 -9 -63 -13 -10 -3 -17 -1 -17 5 0 20 44 39 100 44 61 5 243 59 305 90 22 11 160 139 320 297 1020 1009 1243 1240 1263 1307 17 56 16 159 -1 207 -8 22 -29 54 -47 72 -36 38 -123 84 -156 84 -17 0 -34 20 -73 80 -28 44 -55 80 -61 80 -5 0 -10 6 -10 13 0 19 -105 126 -175 179 -173 131 -411 229 -581 240 -33 2 -65 3 -70 2z m168 -185 c21 -5 43 -7 48 -4 6 3 10 2 10 -2 0 -8 94 -47 115 -48 5 0 20 -10 34 -22 13 -13 32 -23 42 -23 10 0 21 -5 24 -10 3 -6 32 -28 63 -49 68 -46 191 -168 233 -231 39 -57 32 -62 -106 -84 -133 -21 -128 -21 -148 14 -10 16 -60 72 -111 124 -167 168 -394 292 -548 298 -32 1 -58 5 -58 8 1 26 36 37 140 46 36 4 66 7 67 8 5 5 159 -15 195 -25z m-342 -194 c24 -8 48 -14 54 -14 6 1 28 -5 48 -14 21 -10 42 -17 48 -17 6 0 9 -4 6 -9 -8 -12 -142 -47 -271 -70 -60 -11 -182 -33 -270 -50 -88 -16 -182 -32 -210 -36 -27 -4 -65 -13 -82 -20 -30 -13 -33 -18 -33 -58 0 -77 37 -90 165 -58 45 11 94 20 145 27 19 2 49 9 66 14 37 13 60 18 138 31 33 5 62 12 66 14 3 2 28 6 54 10 27 3 52 8 56 10 4 3 27 7 50 10 24 3 47 8 51 11 5 2 28 7 51 9 24 2 54 7 68 10 14 3 32 8 40 10 8 2 15 4 15 5 0 1 7 3 15 5 8 2 25 7 37 11 18 5 36 -7 95 -66 l73 -72 -40 -15 c-70 -25 -296 -74 -415 -88 -63 -8 -146 -22 -185 -30 -118 -25 -358 -65 -394 -65 -27 0 -45 10 -88 51 -57 54 -156 105 -262 135 -55 15 -75 16 -164 6 -56 -6 -125 -18 -153 -27 -60 -18 -150 -76 -188 -122 -30 -36 -96 -186 -96 -218 0 -19 -17 -24 -222 -58 -123 -20 -236 -39 -253 -42 -96 -18 -365 -66 -390 -71 -16 -3 -66 -12 -110 -20 -44 -8 -98 -17 -120 -19 -22 -3 -93 -13 -157 -23 -64 -11 -121 -16 -126 -13 -11 8 -92 125 -92 134 0 14 42 26 155 43 76 11 102 16 115 21 15 6 58 13 93 16 9 1 17 4 17 7 0 3 8 6 18 7 9 0 31 3 47 6 17 3 48 8 70 12 22 3 47 7 55 9 8 1 33 6 55 11 48 9 64 21 76 54 12 31 -5 78 -32 86 -19 6 -72 -2 -244 -36 -97 -19 -141 -26 -195 -34 -14 -2 -56 -10 -95 -19 -38 -9 -90 -21 -115 -26 -25 -5 -63 -14 -85 -19 -38 -9 -42 -8 -75 23 -19 18 -47 44 -62 56 -16 13 -28 29 -28 36 0 13 46 28 60 19 5 -3 11 -1 15 5 4 6 10 8 14 5 5 -2 35 0 67 6 32 6 69 12 81 13 12 1 25 5 28 8 4 4 13 4 21 1 8 -3 14 -1 14 4 0 5 15 9 32 8 18 0 35 3 38 6 5 6 239 47 305 53 22 2 54 6 70 10 41 9 125 26 161 32 16 3 36 7 44 9 8 2 38 7 65 10 50 6 157 23 205 31 14 3 35 5 48 5 12 -1 22 3 22 7 0 4 15 8 33 9 40 1 105 11 115 16 4 3 30 7 57 11 97 12 114 15 157 27 24 6 57 13 73 16 44 6 70 10 170 28 50 9 104 18 120 20 35 5 70 13 70 15 0 1 14 4 30 5 17 2 46 6 65 10 19 4 46 9 60 11 48 9 55 11 75 17 22 7 263 51 345 62 14 2 25 4 25 5 0 4 56 14 130 25 28 4 52 9 55 10 3 2 41 6 85 10 83 7 209 21 211 24 1 0 21 -6 44 -14z m1155 -395 c11 -12 24 -37 31 -56 13 -39 19 -33 -66 -63 -14 -5 -55 -14 -92 -20 -68 -11 -190 -31 -218 -36 -8 -2 -46 -10 -85 -19 -38 -9 -121 -25 -185 -36 -63 -10 -158 -28 -210 -40 -159 -34 -193 -41 -240 -45 -25 -3 -56 -7 -70 -10 -14 -3 -45 -7 -70 -10 -25 -3 -81 -12 -125 -20 -44 -8 -117 -20 -162 -26 -46 -6 -81 -14 -79 -18 2 -3 -10 -6 -27 -5 -30 1 -32 4 -40 50 -5 26 -13 54 -18 60 -20 24 1 44 48 44 32 0 42 3 37 13 -5 9 -4 9 6 0 8 -8 18 -9 24 -3 6 4 29 11 51 14 22 3 76 12 120 20 44 9 109 20 145 26 36 5 74 12 85 14 11 2 47 7 80 11 33 3 62 10 65 14 3 4 14 7 25 7 11 1 58 8 105 17 47 9 101 19 120 21 31 4 66 10 205 32 22 3 51 7 65 8 14 1 31 5 38 9 6 5 17 5 22 2 6 -3 10 -3 10 2 0 4 12 8 28 9 15 0 45 4 67 8 22 5 51 9 65 10 14 1 30 4 35 7 6 3 37 6 69 8 33 2 69 7 80 11 32 13 41 12 61 -10z m-2095 -82 c159 -49 240 -139 281 -316 27 -113 -7 -229 -79 -277 -49 -32 -163 -58 -230 -52 -66 6 -172 57 -212 103 -37 42 -96 167 -116 245 -13 50 -13 68 -3 115 18 82 55 126 138 166 77 38 136 42 221 16z m-2732 -22 c21 -2 44 -6 52 -9 8 -4 39 -14 67 -23 158 -49 341 -199 461 -376 18 -26 32 -51 32 -57 0 -12 -51 -28 -130 -41 -30 -6 -67 -12 -81 -16 -31 -7 -50 10 -112 101 -57 83 -209 234 -286 284 -66 42 -211 103 -239 100 -10 -1 -32 2 -50 6 -26 6 -30 10 -21 21 6 8 21 14 33 14 11 1 59 4 106 8 47 4 96 4 108 0 13 -5 40 -10 60 -12z m-241 -201 c141 -45 237 -110 347 -237 61 -69 125 -164 126 -184 0 -7 -23 -36 -50 -65 l-50 -53 -56 84 c-134 203 -273 294 -449 293 -154 -1 -269 -72 -440 -273 -161 -189 -244 -485 -232 -826 4 -130 25 -288 44 -334 8 -19 10 -28 21 -70 18 -67 63 -164 89 -192 46 -48 70 -38 137 56 33 47 178 228 371 466 66 82 138 171 160 200 22 28 66 84 98 123 32 40 75 95 96 122 22 28 74 84 116 125 42 41 106 115 142 163 42 56 71 86 79 83 8 -3 14 -2 14 3 0 7 59 31 154 61 16 5 33 7 38 4 5 -3 15 0 23 6 8 6 19 9 25 5 5 -3 10 -1 10 5 0 6 10 10 23 8 24 -2 42 1 227 39 69 14 137 26 153 26 15 0 27 3 27 7 0 3 6 7 13 7 32 3 117 14 157 23 115 23 155 30 200 33 14 1 27 5 31 9 3 4 35 10 71 12 37 2 70 6 75 9 4 3 31 8 58 11 56 7 64 8 120 24 22 6 62 13 88 16 27 3 52 8 56 10 3 3 35 7 70 10 35 4 67 8 71 11 4 3 23 7 41 9 19 3 61 12 94 20 32 9 62 13 66 8 4 -4 16 -29 27 -57 11 -27 23 -58 27 -67 5 -14 -3 -20 -47 -33 -61 -17 -181 -41 -253 -50 -58 -7 -178 -27 -320 -55 -131 -25 -209 -38 -270 -45 -27 -3 -75 -10 -105 -15 -30 -5 -82 -12 -115 -16 -33 -3 -64 -9 -70 -13 -5 -3 -23 -6 -40 -7 -16 -1 -43 -4 -60 -7 -16 -4 -66 -12 -110 -18 -44 -6 -83 -13 -87 -15 -4 -3 -31 -9 -60 -14 -121 -21 -255 -53 -289 -71 -51 -25 -209 -205 -209 -237 0 -5 -10 -20 -22 -33 -13 -14 -29 -36 -35 -49 -7 -14 -29 -45 -48 -70 -19 -25 -38 -50 -41 -57 -3 -7 -22 -29 -41 -49 -19 -21 -45 -54 -58 -73 -12 -20 -30 -42 -39 -50 -9 -7 -16 -19 -16 -26 0 -8 -11 -27 -25 -43 -14 -17 -25 -34 -25 -39 0 -5 -16 -25 -36 -44 -20 -18 -60 -68 -90 -110 -49 -70 -173 -216 -355 -420 -82 -91 -116 -148 -97 -161 7 -4 22 -6 33 -3 11 2 29 5 40 5 17 0 17 2 5 10 -11 7 -6 10 20 10 19 0 67 9 105 20 39 11 86 23 105 26 19 3 38 8 41 10 4 2 26 6 49 9 24 3 46 8 51 11 4 2 27 7 51 10 24 3 81 14 128 24 107 24 437 90 510 102 30 5 57 12 60 16 3 4 14 7 25 8 11 1 34 4 50 7 44 10 172 35 230 46 28 6 75 15 105 21 30 7 69 14 85 16 17 2 37 7 45 10 13 5 118 25 195 39 43 7 303 65 360 80 58 16 116 29 180 41 17 3 98 21 180 40 160 37 239 53 295 60 19 2 46 7 60 11 14 3 29 5 33 4 4 -1 72 14 150 34 163 40 322 73 386 81 25 3 72 11 106 19 95 22 128 28 156 26 77 -4 182 92 927 837 291 293 437 432 447 428 8 -3 15 -2 15 3 0 13 106 29 117 17 12 -12 -15 -55 -81 -129 -39 -44 -100 -115 -136 -156 -63 -74 -479 -493 -691 -695 -57 -55 -160 -154 -229 -221 -142 -137 -164 -149 -345 -189 -193 -42 -404 -78 -416 -70 -4 2 -10 0 -14 -6 -3 -5 -16 -10 -29 -10 -13 0 -85 -15 -162 -34 -76 -19 -179 -42 -229 -51 -49 -9 -128 -26 -175 -36 -47 -11 -98 -22 -115 -24 -32 -3 -38 -5 -125 -28 -175 -48 -249 -67 -280 -72 -72 -11 -196 -36 -224 -45 -16 -5 -33 -7 -38 -4 -5 3 -17 2 -26 -2 -9 -4 -35 -9 -56 -11 -22 -1 -121 -23 -220 -47 -229 -56 -417 -96 -449 -96 -21 0 -284 -52 -327 -65 -8 -2 -31 -7 -50 -10 -19 -3 -80 -17 -135 -30 -96 -23 -341 -72 -570 -113 -63 -12 -131 -18 -160 -16 -27 3 -81 6 -120 7 -55 2 -77 7 -103 26 -79 56 -173 204 -236 371 -29 78 -40 132 -71 330 -2 14 -6 51 -10 83 -3 32 -6 61 -7 65 -3 11 13 273 19 307 2 17 6 41 8 55 6 47 16 95 27 135 6 22 12 47 14 55 17 109 106 311 193 439 100 146 275 287 396 318 69 17 188 8 282 -22z m-95 -326 c18 -10 8 -22 -125 -153 -160 -157 -200 -210 -195 -252 3 -30 42 -59 89 -68 29 -5 55 18 100 85 65 98 307 330 316 303 2 -5 30 -45 63 -89 33 -44 60 -88 60 -97 0 -10 -13 -32 -28 -50 -16 -18 -50 -64 -75 -103 -40 -60 -80 -117 -172 -243 -72 -98 -170 -226 -207 -268 -24 -27 -64 -74 -88 -104 -91 -112 -194 -220 -210 -220 -35 0 -62 101 -75 280 -3 47 -8 93 -11 103 -11 36 8 59 74 89 76 34 174 130 193 187 11 31 10 36 -11 53 -37 30 -85 24 -122 -18 -39 -43 -107 -98 -113 -92 -3 2 5 38 16 79 12 41 27 97 35 125 7 29 31 90 53 135 96 201 330 373 433 318z m3120 -1318 c-18 -15 -38 -28 -45 -28 -6 0 -25 -4 -42 -8 -16 -4 -82 -15 -145 -25 -118 -19 -165 -27 -165 -30 0 -2 -36 -10 -77 -17 -40 -6 -47 2 -25 30 11 15 98 35 327 76 36 7 94 18 130 24 36 7 67 11 70 9 3 -2 -10 -16 -28 -31z m666 -62 c3 -2 9 -3 57 -12 54 -10 169 -45 228 -69 27 -11 51 -17 55 -14 3 3 10 2 16 -3 15 -11 89 -36 100 -33 4 2 14 -2 21 -8 13 -11 72 -33 345 -129 91 -32 197 -70 235 -85 39 -15 133 -49 210 -76 77 -26 178 -64 225 -82 47 -19 114 -45 150 -57 36 -13 79 -30 97 -37 17 -8 35 -14 41 -14 5 0 42 -14 82 -31 40 -16 122 -48 183 -70 160 -57 231 -101 262 -163 32 -65 34 -144 4 -193 -38 -62 -59 -68 -796 -254 -172 -43 -377 -99 -455 -124 -138 -44 -358 -95 -412 -95 -25 0 -26 2 -26 58 0 65 -24 125 -64 162 l-27 24 73 17 c318 71 323 72 398 93 30 9 91 25 135 35 44 11 120 31 168 45 49 14 143 37 208 51 66 15 146 35 177 46 31 11 117 33 190 50 166 37 182 44 182 79 0 49 -27 68 -132 95 -132 33 -321 93 -388 122 -86 38 -168 69 -395 148 -115 40 -280 99 -365 130 -85 31 -202 74 -260 95 -58 21 -185 68 -282 104 -225 83 -382 111 -483 84 -22 -6 -53 -12 -70 -15 -16 -2 -46 -8 -65 -13 -19 -5 -53 -12 -75 -16 -51 -7 -103 -18 -185 -38 -36 -9 -119 -27 -185 -40 -66 -14 -149 -31 -185 -40 -36 -8 -92 -17 -125 -21 -63 -6 -133 -23 -151 -36 -5 -5 -26 -10 -45 -13 -19 -3 -56 -12 -84 -20 -27 -8 -51 -14 -53 -11 -2 2 -23 -3 -45 -11 -23 -9 -53 -17 -67 -19 -123 -18 -211 -36 -440 -91 -146 -35 -287 -69 -315 -75 -27 -5 -86 -18 -130 -29 -44 -10 -102 -23 -130 -29 -27 -6 -111 -27 -185 -46 -74 -20 -164 -40 -200 -45 -36 -6 -83 -14 -105 -20 -22 -5 -89 -21 -150 -35 -60 -14 -132 -32 -160 -40 -27 -9 -61 -17 -74 -20 -13 -2 -38 -9 -55 -14 -17 -6 -96 -27 -175 -46 -212 -53 -265 -87 -224 -144 20 -27 51 -45 223 -125 120 -56 693 -336 821 -401 47 -24 126 -62 175 -83 49 -22 114 -51 144 -65 48 -22 196 -90 340 -155 84 -38 147 -53 225 -55 44 -1 124 14 131 24 3 5 10 7 15 4 5 -4 15 -3 22 2 6 4 17 8 22 10 23 4 101 22 120 26 11 3 64 17 118 32 120 32 102 28 277 70 80 19 154 35 166 35 11 0 24 3 28 7 3 4 14 8 24 10 27 4 329 82 423 109 47 13 95 26 105 28 26 6 165 36 184 41 8 2 27 8 42 14 15 6 29 7 31 3 3 -4 7 -45 11 -92 4 -47 9 -104 12 -127 6 -40 4 -43 -22 -54 -53 -20 -156 -50 -509 -144 -192 -52 -393 -106 -445 -121 -52 -14 -133 -37 -180 -50 -177 -50 -427 -113 -468 -119 -23 -3 -77 -6 -120 -7 -127 0 -235 41 -726 282 -135 66 -248 120 -251 120 -8 0 -960 476 -1033 517 -166 93 -215 199 -150 326 39 76 82 100 289 157 62 17 132 36 154 42 22 7 44 11 49 9 4 -1 27 5 50 14 23 9 46 15 52 14 19 -3 32 2 54 21 15 13 27 17 35 10 7 -6 21 -4 39 5 15 8 44 16 64 19 79 10 197 38 204 49 4 7 8 9 8 6 0 -4 17 -3 38 2 41 11 69 16 122 25 63 10 165 36 177 46 7 5 17 7 22 4 5 -4 12 -2 15 3 8 12 88 28 181 36 39 3 88 11 110 16 22 6 45 12 50 14 6 1 17 5 25 8 12 5 108 27 274 62 11 3 22 9 25 13 7 11 48 26 76 27 11 1 36 4 55 8 19 3 82 14 140 23 123 19 122 19 180 34 60 15 127 29 170 36 19 3 64 12 100 20 89 19 106 22 265 49 77 14 158 31 180 39 46 17 105 33 155 41 50 8 162 37 180 45 35 18 136 42 189 46 175 12 253 20 309 32 28 6 122 7 130 1z m-1395 -98 c-4 -15 -18 -20 -76 -26 -39 -3 -78 -10 -87 -14 -8 -4 -31 -5 -50 -1 -30 4 -32 6 -15 14 11 4 41 10 66 13 26 2 66 11 90 18 63 20 78 19 72 -4z m-411 -103 c-14 -14 -77 -28 -157 -34 -38 -3 -83 -7 -100 -8 -16 -2 -38 0 -50 4 -18 8 -17 9 8 11 28 2 45 5 50 9 1 1 18 3 37 5 109 10 153 15 156 17 1 2 17 3 34 4 19 1 28 -2 22 -8z m-538 -93 c-10 -8 -30 -14 -44 -14 -22 0 -21 2 10 14 47 18 58 18 34 0z m-74 -16 c0 -3 -26 -14 -57 -23 -32 -10 -69 -21 -83 -26 -45 -15 -90 -22 -90 -13 0 18 31 48 36 36 4 -9 18 -7 53 6 62 25 141 36 141 20z m-452 -91 c-10 -28 -74 -50 -235 -83 -92 -20 -188 -42 -213 -50 -76 -25 -285 -27 -244 -2 8 4 91 27 154 42 88 21 273 57 322 62 34 3 82 14 107 24 56 21 115 25 109 7z m2212 -177 c63 -1 126 -4 140 -6 14 -2 79 -11 145 -20 154 -21 245 -44 485 -122 107 -35 238 -74 290 -88 52 -13 133 -35 180 -49 47 -14 166 -46 265 -71 246 -62 255 -64 255 -75 0 -6 -6 -10 -14 -10 -16 0 -535 -125 -681 -165 -49 -13 -128 -31 -175 -40 -93 -18 -350 -79 -530 -125 -63 -16 -164 -41 -225 -55 -60 -13 -168 -41 -240 -60 -206 -56 -341 -91 -470 -120 -66 -14 -244 -57 -395 -95 -320 -80 -351 -85 -424 -70 -62 13 -244 84 -344 134 -108 55 -290 136 -305 136 -7 0 -17 4 -23 9 -5 5 -37 19 -72 31 -35 13 -59 26 -55 30 4 4 80 31 168 60 88 29 185 65 215 80 30 15 66 31 80 35 55 16 371 177 470 239 221 137 273 167 402 226 187 87 259 112 448 155 63 14 147 28 185 31 39 4 74 10 79 15 5 5 14 5 20 0 6 -4 63 -9 126 -10z m2842 -778 c18 -42 21 -1272 3 -1371 -15 -90 -67 -195 -116 -234 -25 -20 -70 -38 -145 -58 -60 -16 -131 -36 -159 -45 -27 -8 -88 -25 -135 -38 -81 -23 -237 -69 -290 -87 -52 -17 -115 -34 -125 -35 -5 0 -13 -4 -16 -9 -8 -10 -205 -66 -235 -66 -13 0 -26 -4 -29 -10 -3 -5 -15 -10 -26 -10 -10 0 -27 -4 -37 -9 -19 -11 -126 -42 -222 -66 -66 -16 -90 -21 -145 -30 -16 -3 -52 -13 -78 -21 -26 -9 -54 -13 -62 -11 -7 3 -19 -1 -25 -9 -7 -7 -31 -19 -54 -24 -22 -6 -50 -15 -61 -20 -11 -5 -63 -21 -115 -34 -52 -14 -142 -39 -199 -55 -57 -17 -111 -31 -120 -31 -9 0 -22 -5 -29 -12 -6 -6 -19 -13 -29 -14 -9 -2 -44 -10 -77 -18 -134 -34 -192 -47 -213 -50 -12 -2 -35 -8 -50 -14 -15 -6 -55 -18 -88 -27 -33 -9 -73 -21 -90 -26 -16 -6 -37 -12 -47 -14 -9 -2 -29 -10 -45 -18 -15 -8 -50 -18 -78 -22 -27 -4 -75 -13 -105 -22 -30 -8 -64 -16 -75 -17 -11 -2 -40 -11 -65 -20 -25 -8 -56 -16 -70 -16 -14 0 -53 -9 -85 -21 -33 -12 -68 -23 -77 -24 -10 -2 -32 -10 -50 -18 -39 -17 -141 -47 -297 -88 -63 -16 -120 -34 -126 -39 -24 -20 -120 -23 -180 -5 -57 16 -335 150 -385 185 -30 21 -200 120 -290 168 -36 20 -119 65 -185 102 -66 37 -151 84 -190 105 -38 21 -88 50 -110 65 -22 15 -87 53 -144 84 -57 32 -149 88 -205 125 -56 37 -147 93 -203 125 -185 105 -232 185 -249 432 -4 54 -7 304 -6 554 1 637 2 700 13 700 16 0 123 -61 135 -77 11 -13 16 -105 15 -273 -5 -899 -4 -929 62 -1039 35 -60 129 -143 204 -180 26 -14 59 -33 73 -42 26 -18 366 -209 485 -274 121 -65 145 -78 360 -197 228 -126 272 -141 328 -112 39 21 52 36 80 94 20 44 21 59 25 555 2 281 3 547 2 593 l-2 82 29 0 c15 -1 48 -11 73 -23 l45 -22 3 -190 c2 -178 4 -191 24 -212 15 -16 33 -23 60 -23 58 0 68 31 68 222 0 84 3 163 6 175 5 20 56 48 67 37 2 -2 17 2 33 11 53 27 62 22 69 -47 4 -35 7 -315 8 -623 l2 -560 23 -42 c61 -115 147 -158 257 -129 11 3 72 16 135 30 63 14 138 32 165 40 28 8 77 22 110 31 33 9 83 25 110 35 91 35 460 156 500 165 5 1 36 9 67 19 31 9 70 19 85 22 25 4 109 28 187 54 16 5 33 7 37 4 5 -3 9 -1 9 4 0 5 6 9 13 9 31 1 123 26 222 59 42 14 230 65 255 69 8 1 22 5 30 7 31 11 132 40 152 43 11 3 66 16 122 31 55 14 110 28 121 30 11 2 29 6 40 8 11 2 39 9 63 14 23 5 42 8 42 5 0 -3 7 0 15 7 8 7 15 10 15 7 0 -5 58 12 100 30 19 8 27 10 70 17 77 13 140 29 245 62 61 18 112 33 115 33 3 0 37 12 75 27 39 14 101 35 138 45 122 34 198 86 250 170 28 46 49 139 48 212 -4 502 -5 922 -1 1005 l5 104 50 18 c70 25 84 24 97 -7z m-1758 -33 c37 -45 43 -79 40 -251 -3 -168 -12 -220 -50 -286 -70 -121 -263 -189 -376 -134 -70 34 -128 129 -134 221 -1 19 -5 76 -8 127 -4 50 -2 94 2 97 8 5 1 76 -13 132 -4 19 1 23 43 29 26 3 92 17 147 30 55 14 116 27 135 31 19 4 64 12 100 19 36 7 70 13 77 14 6 0 23 -13 37 -29z m1439 -87 c3 -10 4 -70 3 -133 l-1 -115 -37 -18 c-20 -10 -45 -20 -55 -22 -10 -2 -36 -9 -58 -14 -65 -17 -82 -14 -87 14 -3 14 -2 28 2 30 4 3 7 52 7 110 -1 110 4 125 45 131 52 8 109 22 115 28 14 14 62 6 66 -11z m-399 -55 c17 -86 26 -870 12 -1078 -9 -145 -15 -176 -34 -193 -20 -18 -122 -46 -194 -53 -45 -4 -50 -3 -45 13 2 10 6 25 8 33 2 8 9 18 14 22 6 5 5 8 -4 8 -10 0 -11 3 -3 13 6 7 10 28 10 47 0 19 1 37 2 40 1 3 3 183 4 400 1 218 5 401 9 407 4 6 3 14 -2 18 -7 3 -7 15 -1 30 5 13 6 26 2 29 -4 2 -7 57 -7 122 l0 117 52 18 c28 9 53 15 56 13 2 -2 19 2 38 10 56 25 76 21 83 -16z m-5047 -187 c232 -116 830 -409 938 -460 61 -28 134 -64 164 -79 l53 -27 4 -127 c1 -71 2 -128 0 -128 -19 0 -436 194 -520 241 -41 24 -276 139 -282 139 -4 0 -68 31 -143 68 -75 38 -188 92 -251 121 l-115 51 1 60 c0 33 4 63 7 66 3 3 3 28 0 54 -6 52 0 80 17 80 5 0 63 -27 127 -59z m4653 -75 c0 -153 3 -149 -100 -178 -30 -9 -80 -25 -110 -36 -30 -11 -109 -32 -175 -47 -123 -28 -162 -41 -205 -72 -27 -20 -24 -11 15 42 36 51 95 152 95 165 0 6 7 18 15 26 9 10 15 34 15 64 0 49 17 80 45 80 7 0 53 12 101 26 100 29 248 62 282 63 22 1 22 0 22 -133z m797 -171 c5 -184 4 -258 -4 -266 -12 -12 -188 -69 -212 -69 -18 0 -20 4 -14 32 5 24 3 29 -7 23 -10 -6 -11 -4 -4 6 5 8 9 77 9 153 l0 140 100 27 c55 14 107 26 115 25 12 -1 15 -17 17 -71z m-2117 -55 c15 -45 83 -123 145 -166 l30 -21 -35 -16 c-19 -9 -78 -33 -130 -53 -52 -20 -111 -42 -130 -50 -19 -7 -56 -13 -82 -14 -25 0 -121 -18 -212 -40 -91 -22 -169 -40 -173 -40 -4 0 -9 65 -10 145 -3 168 -14 151 117 180 83 19 361 98 400 114 45 19 64 10 80 -39z m-3393 -109 c178 -88 353 -171 423 -202 41 -18 93 -44 114 -57 22 -14 82 -42 135 -64 53 -22 110 -46 126 -55 17 -8 100 -48 185 -87 85 -40 173 -84 196 -98 l41 -26 1 -176 c2 -132 -1 -176 -10 -176 -10 0 -221 96 -338 154 -102 51 -435 227 -559 295 -52 29 -165 88 -252 133 l-157 80 3 117 c2 64 4 135 4 159 1 23 3 42 6 42 2 0 39 -17 82 -39z m4711 -191 l-3 -145 -50 -11 c-108 -25 -145 -50 -145 -99 0 -55 30 -63 132 -34 26 7 50 10 54 7 9 -10 5 -197 -6 -238 -6 -21 -21 -45 -34 -53 -24 -16 -202 -66 -376 -106 -52 -12 -135 -35 -185 -51 -91 -29 -427 -118 -478 -127 -15 -2 -65 -16 -110 -30 -45 -14 -116 -33 -157 -43 -194 -47 -291 -73 -379 -100 -53 -16 -117 -32 -142 -35 l-46 -7 2 44 c1 23 2 88 3 144 l2 100 173 43 c248 62 297 79 298 99 4 55 -19 92 -56 92 -18 0 -215 -42 -330 -70 -90 -22 -84 -34 -84 175 1 102 4 187 8 189 4 3 19 7 33 10 14 2 47 11 74 20 27 9 99 30 159 46 61 17 124 40 142 50 17 10 63 23 101 29 39 6 82 15 96 21 14 5 26 8 26 6 0 -6 115 37 171 62 47 22 139 49 199 58 19 3 71 14 115 24 44 10 125 24 180 30 174 21 366 58 485 93 l115 35 8 -42 c4 -22 6 -106 5 -186z m-2076 140 c4 -25 7 -293 7 -595 1 -520 -6 -696 -28 -718 -10 -10 -197 -67 -221 -67 -13 0 -15 81 -13 677 3 626 4 679 20 691 9 6 27 12 39 12 13 0 26 5 29 10 4 6 15 8 25 5 11 -3 36 3 57 14 58 31 77 25 85 -29z m-427 -132 c2 -7 6 -75 8 -151 l4 -137 -51 -16 c-28 -8 -76 -18 -107 -21 l-56 -6 -1 151 -1 151 57 11 c31 7 68 16 82 20 37 12 60 11 65 -2z m3295 -173 c0 -143 -20 -171 -146 -209 l-79 -23 -5 41 c-3 22 -2 46 3 53 4 6 7 26 6 45 -5 69 1 129 14 132 6 2 48 15 92 29 122 39 115 43 115 -68z m-5120 -339 c25 -13 63 -33 85 -45 57 -30 490 -238 550 -264 81 -34 193 -97 197 -110 9 -26 2 -247 -7 -256 -10 -10 -81 26 -370 184 -38 21 -117 62 -175 92 -58 30 -117 63 -131 74 -15 10 -37 23 -50 29 -13 6 -40 21 -60 33 -38 22 -175 101 -258 148 -178 99 -182 101 -201 139 -28 56 -49 163 -37 195 6 13 150 -57 457 -219z m1833 57 c4 -15 2 -303 -2 -353 -1 -10 -31 -22 -101 -39 -55 -14 -103 -22 -106 -18 -8 7 -6 368 1 375 2 3 15 6 27 8 13 2 52 12 88 23 83 24 88 24 93 4z m3407 -403 c-6 -12 -23 -26 -38 -31 -44 -17 -163 -40 -191 -37 -20 2 -13 7 34 23 33 11 66 19 73 19 6 -1 12 2 12 7 0 8 81 37 108 38 10 1 10 -4 2 -19z m-5770 -151 c0 -4 -8 -10 -17 -13 -11 -4 -28 4 -50 26 -47 46 -41 54 17 21 27 -15 50 -31 50 -34z m2354 25 c10 -26 7 -166 -5 -207 -15 -56 -39 -74 -105 -83 -83 -10 -92 3 -93 145 0 118 -1 116 59 128 8 1 30 5 48 9 18 3 35 10 38 15 9 15 51 10 58 -7z m-730 -928 c69 -31 105 -38 169 -36 29 1 67 2 85 1 18 -1 42 4 54 10 11 6 30 13 42 14 11 2 48 10 81 19 33 8 61 13 63 11 2 -1 -23 -17 -55 -34 -116 -63 -272 -89 -362 -60 -39 13 -135 71 -145 88 -11 17 9 13 68 -13z"/>
<path d="M4618 8185 c-1 -2 -30 -6 -63 -9 -148 -16 -195 -49 -160 -115 18 -36 51 -47 98 -32 19 7 45 14 57 16 13 3 26 8 29 12 3 5 17 9 31 11 29 3 64 9 68 12 1 2 6 3 11 4 5 0 13 4 17 9 4 4 15 7 25 7 9 0 19 6 22 14 7 18 -3 59 -17 68 -10 7 -111 10 -118 3z"/>
<path d="M5158 7983 c-38 -10 -65 -86 -46 -130 6 -15 13 -37 14 -48 6 -51 47 -136 80 -164 19 -17 40 -32 47 -32 7 -1 23 -3 37 -4 14 -2 30 0 35 3 6 4 12 7 15 7 28 4 50 22 69 56 19 34 22 50 18 102 -10 109 -47 188 -99 206 -30 11 -136 13 -170 4z"/>
<path d="M3929 2872 c10 -7 10 -11 1 -17 -6 -4 -9 -13 -6 -20 2 -7 2 -16 -2 -20 -3 -3 -7 -32 -9 -63 -1 -31 -4 -96 -6 -144 -3 -56 -1 -91 7 -99 8 -9 8 -10 -1 -5 -8 4 -11 -9 -10 -44 1 -27 6 -50 10 -50 5 0 6 -7 3 -16 -14 -36 50 -133 121 -182 42 -29 47 -28 17 5 -13 14 -23 31 -21 37 3 6 -2 18 -10 27 -16 19 -16 36 -8 361 3 119 2 218 -2 221 -16 10 -98 18 -84 9z"/>
<path d="M4085 2169 c-4 -6 -5 -12 -2 -15 2 -3 7 2 10 11 7 17 1 20 -8 4z"/>
<path d="M6205 4633 c-77 -17 -114 -35 -125 -62 -16 -39 -10 -244 8 -281 14 -30 66 -61 99 -59 34 1 97 44 126 85 26 37 29 51 34 144 5 112 1 140 -23 164 -15 15 -72 20 -119 9z"/>
<path d="M6480 3564 c-69 -17 -168 -45 -220 -62 -52 -16 -142 -40 -200 -52 -169 -36 -179 -40 -200 -62 -24 -26 -26 -71 -4 -89 20 -17 56 -14 159 13 44 11 87 21 95 22 33 5 126 29 144 39 11 5 36 12 55 14 38 5 327 86 374 105 36 14 51 49 35 83 -10 23 -17 26 -62 24 -28 -2 -107 -17 -176 -35z"/>
<path d="M7428 7213 c-53 -67 -67 -85 -254 -334 -212 -281 -254 -367 -203 -403 61 -42 121 -4 193 124 20 36 46 78 59 95 32 43 224 304 255 348 15 20 38 50 52 66 14 16 31 46 38 65 12 33 11 40 -8 71 -16 27 -28 35 -50 35 -23 0 -38 -13 -82 -67z"/>
<path d="M8127 6945 c-15 -8 -81 -63 -145 -123 -124 -116 -238 -217 -445 -394 -131 -114 -150 -140 -127 -183 19 -35 53 -47 94 -32 29 10 198 145 298 237 14 14 50 45 80 70 29 25 78 68 108 95 73 67 167 146 208 174 44 31 67 77 53 107 -21 46 -83 71 -124 49z"/>
<path d="M8235 6119 c-69 -9 -102 -26 -116 -60 -9 -24 -9 -33 5 -54 25 -37 49 -46 135 -46 88 0 143 17 161 51 17 31 4 84 -23 98 -29 15 -99 20 -162 11z"/>
<path d="M8730 4452 c-52 -52 -54 -87 -7 -139 26 -28 42 -36 67 -36 45 0 100 58 100 106 0 43 -44 95 -87 103 -29 6 -38 1 -73 -34z"/>
<path d="M1465 2780 c-103 -7 -118 -12 -134 -46 -18 -40 -13 -60 20 -88 27 -23 40 -26 104 -26 43 0 77 5 81 11 4 8 9 8 13 1 11 -18 191 11 207 33 19 25 18 70 -2 101 -16 24 -20 25 -108 22 -50 -1 -131 -5 -181 -8z"/>
<path d="M8257 2675 c-40 -39 -32 -110 14 -132 15 -7 64 -15 110 -18 149 -9 223 -15 259 -20 19 -2 62 -7 95 -10 33 -3 67 -7 75 -10 8 -2 38 -6 65 -10 28 -3 60 -9 73 -12 12 -3 38 -2 57 1 39 8 65 45 65 94 0 58 -45 76 -220 88 -58 3 -118 8 -135 9 -16 2 -77 6 -135 10 -58 3 -118 8 -135 10 -138 17 -172 17 -188 0z"/>
<path d="M1970 2439 c-166 -71 -303 -126 -360 -144 -92 -30 -127 -51 -139 -86 -22 -64 41 -132 106 -113 16 4 30 8 33 9 3 0 21 9 40 20 19 11 39 18 44 17 5 -2 12 1 15 5 3 5 51 26 106 47 55 22 127 51 160 66 33 15 77 33 98 41 63 22 107 65 107 104 0 41 -38 75 -84 75 -17 -1 -74 -19 -126 -41z"/>
<path d="M7440 2413 c-27 -34 -21 -89 11 -116 12 -9 67 -31 123 -48 150 -46 397 -130 519 -178 71 -28 129 -5 146 56 13 45 -3 75 -46 90 -126 47 -685 223 -706 223 -16 0 -34 -10 -47 -27z"/>
<path d="M2485 2208 c-16 -6 -64 -36 -105 -68 -41 -31 -117 -83 -167 -114 -51 -31 -99 -67 -108 -79 -23 -32 -18 -71 11 -101 48 -47 86 -35 227 75 80 62 181 129 195 129 6 0 24 16 41 35 39 45 41 86 5 114 -29 23 -53 25 -99 9z"/>
<path d="M6672 2195 c-35 -26 -45 -61 -27 -99 12 -25 43 -48 138 -103 67 -38 160 -89 207 -113 47 -23 92 -48 100 -55 8 -6 40 -26 71 -43 91 -51 161 -38 175 33 10 57 -11 76 -183 161 -178 88 -262 135 -350 197 -51 36 -100 44 -131 22z"/>
<path d="M2775 1978 c-61 -33 -71 -93 -25 -140 35 -34 67 -33 109 5 54 50 44 104 -24 133 -40 16 -35 16 -60 2z"/>
<path d="M5880 1967 c-35 -18 -55 -57 -46 -92 8 -30 25 -48 220 -230 58 -55 122 -114 140 -132 28 -26 40 -31 68 -27 19 3 44 17 59 33 48 51 22 103 -101 202 -25 20 -85 78 -135 129 -78 80 -145 130 -172 130 -4 0 -19 -6 -33 -13z"/>
<path d="M5274 1733 c-35 -29 -44 -56 -33 -96 13 -48 54 -80 92 -73 66 13 107 66 93 120 -12 50 -112 82 -152 49z"/>
</g>
</svg>