<svg version="1.0" xmlns="http://www.w3.org/2000/svg" width="752.000000pt" height="1132.000000pt" viewBox="0 0 752.000000 1132.000000" preserveAspectRatio="xMidYMid meet">

<g transform="translate(0.000000,1132.000000) scale(0.100000,-0.100000)" fill="#41596b" stroke="none">
<path d="M3450 11169 c-487 -42 -1025 -232 -1440 -510 -550 -367 -991 -981 -1111 -1544 -18 -87 -22 -144 -26 -440 l-5 -340 58 -64 59 -65 5 -244 5 -244 40 -35 c22 -19 65 -48 97 -66 59 -32 65 -43 63 -113 0 -21 -2 -942 -3 -2045 l-2 -2005 -64 -23 c-36 -13 -81 -37 -100 -54 l-36 -32 -6 -218 -7 -217 -47 -34 -48 -34 -7 -202 -8 -201 -54 -67 -54 -67 5 -235 c6 -323 30 -437 141 -665 74 -153 159 -269 305 -415 196 -196 408 -322 695 -412 61 -19 286 -70 360 -82 131 -21 141 -25 158 -61 32 -67 123 -112 336 -165 364 -91 1067 -121 1616 -69 266 25 535 84 669 147 48 23 71 41 95 76 18 25 34 46 38 46 16 0 234 45 339 70 360 87 587 206 822 434 221 213 341 418 423 721 19 70 22 114 26 345 l5 266 -53 69 -54 70 -3 197 -3 197 -53 45 -54 46 -4 209 c-3 209 -3 210 -28 231 -32 28 -71 48 -133 69 l-49 17 0 2054 c0 1130 1 2061 1 2067 1 7 26 27 56 44 31 17 77 50 103 74 l47 43 5 240 5 240 59 62 59 61 -6 327 c-5 282 -8 341 -27 427 -118 553 -479 1092 -990 1482 -443 337 -1018 554 -1570 593 -167 11 -511 11 -650 -1z m745 -173 c123 -17 311 -54 425 -85 143 -38 442 -151 474 -179 190 -167 252 -234 331 -362 15 -25 32 -47 36 -50 4 -3 12 -17 18 -30 6 -14 18 -35 27 -47 10 -14 12 -23 5 -23 -6 0 -11 5 -11 11 0 19 -18 -1 -25 -28 -3 -16 -16 -38 -27 -50 -12 -13 -16 -23 -9 -23 6 0 21 16 32 35 12 19 25 35 30 35 13 0 11 -13 -7 -38 -9 -13 -13 -26 -9 -30 4 -4 9 -2 12 3 9 25 23 39 30 31 4 -5 2 -11 -4 -13 -7 -3 -13 -11 -13 -18 0 -7 -11 -27 -25 -43 -14 -17 -25 -36 -24 -43 0 -11 2 -11 6 -1 11 29 51 62 67 56 9 -3 16 -1 16 5 0 6 -7 11 -16 11 -8 0 -12 5 -9 10 3 6 10 10 15 10 8 0 11 -8 26 -62 3 -10 1 -18 -5 -18 -6 0 -11 7 -11 15 0 8 -5 15 -11 15 -6 0 -8 -8 -4 -19 3 -11 0 -23 -6 -27 -9 -5 -7 -11 7 -21 16 -12 17 -15 4 -23 -13 -8 -13 -10 -1 -10 11 0 12 -3 3 -12 -8 -8 -15 -8 -29 3 -17 13 -17 13 -4 -4 12 -15 12 -20 2 -27 -10 -6 -11 -12 -2 -26 10 -18 10 -18 11 -1 0 11 6 17 13 14 6 -2 12 -14 11 -26 -1 -28 7 -27 41 9 29 30 58 43 35 15 -7 -8 -10 -22 -6 -31 5 -12 1 -14 -17 -10 -12 3 -16 3 -9 0 6 -3 12 -13 12 -22 1 -15 3 -14 15 2 8 11 13 28 9 38 -3 10 -1 18 4 18 13 0 22 -39 11 -46 -5 -3 -5 -13 1 -24 13 -24 13 -40 0 -40 -5 0 -10 10 -10 21 0 18 -3 19 -14 9 -8 -6 -12 -18 -9 -26 3 -9 -2 -14 -14 -14 -19 0 -43 -18 -43 -32 0 -14 28 -8 34 7 3 8 16 15 28 14 l23 0 -22 -11 c-13 -6 -23 -15 -23 -20 0 -13 38 -9 43 5 3 7 6 4 6 -7 1 -16 -4 -18 -41 -12 -96 16 -239 38 -338 51 -58 8 -130 19 -160 25 -200 37 -655 60 -895 44 -123 -7 -127 -8 -70 -15 70 -9 227 -23 480 -45 200 -16 573 -64 735 -94 239 -44 318 -60 371 -75 l55 -17 12 -57 c15 -70 15 -84 2 -76 -5 3 -10 15 -10 26 0 10 -4 19 -9 19 -5 0 -7 10 -5 23 2 12 1 15 -2 7 -4 -8 -12 -18 -18 -22 -6 -4 -4 -9 7 -14 21 -8 22 -24 2 -24 -8 0 -14 -3 -14 -7 3 -21 -2 -24 -18 -12 -15 13 -15 12 -3 -11 9 -17 10 -25 1 -28 -13 -4 -15 -32 -2 -32 5 0 11 4 13 9 2 5 11 4 21 -4 16 -11 14 -12 -15 -10 -18 2 -36 3 -40 4 -13 2 -9 29 4 33 8 3 2 15 -16 33 -27 27 -28 27 -21 5 6 -19 4 -22 -9 -17 -11 4 -15 3 -11 -4 4 -5 15 -7 26 -4 26 8 24 -10 -3 -35 -19 -18 -20 -20 -4 -14 23 9 48 -20 39 -44 -4 -10 3 -6 15 8 l22 25 -15 -36 c-14 -35 -13 -37 10 -47 14 -6 31 -9 38 -6 8 3 20 -2 27 -11 7 -8 19 -15 26 -15 13 0 34 -37 34 -59 0 -4 -33 1 -72 11 -165 41 -298 71 -382 83 -245 38 -402 90 -190 64 49 -6 112 -12 139 -14 28 -2 63 -8 78 -14 43 -17 87 -14 87 5 0 13 -7 15 -30 10 -19 -3 -29 -2 -25 4 4 6 -8 10 -29 10 -19 0 -46 4 -59 9 -21 8 -245 38 -332 44 -16 1 -33 6 -37 11 -4 6 -13 4 -22 -3 -10 -9 -16 -10 -16 -2 0 6 -11 8 -30 5 -16 -4 -30 -2 -30 3 0 5 -8 9 -17 9 -10 0 -72 6 -138 12 -141 14 -459 29 -775 37 -281 7 -732 -7 -738 -23 -2 -7 -15 -9 -34 -5 -17 3 -33 1 -37 -5 -3 -6 -56 -16 -116 -22 -308 -31 -641 -78 -820 -115 -252 -53 -370 -79 -445 -100 -87 -24 -106 -24 -95 2 3 9 12 61 20 116 9 55 18 103 20 108 3 4 10 34 16 66 18 101 22 103 239 152 132 30 241 48 410 71 80 10 159 22 175 25 32 6 375 36 684 60 101 8 186 17 188 19 2 2 -62 7 -144 11 -172 9 -406 1 -583 -19 -346 -40 -389 -47 -724 -111 -99 -19 -181 -33 -184 -30 -8 7 46 160 97 276 40 89 97 197 194 362 61 104 207 269 277 314 25 15 67 45 95 65 27 21 58 38 67 38 9 0 38 9 65 21 267 116 598 195 938 223 103 8 544 -4 650 -18z m-2056 -465 c-138 -166 -205 -271 -300 -466 -38 -77 -86 -190 -107 -251 -21 -60 -42 -115 -45 -121 -4 -6 -22 -15 -40 -18 -56 -13 -228 -84 -340 -142 -59 -31 -110 -54 -113 -51 -6 7 92 173 192 323 130 196 285 376 450 521 66 58 250 199 290 222 33 19 37 13 13 -17z m3382 -59 c118 -88 196 -158 187 -167 -3 -3 -23 11 -44 32 -40 39 -83 68 -90 60 -2 -2 16 -25 41 -51 25 -27 45 -52 45 -58 0 -5 4 -7 9 -4 5 4 7 -3 4 -14 -3 -12 0 -20 7 -20 19 0 42 -29 36 -45 -3 -8 -1 -15 4 -15 6 0 10 5 10 10 0 6 4 10 9 10 5 0 7 -10 4 -21 -5 -18 -3 -20 16 -14 12 3 21 3 20 -2 -3 -13 13 -45 33 -65 13 -13 17 -26 12 -40 -5 -17 -3 -20 10 -15 9 4 16 2 16 -4 0 -5 -7 -12 -16 -16 -15 -5 -15 -7 0 -15 9 -5 16 -18 16 -28 0 -10 8 -25 18 -32 11 -7 24 -31 29 -53 6 -22 11 -33 12 -24 1 17 41 34 41 18 0 -5 -4 -9 -10 -9 -15 0 -12 -46 4 -59 12 -10 14 -24 6 -51 -1 -3 -5 5 -10 18 -5 12 -15 22 -22 22 -9 0 -9 -3 0 -12 7 -7 12 -20 12 -30 0 -15 4 -16 26 -7 29 10 47 3 25 -10 -8 -5 -10 -14 -6 -21 4 -7 1 -16 -6 -21 -11 -8 -8 -15 16 -34 34 -28 31 -29 -45 -11 l-55 12 -31 90 c-43 124 -113 282 -190 426 -70 131 -114 196 -183 271 -24 26 -39 47 -34 47 6 0 39 -22 74 -48z m99 -432 c12 -23 12 -24 -3 -11 -10 7 -17 20 -17 29 0 18 3 16 20 -18z m-60 -11 c0 -6 -4 -7 -10 -4 -5 3 -10 11 -10 16 0 6 5 7 10 4 6 -3 10 -11 10 -16z m35 1 c3 -5 2 -10 -4 -10 -5 0 -13 5 -16 10 -3 6 -2 10 4 10 5 0 13 -4 16 -10z m-12 -32 c2 -7 -2 -21 -11 -31 -8 -9 -12 -20 -9 -24 4 -3 16 6 28 20 11 15 25 27 30 27 6 0 3 -7 -5 -16 -9 -8 -16 -19 -16 -24 0 -12 -28 -20 -45 -14 -19 7 -19 19 -2 36 8 7 12 19 9 26 -5 16 15 16 21 0z m71 -43 c3 -8 1 -15 -4 -15 -6 0 -10 7 -10 15 0 8 2 15 4 15 2 0 6 -7 10 -15z m26 -55 c0 -5 -5 -10 -11 -10 -5 0 -7 5 -4 10 3 6 8 10 11 10 2 0 4 -4 4 -10z m-10 -41 c0 -5 -4 -9 -10 -9 -5 0 -10 7 -10 16 0 8 5 12 10 9 6 -3 10 -10 10 -16z m10 -39 c0 -5 -5 -10 -11 -10 -5 0 -7 5 -4 10 3 6 8 10 11 10 2 0 4 -4 4 -10z m341 -13 c-10 -9 -11 -8 -5 6 3 10 9 15 12 12 3 -3 0 -11 -7 -18z m49 -7 c0 -5 -4 -10 -10 -10 -5 0 -10 5 -10 10 0 6 5 10 10 10 6 0 10 -4 10 -10z m-390 -51 c0 -4 -7 -6 -15 -3 -8 4 -15 10 -15 15 0 4 7 6 15 3 8 -4 15 -10 15 -15z m360 11 c0 -5 -5 -10 -11 -10 -5 0 -7 5 -4 10 3 6 8 10 11 10 2 0 4 -4 4 -10z m-306 -18 c3 -5 -1 -9 -9 -9 -8 0 -12 4 -9 9 3 4 7 8 9 8 2 0 6 -4 9 -8z m276 -22 c0 -5 -4 -10 -10 -10 -5 0 -10 5 -10 10 0 6 5 10 10 10 6 0 10 -4 10 -10z m117 -12 c-3 -8 -6 -5 -6 6 -1 11 2 17 5 13 3 -3 4 -12 1 -19z m-91 -25 c-10 -10 -19 5 -10 18 6 11 8 11 12 0 2 -7 1 -15 -2 -18z m-4376 -100 c0 -8 -42 -222 -63 -323 -12 -53 -14 -56 -67 -82 -68 -34 -80 -34 -80 -3 0 15 6 25 14 25 8 0 31 15 50 34 42 39 47 77 15 100 -25 17 -47 12 -74 -19 -11 -12 -67 -41 -125 -64 -58 -23 -140 -62 -183 -87 -44 -25 -81 -44 -83 -42 -4 5 28 112 51 175 21 55 105 115 263 190 187 89 282 121 282 96z m4341 -25 c27 -12 49 -26 49 -31 0 -5 -5 -5 -12 1 -19 15 -113 28 -104 13 11 -18 -5 -13 -20 7 -37 48 -8 51 87 10z m-16 -66 c-4 -18 -1 -25 15 -29 11 -3 20 -7 20 -9 0 -10 -36 -44 -46 -44 -9 0 -9 -10 -2 -40 6 -22 14 -40 18 -40 4 0 10 -22 12 -50 4 -36 11 -55 29 -69 18 -15 20 -20 8 -21 -21 0 -58 36 -64 63 -10 45 -33 173 -40 217 -6 41 -5 43 8 26 10 -14 16 -16 22 -7 4 7 2 18 -4 24 -18 18 -12 28 9 15 15 -9 19 -20 15 -36z m335 38 c0 -5 -2 -10 -4 -10 -3 0 -8 5 -11 10 -3 6 -1 10 4 10 6 0 11 -4 11 -10z m24 -26 c3 -8 2 -12 -4 -9 -6 3 -10 10 -10 16 0 14 7 11 14 -7z m-329 -14 c3 -5 1 -10 -4 -10 -6 0 -11 5 -11 10 0 6 2 10 4 10 3 0 8 -4 11 -10z m-235 -10 c0 -5 -4 -10 -10 -10 -5 0 -10 -5 -10 -10 0 -6 10 -8 24 -4 29 7 43 -11 24 -33 -11 -15 -11 -16 5 -10 11 4 17 1 17 -9 0 -8 -4 -12 -10 -9 -5 3 -10 1 -10 -4 0 -6 6 -11 13 -12 6 0 -1 -5 -16 -11 -22 -8 -26 -13 -16 -24 16 -19 33 -18 25 2 -6 15 -4 15 10 3 11 -9 13 -14 4 -17 -9 -3 -9 -6 1 -13 7 -4 10 -11 6 -16 -5 -4 -11 -3 -15 3 -11 17 -51 36 -62 29 -6 -3 -7 1 -4 9 3 9 10 16 14 16 5 0 7 8 5 18 -1 9 0 11 2 5 3 -7 9 -13 14 -13 18 0 8 28 -21 59 -25 26 -28 34 -18 46 15 17 28 19 28 5z m315 0 c3 -5 1 -10 -4 -10 -6 0 -11 5 -11 10 0 6 2 10 4 10 3 0 8 -4 11 -10z m-26 -19 c8 -5 11 -16 6 -30 -6 -21 -25 -29 -25 -11 0 6 5 10 10 10 18 0 10 17 -12 28 -14 6 -17 11 -8 11 8 0 21 -3 29 -8z m51 -11 c0 -5 -4 -10 -10 -10 -5 0 -10 5 -10 10 0 6 5 10 10 10 6 0 10 -4 10 -10z m-89 -46 c-6 -19 -10 -22 -10 -10 -1 20 -1 20 -16 0 -12 -16 -14 -17 -15 -2 0 9 9 20 20 23 11 3 20 11 20 17 0 6 2 9 5 7 2 -3 0 -18 -4 -35z m-921 16 c0 -5 -2 -10 -4 -10 -3 0 -8 5 -11 10 -3 6 -1 10 4 10 6 0 11 -4 11 -10z m990 -4 c0 -3 -4 -8 -10 -11 -5 -3 -10 -1 -10 4 0 6 5 11 10 11 6 0 10 -2 10 -4z m11 -29 c-10 -9 -11 -8 -5 6 3 10 9 15 12 12 3 -3 0 -11 -7 -18z m-41 -7 c6 -11 7 -20 2 -20 -10 0 -32 21 -32 32 0 16 19 8 30 -12z m73 -25 c-16 -22 -33 -32 -33 -20 0 9 34 45 43 45 4 0 0 -11 -10 -25z m-1898 5 c338 -19 506 -38 1000 -115 201 -32 630 -136 654 -159 11 -11 11 -16 3 -16 -9 0 -10 -5 -3 -17 10 -20 10 -308 -1 -318 -4 -4 -69 7 -145 24 -119 26 -273 54 -653 116 -47 8 -139 19 -205 25 -66 5 -194 17 -285 25 -238 22 -970 31 -1333 16 -378 -16 -665 -41 -927 -82 -141 -22 -556 -103 -610 -119 -58 -17 -87 -13 -94 13 -10 37 -7 297 4 317 15 28 121 59 455 134 333 75 762 131 1185 155 209 12 745 12 955 1z m1773 -1 c-2 -6 -8 -10 -13 -10 -5 0 -11 4 -13 10 -2 6 4 11 13 11 9 0 15 -5 13 -11z m177 -11 c-6 -16 -4 -20 8 -15 11 4 14 2 10 -9 -3 -9 -13 -14 -24 -11 -11 3 -19 0 -20 -6 0 -8 -2 -9 -5 -1 -3 6 0 23 5 37 13 32 36 37 26 5z m71 -51 c8 3 14 0 14 -7 0 -8 9 -11 25 -7 16 3 24 0 22 -7 -4 -12 -47 -18 -47 -5 0 4 -13 10 -30 14 -34 7 -35 10 -17 29 10 12 13 11 15 -4 2 -12 9 -17 18 -13z m83 -43 c-14 -18 -24 -11 -15 11 3 9 11 13 16 10 8 -5 7 -11 -1 -21z m-4979 -88 c0 -45 -20 -63 -141 -124 -68 -33 -144 -80 -169 -102 -43 -40 -45 -40 -48 -17 -5 36 14 73 51 101 34 26 283 156 299 156 4 0 8 -6 8 -14z m180 -243 c0 -76 5 -156 10 -178 5 -22 7 -47 5 -55 -3 -8 -44 -30 -92 -49 -167 -65 -334 -153 -395 -209 -14 -13 -31 -21 -37 -18 -6 4 -11 37 -11 76 l0 69 68 38 c37 21 115 58 174 84 59 26 115 52 123 59 12 10 15 38 15 134 0 66 4 126 8 133 7 12 97 51 120 52 9 1 12 -33 12 -136z m4535 105 c51 -25 63 -52 16 -38 -15 4 -35 4 -42 -1 -10 -6 -11 -9 -1 -9 6 0 12 -5 12 -11 0 -5 -4 -7 -10 -4 -5 3 -10 3 -11 -2 0 -4 -2 -27 -5 -50 -4 -28 -2 -43 5 -43 6 0 11 7 11 15 0 11 6 10 26 -7 15 -14 20 -24 13 -27 -6 -2 -15 3 -20 10 -6 10 -9 6 -9 -13 0 -15 -9 -36 -21 -47 -12 -11 -18 -25 -14 -31 4 -6 1 -17 -5 -25 -10 -12 -9 -15 9 -15 11 0 21 -5 21 -11 0 -6 -7 -9 -15 -5 -8 3 -18 -2 -23 -11 -16 -27 -23 3 -12 51 5 25 11 101 11 170 1 69 6 126 10 126 5 0 29 -10 54 -22z m-4753 -58 c1 -3 -2 -47 -6 -98 l-8 -93 -81 -40 c-45 -23 -107 -58 -138 -79 -32 -22 -60 -36 -63 -33 -11 11 -6 83 8 117 27 64 282 264 288 226z m4755 -62 c-3 -7 -5 -2 -5 12 0 14 2 19 5 13 2 -7 2 -19 0 -25z m168 -68 c3 -5 1 -10 -4 -10 -6 0 -11 5 -11 10 0 6 2 10 4 10 3 0 8 -4 11 -10z m-145 -25 c0 -8 -4 -15 -10 -15 -5 0 -10 7 -10 15 0 8 5 15 10 15 6 0 10 -7 10 -15z m-1737 -40 c22 -6 27 -13 27 -39 0 -18 -4 -36 -9 -42 -6 -5 -65 -6 -153 -1 -79 4 -352 6 -608 5 l-464 -3 -10 33 c-5 18 -6 35 -2 39 15 15 231 21 696 18 272 -2 507 -7 523 -10z m1687 5 c0 -5 -4 -10 -10 -10 -5 0 -10 5 -10 10 0 6 5 10 10 10 6 0 10 -4 10 -10z m264 -6 c5 -14 4 -15 -9 -4 -17 14 -19 20 -6 20 5 0 12 -7 15 -16z m-3248 -39 c10 -55 3 -61 -78 -68 -246 -22 -539 -65 -798 -117 -142 -29 -399 -91 -432 -105 -12 -5 -21 2 -33 25 -32 62 -11 78 173 129 256 70 589 125 941 156 231 20 219 21 227 -20z m1804 -1 c420 -50 807 -133 818 -176 5 -20 18 -24 24 -6 3 7 11 9 24 4 12 -6 15 -10 7 -13 -7 -3 -13 -11 -13 -19 0 -12 -4 -12 -21 -4 -11 7 -23 9 -26 6 -8 -8 7 -26 23 -26 8 0 14 -5 14 -11 0 -6 -8 -8 -17 -5 -38 10 -151 36 -223 50 -41 8 -109 21 -150 29 -138 28 -304 55 -405 67 -55 6 -127 15 -160 21 -33 5 -109 14 -168 19 -60 5 -113 12 -118 15 -8 6 -6 33 7 73 4 16 102 9 384 -24z m1210 -35 c0 -5 -4 -9 -10 -9 -5 0 -10 7 -10 16 0 8 5 12 10 9 6 -3 10 -10 10 -16z m416 -36 c-6 -6 -36 9 -36 18 0 5 9 4 20 -3 10 -7 18 -14 16 -15z m-426 7 c8 -5 11 -10 5 -10 -5 0 -17 5 -25 10 -8 5 -10 10 -5 10 6 0 17 -5 25 -10z m-1981 -130 c389 -16 681 -45 1071 -106 85 -13 182 -31 215 -39 33 -8 121 -29 195 -45 274 -62 375 -108 327 -149 -11 -8 -29 -6 -73 10 -117 41 -473 119 -679 149 -38 6 -117 17 -175 26 -179 26 -465 52 -695 65 -211 11 -914 8 -1035 -4 -30 -3 -102 -8 -160 -12 -465 -28 -1003 -120 -1347 -232 -68 -22 -84 -24 -97 -14 -24 20 -19 49 12 65 54 28 482 137 667 170 279 50 755 98 1152 115 259 11 361 12 622 1z m1711 -30 c0 -15 -7 -20 -24 -20 -14 0 -28 5 -32 11 -5 8 1 10 20 7 18 -4 26 -1 26 8 0 8 2 14 5 14 3 0 5 -9 5 -20z m-4190 -27 c7 -16 16 -41 21 -56 9 -32 29 -21 -200 -117 -143 -59 -214 -98 -259 -140 -13 -12 -26 -20 -29 -17 -2 3 -7 32 -10 64 l-5 59 43 38 c24 20 69 51 99 67 79 43 281 128 306 129 13 0 26 -10 34 -27z m4325 -37 c-8 -18 -11 -36 -8 -40 4 -3 -1 -6 -10 -6 -23 0 -21 16 4 51 27 38 31 37 14 -5z m-2709 -51 c-8 -31 19 -35 29 -4 4 11 9 19 11 16 3 -2 0 -16 -5 -30 -6 -15 -6 -29 -2 -32 5 -3 11 2 15 10 3 8 10 15 15 15 6 0 7 -8 4 -17 -5 -12 -2 -15 9 -10 11 4 18 -2 22 -19 5 -19 15 -25 47 -30 33 -6 38 -9 24 -16 -9 -6 -26 -8 -36 -5 -27 7 -42 -34 -33 -88 4 -22 7 -45 6 -52 -2 -6 14 -20 34 -29 30 -15 37 -15 45 -3 7 12 12 12 30 1 19 -12 21 -12 17 0 -4 10 3 14 28 15 19 1 31 -3 28 -8 -3 -5 2 -9 10 -9 8 0 18 5 21 10 5 8 11 7 21 -1 10 -8 14 -8 14 0 0 6 5 11 10 11 6 0 10 -6 10 -13 0 -8 16 -13 45 -14 25 0 45 3 45 8 0 14 28 11 34 -3 3 -9 10 -7 22 7 11 13 15 15 11 5 -4 -12 2 -15 22 -14 14 1 34 5 44 9 9 4 17 3 17 -2 0 -12 43 -11 53 1 5 8 9 8 15 0 4 -6 23 -10 42 -9 19 1 41 -2 48 -7 8 -7 17 -7 26 1 11 9 16 9 21 1 4 -7 21 -10 37 -8 16 3 31 1 34 -4 3 -5 12 -4 20 3 11 9 14 8 14 -7 0 -13 3 -15 11 -7 10 10 72 9 159 -3 25 -3 74 -8 110 -11 78 -6 115 -10 115 -12 0 -2 20 -5 45 -7 25 -3 73 -11 108 -20 61 -15 125 -25 167 -28 11 0 22 -3 25 -7 7 -8 192 -50 197 -45 7 6 75 -23 96 -42 31 -27 18 -29 -52 -6 -124 41 -364 86 -596 114 -233 27 -776 39 -1077 24 l-128 -7 -6 -33 c-3 -18 -4 -39 -2 -46 3 -9 80 -12 359 -9 195 1 388 -1 429 -5 l75 -8 -50 -7 c-27 -4 -221 -8 -430 -8 l-380 0 0 -172 c0 -171 0 -171 23 -180 41 -16 525 -22 767 -10 449 22 872 84 1056 156 15 6 17 -28 24 -377 8 -442 3 -3793 -6 -3802 -3 -3 -48 3 -100 14 -147 32 -558 65 -924 75 -246 7 -218 -8 -299 160 -67 137 -143 375 -161 505 l-7 45 137 -3 c166 -5 271 17 411 83 259 124 453 351 589 690 126 314 158 613 175 1625 6 327 13 616 16 643 4 29 3 47 -4 47 -5 0 -59 -28 -118 -63 -91 -53 -334 -191 -409 -233 -46 -25 -216 -125 -276 -162 -36 -22 -103 -61 -150 -87 -229 -129 -623 -383 -715 -461 -252 -213 -371 -427 -405 -731 -7 -57 -14 -101 -18 -98 -3 4 -11 52 -17 108 -15 141 -4 249 35 335 30 65 30 66 6 37 -89 -105 -196 -313 -235 -457 -25 -95 -50 -268 -50 -349 0 -90 25 -247 55 -340 51 -161 143 -307 267 -424 98 -92 238 -166 365 -193 l83 -17 64 -185 c76 -222 93 -265 146 -371 23 -44 38 -84 35 -88 -4 -3 -122 -9 -263 -13 -307 -9 -733 -42 -892 -69 -63 -11 -132 -23 -152 -26 l-38 -6 0 2122 c0 1502 3 2121 11 2121 13 0 39 25 39 38 0 14 75 9 76 -6 1 -6 3 -15 4 -19 1 -5 1 -20 0 -34 -2 -41 28 -66 94 -77 l59 -9 -6 135 c-3 74 -8 137 -11 139 -8 8 -92 -20 -173 -58 -45 -21 -85 -39 -88 -39 -3 0 -5 23 -5 51 0 52 13 89 31 89 5 0 27 11 47 25 49 33 62 32 63 -7 0 -29 1 -30 9 -11 11 26 87 43 101 22 10 -18 15 -3 24 72 6 53 28 89 55 89 6 0 10 4 10 9 0 5 15 16 33 25 l32 17 -65 -6 c-93 -10 -256 -41 -390 -76 -333 -87 -360 -102 -376 -210 -9 -63 -51 -134 -97 -166 -37 -26 -48 -28 -176 -33 -75 -3 -143 -10 -152 -15 -35 -21 -69 -75 -92 -146 -25 -77 -50 -106 -67 -79 -5 8 -10 87 -10 176 0 188 -5 179 110 218 41 15 81 34 88 43 17 24 16 93 -2 93 -16 0 -230 -94 -262 -115 -29 -19 -32 -13 -26 43 9 87 30 110 210 232 89 60 93 62 115 46 12 -9 36 -27 53 -39 l31 -23 -18 -35 c-15 -28 -18 -58 -19 -181 0 -97 4 -149 11 -154 19 -12 119 -5 148 10 39 20 54 47 85 148 21 68 33 92 61 117 36 31 146 71 255 91 30 6 78 17 105 24 28 8 100 24 160 36 61 12 117 28 125 35 20 17 59 25 66 14 3 -5 10 -9 15 -9 6 0 7 5 3 11 -4 6 1 9 12 8 11 -2 25 1 33 6 10 5 16 5 19 -3 4 -12 36 16 45 39 3 9 6 5 6 -8 1 -16 6 -20 20 -16 11 3 18 10 17 16 -2 7 -1 9 1 5 9 -15 35 -8 54 15 10 12 18 17 19 10 0 -6 -6 -13 -12 -16 -7 -2 -10 -8 -5 -12 4 -5 12 -4 19 3 7 7 17 8 29 1 14 -7 27 -5 49 6 16 9 30 11 30 6 0 -6 19 -8 43 -6 23 2 69 4 103 4 l60 1 23 55 c24 57 38 73 27 30z m-59 -71 c-3 -3 -12 -4 -19 -1 -8 3 -5 6 6 6 11 1 17 -2 13 -5z m3073 -48 c0 -3 -4 -8 -10 -11 -5 -3 -10 -1 -10 4 0 6 5 11 10 11 6 0 10 -2 10 -4z m-225 -87 c-5 -13 -3 -19 3 -15 5 3 13 -6 17 -22 4 -15 10 -21 12 -14 8 21 23 13 23 -12 0 -14 5 -37 10 -51 9 -24 8 -26 -12 -21 -13 3 -17 3 -10 0 6 -3 12 -11 12 -19 0 -7 15 -16 33 -20 19 -5 26 -9 16 -12 -9 -2 -39 5 -67 16 l-52 21 -6 -27 c-4 -15 -3 -85 3 -157 5 -72 8 -134 5 -138 -6 -14 -220 -9 -255 6 -67 29 -109 96 -121 196 -8 66 -18 81 -73 109 -45 23 -328 102 -505 142 -59 13 -105 25 -103 27 11 12 331 -39 524 -82 173 -39 199 -62 227 -199 26 -122 70 -160 182 -155 l67 3 -3 160 c-2 149 -4 161 -25 183 l-22 24 25 17 c13 9 33 26 45 38 27 30 59 31 50 2z m-2375 -79 c0 -5 -4 -10 -10 -10 -5 0 -10 5 -10 10 0 6 5 10 10 10 6 0 10 -4 10 -10z m2504 -66 c9 -3 16 -13 16 -22 0 -12 -3 -13 -12 -4 -7 7 -20 12 -30 12 -10 0 -18 5 -18 10 0 11 20 13 44 4z m-1207 -176 c-3 -8 -6 -5 -6 6 -1 11 2 17 5 13 3 -3 4 -12 1 -19z m-2800 -40 c29 -17 56 -39 60 -47 4 -9 9 -1007 11 -2218 l2 -2203 -59 0 c-33 0 -62 4 -65 8 -2 4 -8 64 -11 132 -5 82 -12 133 -22 148 -8 13 -52 48 -99 78 -85 55 -87 59 -59 94 7 8 25 52 39 98 l26 83 0 1702 c0 1055 -4 1725 -10 1761 -9 58 -6 81 8 60 6 -8 162 -98 196 -113 13 -5 -2 346 -16 368 -6 9 -26 28 -44 40 -35 24 -44 41 -22 41 7 0 36 -14 65 -32z m3338 22 c3 -5 -4 -17 -16 -27 -13 -10 -35 -30 -51 -45 l-28 -26 0 -166 c0 -91 2 -166 4 -166 15 0 129 58 166 84 69 49 72 50 48 9 l-23 -38 -3 -1733 -2 -1733 30 -92 c17 -51 40 -102 52 -114 11 -12 17 -26 14 -31 -3 -5 -39 -31 -80 -56 -103 -64 -109 -76 -114 -221 -3 -73 -9 -123 -16 -127 -6 -4 -37 -8 -68 -8 l-58 0 0 2183 c0 1377 4 2195 10 2216 9 34 27 51 84 83 36 20 43 21 51 8z m-635 -136 c0 -8 -5 -12 -10 -9 -6 4 -8 11 -5 16 9 14 15 11 15 -7z m-490 -34 c0 -5 -4 -10 -10 -10 -5 0 -10 5 -10 10 0 6 5 10 10 10 6 0 10 -4 10 -10z m-140 -60 c0 -5 -2 -10 -4 -10 -3 0 -8 5 -11 10 -3 6 -1 10 4 10 6 0 11 -4 11 -10z m-2634 -117 c-3 -60 -9 -244 -13 -410 -6 -286 -7 -303 -24 -303 -26 0 -99 -68 -118 -110 -13 -31 -15 -176 -18 -1255 -1 -671 -2 -1255 -3 -1298 l0 -78 -37 3 -38 3 0 1190 c0 840 3 1205 11 1243 6 28 7 52 3 52 -5 0 -4 9 3 20 10 16 10 24 0 40 -10 17 -10 20 3 20 25 0 17 15 -17 30 l-33 13 32 4 c26 3 43 19 92 80 l61 77 0 350 c0 340 1 352 21 386 25 40 36 50 63 50 18 0 18 -6 12 -107z m2404 92 c0 -8 -4 -15 -10 -15 -5 0 -10 7 -10 15 0 8 5 15 10 15 6 0 10 -7 10 -15z m2031 -11 l24 -26 -3 -357 -4 -357 37 -50 c67 -89 106 -124 140 -125 29 -1 28 -1 -10 -13 l-40 -12 -3 -58 c-2 -41 1 -62 10 -67 9 -6 10 -11 3 -18 -6 -6 -8 -38 -5 -78 8 -85 9 -250 13 -1425 3 -892 2 -948 -14 -948 -24 0 -25 40 -27 1428 -2 985 -5 1178 -16 1201 -25 48 -102 111 -136 111 l-31 0 3 393 c2 215 7 400 12 410 11 23 18 22 47 -9z m-4243 -46 c22 -29 45 -63 51 -76 9 -17 13 -444 13 -1762 l2 -1738 -29 -39 c-37 -48 -55 -62 -81 -63 l-20 0 0 1865 c1 1458 4 1865 13 1865 7 0 30 -24 51 -52z m4062 -1818 c0 -1675 -1 -1855 -15 -1858 -25 -6 -62 24 -90 72 l-26 44 1 1733 c0 1433 3 1737 14 1754 40 61 99 126 107 118 5 -5 9 -788 9 -1863z m-4440 1620 c18 -18 20 -33 20 -127 0 -60 -3 -173 -7 -253 -6 -134 -8 -146 -30 -168 -32 -32 -48 -24 -47 24 1 21 2 153 3 292 2 242 3 252 22 252 10 0 28 -9 39 -20z m4768 -84 c6 -45 5 -66 -2 -67 -7 0 -7 -2 1 -5 8 -4 12 -53 12 -162 1 -86 4 -172 7 -189 5 -26 3 -33 -10 -33 -22 0 -25 23 -31 235 -4 171 1 302 12 292 2 -2 7 -34 11 -71z m-1298 -54 c0 -5 -19 -36 -42 -69 -37 -52 -73 -96 -162 -197 -10 -11 -26 -32 -34 -46 -9 -14 -25 -31 -34 -38 -10 -7 -15 -18 -12 -24 4 -6 2 -8 -4 -4 -6 3 -23 -10 -39 -31 -15 -21 -31 -39 -35 -41 -5 -2 -8 -8 -8 -13 0 -6 -48 -69 -107 -142 -159 -196 -186 -228 -190 -223 -7 7 67 236 99 306 57 127 121 224 198 300 73 72 90 83 314 208 44 24 56 27 56 14z m0 -147 c0 -2 -9 -12 -20 -22 -10 -10 -38 -54 -60 -97 -23 -43 -59 -102 -81 -131 -21 -28 -39 -56 -39 -60 0 -5 -10 -19 -22 -32 -12 -13 -19 -26 -15 -29 3 -3 31 29 62 71 37 49 62 75 71 71 7 -3 26 6 41 20 23 21 29 23 31 10 2 -9 7 -16 12 -16 5 0 7 -7 4 -15 -4 -8 -10 -15 -15 -15 -4 0 -6 7 -2 16 4 11 2 15 -7 12 -25 -8 -22 -27 4 -34 14 -3 26 -10 26 -16 0 -5 -4 -7 -8 -4 -12 7 -52 -49 -52 -74 0 -11 -4 -20 -10 -20 -5 0 -34 -16 -64 -35 -30 -19 -59 -35 -64 -35 -29 0 -263 -212 -249 -226 2 -3 33 14 68 36 80 52 328 175 336 166 3 -3 0 -12 -6 -20 -7 -8 -11 -20 -10 -28 3 -18 -11 -48 -23 -48 -5 0 -8 8 -7 18 2 28 -1 42 -10 42 -7 0 -8 -33 -2 -72 1 -4 8 -5 17 -1 14 5 14 3 3 -16 -8 -11 -18 -21 -24 -22 -5 0 6 -6 25 -13 32 -11 37 -10 52 8 9 12 20 17 25 12 4 -5 2 -11 -4 -13 -7 -3 -13 -11 -13 -18 0 -17 -41 -27 -57 -13 -10 8 -17 8 -25 0 -9 -9 -9 -12 0 -12 6 0 9 -7 5 -16 -3 -9 -13 -14 -24 -11 -11 3 -22 0 -25 -5 -5 -7 8 -9 40 -6 25 3 46 2 46 -3 0 -5 8 -5 17 -2 10 4 -1 -10 -24 -31 -25 -22 -40 -43 -36 -52 3 -8 -1 -14 -10 -14 -8 0 -17 5 -19 11 -2 7 -16 1 -32 -15 -16 -14 -34 -26 -40 -26 -6 0 -5 -4 3 -9 17 -11 -8 -23 -159 -79 -104 -39 -272 -119 -320 -152 -14 -10 -36 -21 -48 -25 -21 -6 -14 13 62 162 48 92 78 159 67 148 -41 -41 -293 -405 -366 -526 -212 -355 -320 -616 -355 -858 -21 -137 -8 -473 24 -655 15 -82 25 -150 23 -152 -9 -9 -78 219 -99 326 -18 92 -22 146 -21 275 1 181 19 285 79 470 30 92 157 367 184 400 4 6 23 37 40 70 56 103 198 313 334 495 150 199 549 699 720 902 28 34 46 47 46 33z m35 -45 c3 -5 1 -10 -4 -10 -6 0 -11 5 -11 10 0 6 2 10 4 10 3 0 8 -4 11 -10z m-45 -34 c0 -14 -29 -56 -33 -48 -10 14 4 52 19 52 8 0 14 -2 14 -4z m-515 -108 c-100 -138 -197 -381 -220 -553 -7 -52 -32 -97 -101 -180 -36 -44 -209 -281 -241 -331 -11 -17 -12 -16 -12 11 -2 64 49 306 89 425 79 237 204 449 338 571 68 62 186 143 190 130 2 -5 -17 -38 -43 -73z m522 19 c-1 -30 -2 -32 -17 -18 -14 14 -14 18 0 34 19 22 18 23 17 -16z m-61 -14 c-5 -12 -10 -13 -18 -5 -8 8 -8 15 3 28 15 18 25 4 15 -23z m91 -25 c-3 -8 -6 -5 -6 6 -1 11 2 17 5 13 3 -3 4 -12 1 -19z m-61 -125 c-10 -10 -19 5 -10 18 6 11 8 11 12 0 2 -7 1 -15 -2 -18z m-786 11 c0 -4 -22 -36 -49 -73 -192 -262 -297 -563 -318 -911 l-6 -114 -83 -165 c-46 -90 -85 -166 -88 -168 -5 -6 -40 70 -72 160 -102 279 -58 650 106 900 59 91 110 138 252 230 191 125 258 162 258 141z m-2463 -96 c17 -31 18 -110 18 -1405 0 -754 -3 -1375 -8 -1379 -11 -11 -51 31 -75 80 l-22 44 2 1319 c3 1243 4 1320 21 1346 23 36 43 34 64 -5z m4437 7 l28 -26 -3 -1052 c-1 -579 -1 -1175 0 -1326 2 -263 1 -276 -18 -302 -12 -16 -21 -32 -21 -36 0 -4 -9 -19 -19 -32 l-19 -24 -11 21 c-13 25 -11 2757 3 2785 11 24 28 21 60 -8z m-1164 -35 c0 -5 -2 -10 -4 -10 -3 0 -8 5 -11 10 -3 6 -1 10 4 10 6 0 11 -4 11 -10z m-10 -75 c0 -8 -2 -15 -4 -15 -2 0 -6 7 -10 15 -3 8 -1 15 4 15 6 0 10 -7 10 -15z m-44 -92 c-10 -10 -19 5 -10 18 6 11 8 11 12 0 2 -7 1 -15 -2 -18z m-1341 -101 c-119 -185 -172 -394 -162 -637 7 -171 45 -320 118 -467 l39 -77 -19 -58 c-10 -32 -24 -88 -31 -125 -8 -38 -18 -68 -22 -68 -20 0 -158 140 -223 225 -76 101 -96 141 -126 258 -18 70 -20 102 -16 217 9 250 81 421 258 614 63 69 198 185 216 186 7 0 -7 -31 -32 -68z m1385 43 c-7 -8 -20 -15 -28 -15 -13 0 -12 3 4 15 25 19 40 19 24 0z m34 -29 c-6 -15 -34 -31 -34 -19 0 5 30 32 37 33 1 0 0 -6 -3 -14z m-167 -132 c-3 -3 -12 -4 -19 -1 -8 3 -5 6 6 6 11 1 17 -2 13 -5z m93 -89 c0 -8 -2 -15 -4 -15 -2 0 -6 7 -10 15 -3 8 -1 15 4 15 6 0 10 -7 10 -15z m-62 -20 c-3 -14 0 -29 7 -35 9 -8 13 -48 5 -57 -2 -2 -3 -7 -4 -12 0 -5 -4 -13 -8 -17 -13 -12 -9 -24 8 -24 8 0 12 5 9 10 -3 6 -1 10 4 10 6 0 11 -9 11 -20 0 -29 -43 -27 -59 3 -9 17 -10 17 -5 2 3 -11 7 -33 8 -48 2 -30 28 -55 35 -35 2 7 -1 14 -7 16 -14 4 -16 22 -2 22 5 0 14 -9 20 -19 8 -16 5 -25 -15 -47 -13 -14 -22 -30 -19 -35 3 -5 0 -9 -6 -9 -6 0 -10 -8 -8 -17 2 -11 -5 -19 -17 -21 -16 -2 -17 -1 -5 7 8 6 11 11 6 11 -6 0 -5 5 2 12 14 14 16 32 3 23 -5 -3 -12 -1 -16 5 -3 5 -2 10 4 10 5 0 9 14 9 30 -1 17 -4 30 -8 30 -11 0 -31 -26 -24 -33 10 -9 12 -61 4 -82 -6 -14 -30 -27 -86 -43 -395 -117 -593 -192 -682 -260 -18 -14 -35 -23 -37 -20 -7 7 84 181 141 271 62 95 131 150 299 236 126 64 357 147 364 130 1 -6 9 -2 17 8 13 17 13 17 14 1 0 -10 7 -18 15 -18 18 0 20 26 3 33 -8 3 -5 6 6 6 14 1 17 -4 14 -24z m112 -5 c0 -5 -5 -10 -11 -10 -5 0 -7 5 -4 10 3 6 8 10 11 10 2 0 4 -4 4 -10z m20 -80 c0 -5 -2 -10 -4 -10 -3 0 -8 5 -11 10 -3 6 -1 10 4 10 6 0 11 -4 11 -10z m-35 -30 c-27 -12 -35 -12 -35 0 0 6 12 10 28 9 24 0 25 -1 7 -9z m10 -60 c3 -5 1 -10 -4 -10 -6 0 -11 5 -11 10 0 6 2 10 4 10 3 0 8 -4 11 -10z m-1964 -440 c11 -42 51 -181 86 -295 37 -122 156 -317 250 -411 31 -30 53 -57 50 -60 -11 -12 -174 39 -232 71 -76 43 -124 84 -107 91 20 9 14 27 -8 21 -14 -3 -32 8 -64 43 -91 98 -123 208 -113 390 6 93 37 241 67 320 35 92 32 94 46 -20 8 -58 19 -125 25 -150z m1826 176 c-18 -14 -17 -14 2 -21 12 -3 21 -11 21 -16 0 -6 -10 -3 -22 5 -34 24 -59 20 -28 -4 24 -18 24 -20 8 -36 -16 -16 -17 -16 -11 4 4 16 1 22 -11 22 -12 0 -15 -6 -10 -25 5 -19 2 -25 -10 -25 -9 0 -16 8 -17 18 -1 9 -5 1 -9 -18 -5 -20 -5 -39 1 -44 5 -6 9 -2 9 13 0 13 4 20 11 16 6 -4 8 -14 5 -22 -4 -10 -2 -13 8 -10 8 3 20 -2 28 -11 7 -8 8 -13 3 -10 -6 4 -17 -7 -24 -24 -10 -21 -16 -27 -24 -19 -17 17 -31 13 -17 -4 11 -13 8 -15 -16 -15 -16 0 -24 -4 -19 -8 22 -16 34 -49 22 -61 -6 -6 -7 -14 -3 -18 4 -4 11 -1 16 7 5 8 12 11 16 7 4 -3 -4 -15 -17 -26 -19 -16 -25 -17 -27 -5 -5 19 -32 18 -32 -1 0 -8 5 -15 12 -15 6 0 9 -3 5 -6 -3 -4 -20 -1 -38 5 -28 10 -34 8 -53 -13 -15 -17 -44 -29 -96 -41 -305 -69 -492 -160 -654 -317 -33 -32 -61 -56 -63 -54 -6 5 27 126 57 211 46 129 94 218 138 256 74 63 201 131 334 180 148 56 200 70 378 109 149 33 150 33 127 16z m10 -142 c-3 -3 -12 -4 -19 -1 -8 3 -5 6 6 6 11 1 17 -2 13 -5z m-27 -54 c0 -5 -4 -10 -10 -10 -5 0 -10 5 -10 10 0 6 5 10 10 10 6 0 10 -4 10 -10z m35 -30 c-3 -5 -11 -10 -16 -10 -6 0 -7 5 -4 10 3 6 11 10 16 10 6 0 7 -4 4 -10z m-39 -35 c0 -14 -6 -27 -12 -29 -6 -2 -9 7 -6 25 5 35 20 39 18 4z m-31 -5 c-3 -5 -12 -10 -20 -10 -8 0 -17 5 -20 10 -4 6 5 10 20 10 15 0 24 -4 20 -10z m80 -10 c10 -11 13 -20 7 -20 -6 0 -16 9 -22 20 -6 11 -9 20 -7 20 2 0 12 -9 22 -20z m-205 -90 c-20 -13 -43 -13 -35 0 3 6 16 10 28 10 18 0 19 -2 7 -10z m76 -100 c8 0 14 -7 14 -15 0 -21 -17 -19 -30 5 -13 23 -40 27 -40 5 0 -8 5 -15 12 -15 6 0 9 -3 6 -6 -4 -3 2 -14 13 -25 29 -29 24 -46 -12 -41 -20 3 -34 0 -40 -9 -6 -11 -12 -9 -27 9 -25 29 -39 28 -20 -1 10 -13 13 -35 10 -56 -3 -24 -1 -32 7 -27 6 4 11 16 11 27 0 10 7 19 15 19 8 0 15 5 15 11 0 5 4 8 10 4 5 -3 1 -14 -10 -25 -11 -11 -20 -28 -20 -39 0 -14 -10 -21 -35 -25 -20 -4 -33 -11 -30 -16 3 -6 1 -18 -4 -27 -10 -17 -10 -17 -11 0 0 21 -7 22 -26 3 -19 -19 -18 -27 3 -19 12 5 15 2 10 -10 -3 -9 -2 -17 3 -17 6 0 10 5 10 11 0 5 4 8 10 4 5 -3 2 -13 -8 -24 -16 -17 -18 -17 -34 3 l-17 21 5 -21 c4 -15 -1 -26 -16 -37 -14 -10 -19 -20 -14 -29 6 -10 4 -10 -9 1 -10 8 -21 11 -24 7 -4 -4 -1 -11 7 -16 11 -7 5 -9 -20 -8 -19 1 -42 -1 -50 -4 -8 -4 -51 -12 -95 -18 -84 -12 -190 -38 -263 -64 -51 -18 -226 -108 -230 -118 -9 -20 -22 -5 -22 25 0 67 103 234 187 303 153 125 273 177 538 234 105 23 116 24 113 9 -2 -6 3 -14 11 -17 10 -3 13 1 9 16 -5 17 0 22 31 29 27 7 37 6 39 -4 2 -7 10 -13 18 -13z m154 -39 c0 -5 -9 -7 -20 -4 -11 3 -20 7 -20 9 0 2 9 4 20 4 11 0 20 -4 20 -9z m-110 -61 c0 -5 -2 -10 -4 -10 -3 0 -8 5 -11 10 -3 6 -1 10 4 10 6 0 11 -4 11 -10z m-33 -42 c-3 -8 -6 -5 -6 6 -1 11 2 17 5 13 3 -3 4 -12 1 -19z m-1462 -18 c3 -5 1 -10 -4 -10 -6 0 -11 5 -11 10 0 6 2 10 4 10 3 0 8 -4 11 -10z m1398 -25 c-3 -9 -8 -14 -10 -11 -3 3 -2 9 2 15 9 16 15 13 8 -4z m-1342 -52 c24 -32 46 -60 49 -63 58 -62 99 -110 81 -95 -81 65 -204 215 -177 215 2 0 23 -26 47 -57z m1282 -3 c3 -11 1 -18 -4 -14 -5 3 -9 12 -9 20 0 20 7 17 13 -6z m39 -2 c-7 -7 -12 -8 -12 -2 0 6 3 14 7 17 3 4 9 5 12 2 2 -3 -1 -11 -7 -17z m-52 -23 c7 -9 8 -15 2 -15 -5 0 -12 7 -16 15 -3 8 -4 15 -2 15 2 0 9 -7 16 -15z m20 -35 c0 -5 -2 -10 -4 -10 -3 0 -8 5 -11 10 -3 6 -1 10 4 10 6 0 11 -4 11 -10z m-30 -4 c0 -3 -4 -8 -10 -11 -5 -3 -10 -1 -10 4 0 6 5 11 10 11 6 0 10 -2 10 -4z m-1486 -160 c63 -42 151 -77 266 -107 47 -12 89 -25 94 -30 15 -13 -20 -55 -61 -73 -21 -9 -46 -21 -55 -26 -10 -6 -25 -10 -35 -10 -12 0 -14 -3 -6 -11 8 -8 17 -8 33 1 16 9 25 9 33 1 10 -10 -1 -16 -25 -12 -5 0 -8 -3 -8 -8 0 -6 16 -7 35 -4 36 6 49 -9 19 -21 -38 -15 -77 0 -169 64 -99 69 -246 262 -275 362 -7 22 2 17 46 -32 30 -32 79 -74 108 -94z m1431 134 c3 -5 1 -10 -4 -10 -6 0 -11 5 -11 10 0 6 2 10 4 10 3 0 8 -4 11 -10z m-3 -177 c6 -7 7 -13 3 -13 -4 0 -13 8 -20 17 -14 18 -55 28 -55 13 0 -6 6 -10 13 -11 6 0 3 -4 -8 -8 -21 -8 -27 -40 -10 -54 6 -5 -3 -6 -19 -2 -26 5 -28 4 -17 -9 18 -21 -6 -22 -33 -1 -27 20 -36 19 -36 -6 0 -16 4 -19 23 -14 18 5 17 3 -5 -10 -29 -16 -37 -40 -15 -48 6 -2 9 -7 5 -11 -3 -4 -18 10 -32 31 -25 36 -29 34 -27 -12 0 -11 -2 -14 -5 -7 -8 18 -35 15 -27 -4 4 -12 0 -14 -22 -8 -22 6 -27 4 -23 -8 4 -10 -3 -14 -29 -14 -19 0 -38 -6 -42 -13 -4 -6 -12 -11 -17 -10 -5 1 -26 -5 -46 -14 -21 -10 -48 -17 -62 -17 -13 0 -26 -5 -28 -11 -2 -5 -11 -7 -21 -3 -10 4 -16 13 -13 21 3 8 1 11 -4 8 -6 -3 -10 -12 -10 -19 0 -8 -15 -21 -32 -29 -36 -18 -47 -10 -48 33 -1 24 -2 24 -10 4 -8 -21 -30 -42 -30 -29 0 6 20 40 58 97 30 46 113 109 172 131 91 33 204 53 370 66 71 5 86 4 89 -9 2 -8 8 -21 13 -27z m-89 -123 c3 -11 1 -18 -4 -14 -5 3 -9 12 -9 20 0 20 7 17 13 -6z m-45 -35 c-3 -3 -9 2 -12 12 -6 14 -5 15 5 6 7 -7 10 -15 7 -18z m-948 -15 c-8 -5 -19 -10 -25 -10 -5 0 -3 5 5 10 8 5 20 10 25 10 6 0 3 -5 -5 -10z m857 -22 c-3 -8 -6 -5 -6 6 -1 11 2 17 5 13 3 -3 4 -12 1 -19z m-887 -2 c0 -3 -4 -8 -10 -11 -5 -3 -10 -1 -10 4 0 6 5 11 10 11 6 0 10 -2 10 -4z m720 -41 c0 -8 -2 -15 -4 -15 -2 0 -6 7 -10 15 -3 8 -1 15 4 15 6 0 10 -7 10 -15z m75 5 c3 -5 1 -10 -4 -10 -6 0 -11 5 -11 10 0 6 2 10 4 10 3 0 8 -4 11 -10z m-2650 -595 c31 -47 73 -96 93 -110 32 -22 47 -25 129 -25 l92 0 63 -51 c103 -84 98 -73 98 -224 0 -236 -6 -231 257 -250 429 -31 522 -36 847 -45 439 -12 1073 -12 1536 0 405 11 938 44 991 61 66 23 67 24 70 206 l4 165 75 68 74 68 104 4 104 3 35 40 c19 22 53 68 75 103 l41 62 49 0 c30 0 47 -4 43 -10 -3 -5 -16 -10 -29 -10 -32 0 -45 -13 -121 -124 -57 -84 -66 -103 -56 -118 6 -10 11 -55 11 -102 0 -46 3 -97 6 -114 6 -31 7 -31 73 -34 44 -2 66 -7 67 -15 3 -26 5 -28 14 -13 13 20 8 -28 -6 -52 -8 -15 -117 -42 -264 -64 -49 -7 -47 5 3 22 l32 11 2 149 c1 82 -1 161 -4 177 -5 25 -9 27 -52 27 -73 0 -113 -16 -161 -65 l-44 -45 -6 -147 c-11 -241 -6 -237 -342 -263 -519 -40 -708 -45 -1618 -44 -912 1 -982 3 -1580 49 -208 16 -220 20 -263 77 -16 22 -21 52 -28 168 -6 85 -15 152 -23 168 -33 63 -104 102 -185 102 -42 0 -49 -3 -55 -22 -10 -37 -7 -278 4 -298 5 -10 26 -27 46 -39 20 -12 34 -24 32 -27 -3 -3 -83 8 -178 23 -159 26 -173 30 -181 51 -5 13 -9 34 -9 48 0 23 2 24 74 24 41 0 78 4 81 10 3 5 9 70 12 144 6 135 6 135 -21 177 -39 59 -49 41 -56 -99 -5 -116 -5 -117 -30 -120 -46 -4 -49 5 -36 106 6 51 15 91 21 90 19 -6 27 69 11 104 -8 18 -14 42 -13 53 1 15 -5 21 -23 23 -14 2 -32 5 -40 9 -22 8 15 21 62 22 36 1 39 -2 93 -84z m4731 -260 c20 -48 18 -55 -16 -55 -32 0 -34 6 -24 59 8 40 22 39 40 -4z m-2419 -104 c7 -9 13 -20 13 -25 0 -12 -534 0 -556 12 -11 6 61 13 207 21 123 7 238 14 254 15 41 3 68 -4 82 -23z m446 2 c137 -10 83 -22 -132 -29 -201 -7 -210 -6 -211 35 0 14 78 13 343 -6z m-1683 -109 c330 -39 2271 -39 2554 1 60 8 111 13 114 10 2 -2 2 -10 -1 -18 -7 -19 -102 -32 -383 -54 -343 -26 -1754 -26 -2096 0 -130 10 -252 22 -270 28 -18 5 -45 9 -60 9 -30 0 -43 13 -34 37 5 11 13 13 34 8 15 -4 79 -13 142 -21z m-1090 -208 c80 -13 179 -27 220 -31 86 -7 86 -7 124 -57 23 -31 34 -37 74 -41 54 -5 357 -32 542 -48 559 -48 1280 -68 1864 -50 557 16 1219 59 1421 91 33 6 64 10 68 10 4 0 22 15 40 34 32 34 33 35 251 71 143 24 222 33 228 27 15 -15 2 -29 -29 -35 -16 -3 -48 -11 -73 -17 -25 -6 -70 -15 -100 -20 l-55 -8 74 0 c49 1 76 -3 81 -12 10 -17 31 -4 23 15 -3 10 1 15 12 15 9 0 13 -4 10 -10 -3 -5 3 -10 14 -10 11 0 23 -4 26 -10 3 -5 -2 -10 -12 -10 -11 0 -23 -4 -28 -9 -13 -11 -300 -72 -460 -97 -138 -22 -310 -46 -410 -59 -66 -8 -140 -17 -165 -20 -25 -3 -142 -13 -260 -22 -279 -21 -1732 -31 -2030 -13 -431 25 -707 53 -945 95 -44 8 -167 28 -273 45 -194 31 -429 84 -446 101 -6 5 0 20 17 37 15 15 27 36 27 45 0 21 -3 22 170 -7z m-124 -206 c74 -17 267 -54 402 -77 19 -3 36 -12 39 -19 7 -19 -38 -134 -53 -134 -14 0 -209 34 -289 50 -27 6 -92 22 -142 37 l-93 26 0 68 c0 82 -4 80 136 49z m5054 2 c0 -15 -35 -37 -55 -34 -15 2 -17 1 -6 -6 11 -8 11 -11 0 -18 -7 -4 -14 -3 -17 4 -2 7 -10 12 -19 12 -10 0 -12 -6 -8 -20 7 -22 -5 -26 -23 -8 -9 9 -15 10 -20 2 -12 -18 -45 -26 -54 -12 -6 9 -7 6 -4 -7 5 -18 2 -21 -29 -20 -26 1 -34 -2 -31 -12 4 -9 -1 -12 -17 -8 -16 4 -25 0 -32 -17 -10 -24 -53 -32 -67 -13 -4 6 -8 -2 -8 -17 0 -16 -5 -28 -11 -28 -6 0 -9 6 -7 12 3 7 -5 18 -16 24 -16 8 -25 7 -38 -3 -14 -13 -17 -12 -23 8 -9 27 -25 7 -18 -22 7 -24 32 -29 61 -11 19 13 22 12 22 -2 0 -9 -3 -15 -7 -14 -5 1 -26 -7 -49 -18 l-41 -21 -22 75 c-12 41 -21 76 -19 77 5 4 210 44 263 51 28 3 91 17 140 30 92 23 155 30 155 16z m-4220 -137 c102 -8 223 -19 270 -24 47 -6 171 -15 275 -21 105 -5 208 -12 230 -15 107 -14 924 -23 1290 -15 466 11 982 39 1115 60 30 5 120 14 199 21 125 10 145 9 158 -4 15 -15 9 -42 -7 -32 -4 3 -7 -9 -6 -25 2 -28 0 -30 -31 -30 -36 0 -43 -13 -15 -29 15 -9 15 -10 -5 -11 -13 0 -22 5 -20 13 1 6 -6 11 -15 9 -10 -2 -18 2 -18 8 0 5 -4 10 -10 10 -19 0 -10 -21 13 -30 20 -9 20 -10 -8 -8 -17 1 -35 -1 -40 -4 -6 -3 -32 -9 -60 -13 -49 -6 -49 -6 -25 10 l25 16 -33 -5 c-19 -3 -49 -13 -68 -22 -19 -9 -44 -14 -58 -10 -13 3 -26 2 -28 -4 -2 -5 -48 -14 -103 -20 -55 -5 -136 -15 -180 -20 -250 -32 -689 -50 -1180 -50 -275 0 -570 5 -655 10 -793 48 -1091 74 -1254 110 -58 13 -69 40 -42 105 18 42 14 42 286 20z m-1004 -46 c32 -11 138 -38 234 -60 283 -64 263 -56 255 -98 -4 -20 -10 -79 -14 -131 l-7 -95 -78 -119 c-115 -175 -126 -202 -126 -316 1 -118 15 -404 31 -613 12 -153 12 -158 -8 -185 -24 -33 -61 -47 -96 -38 -38 9 -125 99 -181 186 -27 41 -58 87 -68 103 -23 33 -24 33 120 5 152 -30 148 -33 133 139 -6 70 -13 180 -17 243 -13 266 -36 299 -234 334 -141 26 -170 36 -181 65 -14 35 25 109 102 195 54 61 60 73 55 100 -21 120 -26 159 -26 217 0 63 10 89 35 89 7 0 38 -9 71 -21z m5362 -11 c2 -13 -3 -18 -18 -18 -19 0 -20 -2 -10 -15 7 -8 11 -15 9 -16 -31 -6 -39 -6 -39 2 0 5 -5 9 -11 9 -6 0 -9 -6 -6 -13 3 -8 -1 -14 -9 -14 -7 0 -11 4 -8 9 3 4 1 8 -5 8 -5 0 -14 -7 -19 -16 -6 -11 -11 -13 -16 -5 -4 6 -12 11 -17 11 -6 0 -8 -3 -6 -7 3 -5 -2 -14 -10 -22 -13 -12 -14 -11 -8 10 l7 24 -17 -23 c-9 -12 -20 -20 -25 -17 -4 3 -6 -5 -3 -17 4 -18 2 -20 -6 -8 -5 8 -13 11 -17 7 -4 -3 -1 -15 7 -24 11 -14 8 -14 -10 2 -21 17 -23 18 -18 3 3 -10 2 -20 -3 -23 -6 -4 -10 1 -10 9 0 22 -20 20 -21 -1 -1 -10 -3 -25 -4 -33 -1 -8 -3 -23 -4 -34 -1 -15 -4 -16 -16 -6 -11 9 -15 9 -15 1 0 -6 7 -14 15 -17 8 -4 15 -17 15 -29 0 -21 4 -23 38 -20 20 3 29 2 20 -1 -24 -7 -23 -24 2 -24 12 0 20 7 21 18 1 16 2 16 6 -1 3 -12 11 -16 26 -12 48 10 90 9 94 -2 2 -6 -6 -13 -19 -15 -18 -2 -22 -8 -20 -27 3 -17 0 -21 -10 -16 -7 4 3 -7 22 -23 33 -29 59 -34 43 -9 -4 7 -8 15 -9 20 -1 4 -2 10 -3 15 -1 4 -5 0 -11 -8 -11 -18 -23 -8 -14 14 9 24 21 20 36 -14 8 -19 20 -30 33 -30 15 0 10 -6 -18 -23 -21 -13 -35 -26 -31 -30 4 -4 12 0 18 8 9 12 15 11 35 -6 l25 -20 -30 7 c-26 7 -28 6 -15 -9 7 -9 17 -14 22 -11 5 3 9 -2 9 -10 0 -9 5 -16 10 -16 6 0 10 -5 10 -11 0 -8 -4 -8 -14 0 -12 10 -15 7 -14 -20 l1 -33 43 50 c24 27 44 56 44 64 0 10 3 11 8 4 4 -6 14 -14 22 -17 11 -4 10 -6 -5 -7 -11 0 -29 -13 -39 -27 -16 -22 -17 -25 -3 -20 11 4 14 2 10 -9 -3 -7 -11 -14 -18 -14 -8 0 -16 -4 -19 -9 -8 -13 37 0 46 13 5 6 8 2 8 -11 0 -19 -9 -23 -72 -34 -40 -7 -76 -12 -80 -11 -5 1 -8 -5 -8 -14 0 -11 6 -14 20 -9 11 4 20 2 20 -4 0 -6 -8 -11 -18 -11 -32 0 -122 -51 -146 -84 -34 -44 -52 -125 -55 -244 -1 -57 -6 -126 -10 -153 -5 -28 -9 -89 -10 -134 -3 -130 20 -141 192 -95 63 17 68 18 65 2 -2 -10 -21 -23 -46 -30 -23 -8 -42 -19 -42 -24 0 -7 -4 -7 -12 0 -7 5 -33 7 -58 3 -36 -5 -45 -10 -50 -31 -6 -25 -6 -25 -12 -2 -3 12 -12 22 -18 22 -7 0 -10 -7 -6 -15 3 -9 -3 -24 -13 -34 -14 -14 -16 -22 -8 -30 8 -8 5 -11 -11 -11 -12 0 -21 -6 -19 -12 1 -7 -4 -12 -10 -11 -18 4 -16 -22 3 -41 8 -9 12 -21 8 -27 -4 -8 -9 -7 -15 2 -6 10 -9 8 -9 -8 0 -27 -12 -30 -30 -8 -9 11 -11 37 -7 93 4 42 11 133 16 202 6 69 15 223 21 342 12 262 15 251 -109 458 l-87 145 -13 119 c-6 66 -8 122 -4 126 8 7 30 12 208 50 114 24 272 67 294 80 24 15 65 8 69 -12z m-498 2 c0 -5 -4 -10 -10 -10 -5 0 -10 5 -10 10 0 6 5 10 10 10 6 0 10 -4 10 -10z m-4000 -165 c74 -8 149 -17 165 -20 74 -13 572 -55 780 -65 307 -15 1338 -16 1650 -1 297 14 766 54 955 81 74 11 158 20 187 20 44 0 53 -3 58 -21 5 -15 2 -25 -9 -31 -9 -5 -16 -17 -17 -26 0 -11 -4 -9 -10 8 -10 24 -11 24 -25 6 -12 -17 -14 -18 -14 -3 0 18 -16 23 -22 7 -4 -14 -76 -19 -82 -6 -3 7 -8 6 -14 -3 -6 -8 -15 -10 -23 -6 -9 6 -11 3 -6 -8 7 -18 -8 -24 -18 -7 -3 5 -11 10 -18 10 -8 0 -8 -3 1 -12 22 -22 13 -29 -10 -8 -15 14 -25 17 -32 10 -7 -7 -7 -13 -1 -18 6 -4 11 -15 12 -25 1 -14 -6 -10 -28 15 -15 18 -28 29 -29 25 0 -12 21 -49 37 -65 8 -8 11 -17 8 -20 -6 -7 -45 33 -45 47 0 6 -7 8 -15 5 -11 -5 -14 -2 -9 12 6 18 6 18 -11 2 -19 -18 -12 -40 10 -31 9 3 15 -1 15 -10 0 -8 7 -18 16 -21 9 -4 14 -9 11 -12 -7 -8 -50 16 -60 32 -11 19 -28 18 -21 -1 4 -8 2 -15 -4 -15 -6 0 -12 4 -14 9 -1 5 -11 4 -21 -3 -20 -15 -14 -43 11 -49 16 -4 16 -5 0 -6 -9 0 -24 7 -34 16 -16 16 -16 16 -10 -5 6 -18 3 -22 -14 -22 -17 0 -21 5 -17 20 3 11 1 23 -4 26 -5 3 -9 1 -9 -4 0 -16 -43 -22 -59 -9 -11 10 -13 9 -9 -3 2 -8 18 -17 34 -21 l29 -5 -32 -5 c-18 -3 -33 -2 -33 3 0 4 -7 8 -15 8 -8 0 -15 -4 -15 -9 0 -9 -95 -17 -350 -28 -252 -12 -2234 -7 -2375 5 -66 6 -203 18 -305 27 -222 20 -400 48 -411 67 -13 19 -11 48 6 105 17 57 28 64 90 57 22 -2 101 -11 175 -19z m4230 -95 c0 -5 -5 -10 -11 -10 -5 0 -7 5 -4 10 3 6 8 10 11 10 2 0 4 -4 4 -10z m242 -78 c6 -7 7 -16 3 -20 -4 -4 -10 -1 -12 6 -3 6 -12 12 -22 12 -23 0 -25 40 -3 56 15 11 17 9 20 -14 2 -15 9 -33 14 -40z m-932 23 c0 -8 -7 -15 -16 -15 -14 0 -14 3 -4 15 7 8 14 15 16 15 2 0 4 -7 4 -15z m40 5 c0 -5 -5 -10 -11 -10 -5 0 -7 5 -4 10 3 6 8 10 11 10 2 0 4 -4 4 -10z m-187 -20 c8 0 7 -3 -2 -9 -17 -11 -53 -2 -45 11 3 5 13 7 21 4 8 -3 20 -6 26 -6z m32 -20 c3 -5 1 -10 -4 -10 -6 0 -11 5 -11 10 0 6 2 10 4 10 3 0 8 -4 11 -10z m1075 -30 c0 -11 -4 -20 -9 -20 -5 0 -7 9 -4 20 3 11 7 20 9 20 2 0 4 -9 4 -20z m25 -86 c-21 -30 -25 -33 -20 -14 5 14 8 40 8 58 0 33 1 33 20 14 19 -20 19 -20 -8 -58z m-4629 26 c28 -5 118 -14 200 -20 82 -6 155 -13 162 -16 9 -2 3 -16 -19 -44 -44 -55 -47 -105 -38 -560 4 -206 5 -377 3 -380 -7 -7 -58 -1 -284 30 -182 26 -349 55 -357 63 -6 7 -25 542 -22 615 4 73 7 83 54 160 28 45 68 103 89 128 l39 46 61 -7 c34 -3 84 -10 112 -15z m3950 -17 c59 -75 132 -199 139 -233 6 -33 5 -34 -10 -15 -14 17 -17 18 -25 5 -13 -20 -12 -40 1 -40 5 0 7 5 4 10 -3 6 -1 10 4 10 6 0 11 -5 11 -11 0 -5 4 -7 10 -4 6 3 7 -1 4 -9 -3 -9 -12 -16 -20 -16 -14 0 -39 -38 -31 -47 3 -2 10 5 17 16 15 30 27 26 27 -8 0 -20 -4 -28 -14 -24 -7 3 -13 0 -13 -6 0 -6 6 -11 13 -11 9 0 11 -33 9 -142 -2 -78 -8 -150 -13 -160 -12 -22 -12 -48 0 -48 5 0 12 8 14 18 7 27 5 -139 -2 -173 -7 -36 5 -33 -331 -80 -140 -19 -267 -37 -283 -40 l-27 -5 6 403 c8 461 5 504 -37 551 -16 19 -29 36 -29 38 0 3 48 8 108 12 104 7 228 20 342 36 93 13 95 12 126 -27z m664 33 c0 -11 -19 -15 -25 -6 -3 5 1 10 9 10 9 0 16 -2 16 -4z m70 -80 c0 -3 -4 -8 -10 -11 -5 -3 -10 -1 -10 4 0 6 5 11 10 11 6 0 10 -2 10 -4z m-1366 -37 l26 -20 -1 -297 c0 -163 -4 -351 -8 -416 -7 -105 -11 -122 -30 -137 -12 -10 -27 -19 -34 -22 -6 -2 -8 -8 -4 -13 4 -5 12 -3 16 5 6 9 10 6 13 -12 4 -22 0 -26 -36 -35 -23 -6 -50 -13 -62 -17 -19 -6 -22 -2 -27 36 -3 24 -3 64 0 91 7 60 -12 130 -45 163 l-25 25 -260 0 -260 0 -166 -169 c-91 -93 -176 -174 -188 -180 -14 -7 -136 -11 -365 -11 -302 0 -347 2 -368 16 -14 10 -100 91 -191 180 l-165 164 -237 0 c-129 0 -247 -4 -261 -10 -47 -17 -60 -53 -66 -179 l-5 -116 -58 3 c-93 4 -94 5 -104 129 -4 60 -8 262 -8 450 l0 341 24 26 24 26 1422 0 1422 0 27 -21z m1286 -74 c-33 -19 -46 -19 -30 0 7 8 22 15 34 15 20 -1 20 -2 -4 -15z m-5434 -103 c101 -23 130 -41 143 -89 9 -35 32 -358 31 -445 0 -21 -4 -38 -10 -38 -5 0 -10 19 -10 43 0 71 -31 360 -40 378 -9 16 -181 56 -198 45 -4 -3 -5 -38 -1 -78 4 -40 10 -113 13 -163 6 -88 6 -89 -9 -50 -27 72 -73 383 -60 404 9 15 48 13 141 -7z m5530 -9 c-4 -10 -10 -58 -13 -108 -6 -103 -13 -125 -13 -41 0 32 -7 70 -15 87 -9 16 -13 34 -10 39 6 10 -38 5 -92 -12 -51 -15 -53 -31 -3 -23 49 8 49 -9 0 -20 -17 -4 -30 -11 -30 -16 0 -6 -4 -8 -9 -4 -5 3 -12 1 -16 -5 -11 -18 -27 -11 -20 10 10 30 -4 24 -16 -7 -12 -31 -38 -301 -39 -400 0 -49 -3 -63 -15 -63 -16 0 -15 41 6 253 5 54 9 119 9 146 0 68 17 107 55 131 36 22 137 48 194 49 27 1 32 -2 27 -16z m-5480 -371 c7 -81 10 -149 8 -151 -2 -3 -9 0 -15 6 -12 12 -40 291 -31 306 14 26 28 -31 38 -161z m5334 -27 c-6 -55 -15 -104 -21 -110 -8 -7 -10 4 -6 40 4 28 9 95 13 150 4 55 9 105 13 110 11 19 12 -90 1 -190z m-463 103 c-3 -8 -6 -5 -6 6 -1 11 2 17 5 13 3 -3 4 -12 1 -19z m-2844 -475 c97 -96 179 -169 200 -178 30 -12 101 -15 415 -15 209 0 395 3 413 6 27 6 68 42 201 178 l167 171 153 3 c84 2 173 1 197 -3 48 -7 48 -6 14 -100 -13 -38 -23 -50 -38 -50 -11 0 -26 -4 -33 -9 -7 -5 -15 -6 -19 -3 -3 4 -12 2 -20 -4 -10 -9 -13 -8 -13 2 -1 10 -5 8 -15 -5 -13 -17 -15 -17 -30 -2 -20 20 -26 20 -19 1 5 -11 -1 -15 -19 -15 -14 0 -47 -17 -75 -39 -27 -22 -53 -37 -57 -33 -4 4 -5 2 -3 -3 3 -10 -89 -119 -184 -216 l-48 -49 -565 0 -564 0 -142 155 c-162 177 -151 171 -330 181 l-117 6 -6 45 c-3 25 -6 68 -6 95 l0 49 189 -3 190 -3 164 -162z m-1486 12 c85 -16 223 -36 428 -61 72 -9 135 -21 141 -28 6 -6 22 -54 34 -106 13 -52 29 -110 37 -128 16 -39 9 -55 -20 -47 -18 5 -19 4 -7 -4 13 -10 13 -12 0 -21 -21 -14 -30 -12 -30 4 0 8 -7 16 -15 20 -8 3 -15 1 -15 -5 0 -25 -25 10 -67 97 -50 104 -52 105 -173 119 -53 7 -222 35 -327 56 -45 9 -53 14 -62 41 -11 30 -15 78 -7 78 2 0 39 -7 83 -15z m4305 -20 c-6 -42 -14 -51 -22 -25 l-8 25 -1 -24 c-1 -24 -1 -24 -22 -5 -21 19 -21 19 -18 -1 3 -16 -1 -20 -26 -19 -22 0 -34 -6 -44 -25 -13 -24 -14 -25 -22 -6 -4 11 -8 17 -8 13 -1 -5 0 -11 2 -14 4 -11 -29 -23 -83 -30 -47 -6 -53 -5 -47 9 5 13 1 17 -18 17 -27 0 -41 -15 -23 -26 19 -12 -50 -32 -115 -33 -55 -1 -59 -3 -78 -36 -21 -35 -33 -46 -23 -22 2 7 -7 23 -20 35 l-25 21 5 -29 c5 -23 1 -34 -21 -54 -16 -14 -23 -26 -17 -26 6 0 1 -15 -11 -34 -14 -21 -29 -34 -41 -33 -25 3 -32 -20 -9 -26 12 -3 8 -5 -9 -6 -33 -1 -34 6 -9 67 11 26 25 72 31 102 29 135 23 127 88 133 100 10 516 68 521 73 3 3 21 4 41 2 29 -2 34 -7 32 -23z m218 -45 c0 -5 -4 -10 -9 -10 -6 0 -13 5 -16 10 -3 6 1 10 9 10 9 0 16 -4 16 -10z m-3636 -50 c78 -6 164 -13 193 -16 l51 -5 135 -152 c74 -84 152 -168 172 -187 l36 -35 175 -3 c95 -2 174 -5 174 -7 0 -11 -34 -80 -45 -91 -16 -17 -32 -18 -37 -3 -2 6 -10 -5 -18 -25 -7 -20 -17 -36 -22 -36 -4 0 -5 7 -2 15 4 8 1 15 -6 15 -6 0 -8 5 -4 12 5 8 0 9 -14 6 -16 -4 -22 -2 -22 9 0 13 -3 13 -16 2 -9 -7 -14 -22 -11 -36 2 -13 1 -26 -3 -28 -12 -7 -40 5 -40 17 0 6 7 8 15 4 12 -4 15 3 14 32 -1 20 -3 30 -6 21 -3 -13 -14 -16 -41 -14 -51 3 -92 15 -92 27 0 5 -6 8 -12 5 -7 -2 -21 2 -31 11 -9 8 -20 12 -24 8 -4 -3 3 -13 15 -21 11 -9 27 -21 34 -28 19 -19 49 -30 86 -30 17 -1 32 -5 32 -9 0 -4 -12 -8 -27 -8 -26 0 -26 -1 -7 -15 18 -13 18 -14 -6 -8 -27 6 -94 53 -149 103 -50 45 -129 108 -149 119 -12 7 -31 9 -41 6 -19 -6 -36 -45 -20 -45 5 0 9 -4 9 -9 0 -12 -81 -7 -108 8 -12 6 -26 10 -31 7 -4 -3 -25 13 -45 34 -30 32 -45 40 -73 40 l-35 0 7 -46 c4 -30 2 -50 -6 -60 -13 -16 -11 -18 -81 101 -13 22 -35 69 -49 105 -39 96 -79 204 -79 213 0 9 37 9 204 -3z m2646 -9 c0 -27 -25 -44 -65 -45 -38 -1 -47 -15 -15 -23 24 -6 25 -16 4 -48 -9 -13 -13 -29 -9 -35 3 -5 2 -10 -4 -10 -19 0 -23 22 -6 40 9 10 15 25 12 32 -3 8 -6 6 -6 -6 -1 -14 -6 -17 -26 -12 -27 7 -28 11 5 -54 11 -21 6 -40 -11 -40 -5 0 -9 18 -9 41 0 22 -4 38 -9 35 -5 -3 -11 1 -14 8 -8 19 16 38 37 30 9 -3 16 -1 16 5 0 6 -6 11 -14 11 -8 0 -17 8 -19 18 -4 14 -6 14 -12 -5 -9 -28 -25 -30 -25 -4 0 24 -39 17 -41 -8 -1 -14 -2 -13 -6 2 -5 17 -33 24 -33 8 0 -5 -3 -18 -6 -28 -4 -13 -3 -15 4 -4 6 8 18 11 30 7 11 -4 23 -2 27 5 6 8 10 7 16 -2 14 -22 11 -32 -30 -95 -21 -32 -37 -62 -35 -65 7 -12 -24 -31 -31 -19 -3 5 -1 10 4 10 6 0 11 11 11 25 0 14 4 25 8 25 5 0 20 18 35 40 l26 40 -24 6 c-26 6 -45 -1 -45 -18 0 -6 6 -6 15 2 25 21 30 2 7 -23 -12 -13 -22 -27 -22 -33 0 -5 -12 -27 -25 -49 -24 -38 -25 -39 -25 -13 0 14 11 39 24 55 16 19 22 34 16 43 -6 9 -15 -1 -30 -36 -27 -60 -29 -62 -40 -44 -5 8 -12 12 -15 8 -3 -3 5 -18 19 -33 26 -28 34 -55 16 -55 -5 0 -10 7 -10 16 0 8 -7 22 -15 31 -14 14 -18 13 -35 -7 -11 -13 -20 -29 -20 -37 0 -30 -44 -10 -47 22 l-2 20 15 -20 15 -20 14 20 c8 11 19 25 24 31 5 6 5 17 1 24 -7 11 -13 9 -30 -11 -21 -24 -21 -24 -15 -1 4 13 2 22 -4 22 -6 0 -11 -3 -11 -8 0 -4 -9 -13 -21 -20 -18 -11 -24 -11 -40 4 -10 9 -19 12 -19 6 0 -6 11 -19 25 -30 24 -19 33 -34 18 -30 -9 1 -36 -8 -72 -25 -14 -7 -47 -32 -75 -57 -77 -69 -88 -76 -80 -57 3 9 14 19 25 22 10 4 19 11 19 16 0 11 57 69 68 69 11 0 45 60 39 67 -9 8 -27 -7 -27 -22 0 -8 -13 -22 -30 -32 -16 -9 -30 -21 -30 -26 0 -5 -19 -26 -42 -47 -32 -28 -46 -36 -55 -28 -10 8 -13 6 -13 -5 0 -10 -6 -14 -15 -11 -12 5 -15 -2 -15 -28 0 -26 -4 -35 -17 -35 -10 0 -24 7 -31 16 -11 14 -12 11 -6 -18 4 -24 3 -31 -5 -27 -6 4 -9 12 -6 17 4 5 1 9 -4 9 -6 0 -11 12 -11 28 0 20 -3 23 -9 13 -8 -12 -13 -11 -30 10 -11 13 -20 19 -21 12 0 -7 -7 -10 -15 -7 -8 4 -15 1 -15 -4 0 -16 18 -24 25 -12 4 6 11 8 16 4 17 -10 -3 -26 -26 -20 -14 4 -26 1 -29 -7 -5 -9 -7 -9 -12 1 -6 13 -64 17 -64 4 0 -5 10 -8 21 -8 12 1 23 -5 25 -12 1 -7 0 -8 -3 -2 -6 13 -33 13 -33 0 0 -5 -4 -10 -10 -10 -5 0 -10 7 -10 15 0 8 -7 15 -15 15 -19 0 -19 -11 3 -51 25 -48 40 -62 60 -54 13 5 14 3 6 -5 -22 -22 -54 0 -79 53 -34 77 -55 128 -55 138 0 5 73 9 163 9 108 0 170 4 186 13 24 12 54 45 231 255 l85 100 75 12 c41 6 140 15 220 19 80 4 151 9 158 10 6 0 12 -7 12 -18z m-3306 -134 c97 -15 141 -27 146 -37 18 -35 58 -145 54 -149 -2 -2 -14 3 -27 12 -24 16 -67 13 -67 -4 0 -5 -7 -9 -15 -9 -9 0 -15 7 -13 17 2 12 -9 20 -38 29 -37 11 -41 10 -40 -5 0 -9 3 -18 6 -21 12 -12 70 -101 70 -108 0 -4 26 -7 58 -6 52 1 55 0 29 -11 l-28 -11 23 -12 c20 -11 19 -12 -16 -6 -57 8 -74 22 -127 104 -56 87 -75 109 -107 121 -27 10 -72 12 -72 2 0 -14 56 -119 70 -130 8 -6 12 -14 8 -18 -10 -10 -55 27 -89 74 -16 23 -29 44 -29 47 0 3 -8 18 -19 32 -30 43 -71 125 -66 132 3 4 37 1 77 -7 40 -7 136 -24 212 -36z m4051 33 c4 -6 -7 -13 -24 -16 -20 -4 -39 -20 -57 -45 -32 -46 -44 -49 -45 -11 -1 18 -3 21 -6 9 -3 -13 -11 -17 -24 -14 -13 4 -19 0 -20 -11 -1 -14 -2 -14 -6 1 -3 11 -11 16 -19 13 -8 -3 -14 -1 -14 4 0 17 -29 -1 -36 -22 -4 -12 0 -24 11 -32 17 -12 13 -21 -72 -145 -2 -2 -6 -1 -9 2 -4 4 -1 14 7 24 12 15 12 16 -3 10 -13 -5 -16 -1 -13 21 1 15 3 29 4 31 0 2 10 -4 20 -13 12 -11 21 -14 26 -7 3 6 0 11 -8 11 -19 0 -32 50 -17 60 9 6 9 9 0 15 -6 4 -14 4 -17 1 -3 -3 -12 -1 -20 5 -10 9 -13 6 -13 -12 0 -13 -9 -37 -20 -54 -24 -36 -26 -22 -4 30 8 20 12 40 8 44 -4 3 -9 1 -11 -5 -9 -27 -126 -214 -133 -214 -5 0 9 33 30 74 21 40 44 98 50 129 8 35 19 58 29 61 9 3 88 17 176 31 88 15 162 29 164 31 9 8 60 4 66 -6z m-887 -51 c-2 -6 -8 -10 -13 -10 -5 0 -11 4 -13 10 -2 6 4 11 13 11 9 0 15 -5 13 -11z m-3568 -31 c16 -11 27 -25 24 -30 -6 -9 -84 32 -84 45 0 14 31 7 60 -15z m3540 -3 c0 -8 -4 -15 -10 -15 -5 0 -10 7 -10 15 0 8 5 15 10 15 6 0 10 -7 10 -15z m1048 -2 c-3 -18 -74 -84 -112 -105 -17 -9 -17 -7 3 20 18 26 99 101 109 102 2 0 2 -8 0 -17z m-207 -40 c-40 -79 -131 -189 -131 -158 0 5 109 158 130 183 20 23 20 12 1 -25z m-851 8 c0 -5 -7 -14 -15 -21 -19 -16 -20 -50 -1 -50 16 0 31 -18 22 -27 -3 -3 -12 2 -20 10 -9 8 -20 17 -24 19 -5 1 -7 20 -4 41 3 28 9 37 23 37 10 0 19 -4 19 -9z m815 -1 c-3 -5 -12 -7 -20 -3 -21 7 -19 13 6 13 11 0 18 -4 14 -10z m-785 -40 c0 -5 -5 -10 -11 -10 -5 0 -7 5 -4 10 3 6 8 10 11 10 2 0 4 -4 4 -10z m186 -26 c-4 -9 -9 -15 -11 -12 -3 3 -3 13 1 22 4 9 9 15 11 12 3 -3 3 -13 -1 -22z m-381 -4 c3 -5 2 -10 -4 -10 -5 0 -13 5 -16 10 -3 6 -2 10 4 10 5 0 13 -4 16 -10z m78 2 c3 -4 -6 -21 -19 -37 -26 -33 -33 -23 -9 12 12 16 12 22 2 26 -7 3 -5 6 5 6 9 1 19 -2 21 -7z m347 -2 c12 -8 11 -10 -7 -10 -13 0 -23 5 -23 10 0 13 11 13 30 0z m-450 -19 c0 -6 -4 -13 -10 -16 -5 -3 -10 1 -10 9 0 9 5 16 10 16 6 0 10 -4 10 -9z m-110 -25 c0 -14 -5 -28 -11 -31 -15 -10 -18 -4 -12 28 7 34 23 36 23 3z m-2710 -6 c0 -5 -2 -10 -4 -10 -3 0 -8 5 -11 10 -3 6 -1 10 4 10 6 0 11 -4 11 -10z m109 -35 c0 -5 -4 -3 -9 5 -5 8 -9 22 -9 30 0 16 17 -16 18 -35z m3135 38 c-5 -5 -12 -12 -15 -16 -3 -5 -9 -2 -12 7 -5 12 0 16 15 16 12 0 17 -3 12 -7z m259 -13 c-3 -10 -11 -24 -19 -31 -10 -8 -10 -3 2 20 18 35 24 40 17 11z m-481 -22 c-7 -7 -12 -8 -12 -2 0 14 12 26 19 19 2 -3 -1 -11 -7 -17z m-22 -20 c0 -19 -2 -20 -10 -8 -13 19 -13 30 0 30 6 0 10 -10 10 -22z m-2866 -14 c3 -8 2 -12 -4 -9 -6 3 -10 10 -10 16 0 14 7 11 14 -7z m1836 -13 c0 -16 2 -41 4 -57 2 -16 1 -23 -1 -16 -4 11 -8 11 -21 0 -13 -11 -15 -10 -9 5 4 11 2 17 -8 17 -8 0 -15 -6 -15 -12 0 -9 -4 -8 -10 2 -9 13 -11 13 -20 0 -8 -11 -9 -8 -5 15 5 28 5 28 -6 8 -13 -25 -32 -32 -23 -8 4 8 1 15 -5 15 -6 0 -12 -8 -12 -17 -1 -17 -2 -17 -6 0 -5 20 -19 22 -26 5 -3 -7 -6 -4 -7 7 -1 19 -2 18 -10 -2 -5 -13 -15 -23 -22 -23 -9 0 -9 3 2 10 8 5 11 13 6 17 -4 4 -13 0 -20 -10 -16 -21 -36 -22 -36 -2 0 21 -12 19 -38 -5 -12 -12 -22 -17 -22 -11 0 5 -7 12 -16 15 -8 3 -12 2 -9 -4 3 -6 2 -10 -4 -10 -5 0 -17 -3 -25 -6 -12 -5 -15 -2 -10 10 3 9 1 16 -5 16 -7 0 -13 -6 -15 -12 -12 -40 -17 -50 -22 -46 -4 5 10 85 21 116 3 9 52 12 200 12 l195 0 0 -29z m-1353 -39 c7 -7 13 -19 13 -25 0 -6 17 -29 38 -50 l37 -40 -33 7 c-37 7 -53 20 -93 79 -32 47 -34 58 -17 75 9 9 15 6 27 -11 8 -12 21 -28 28 -35z m173 21 c0 -13 -3 -13 -15 -3 -8 7 -15 16 -15 21 0 5 7 6 15 3 8 -4 15 -13 15 -21z m2168 -5 c-7 -12 -13 -31 -13 -40 0 -10 -4 -17 -10 -17 -5 0 -12 -10 -15 -22 -6 -24 -56 -67 -66 -56 -4 4 9 26 27 49 19 24 46 60 59 80 27 40 40 45 18 6z m627 13 c-3 -6 -11 -11 -17 -11 -6 0 -6 6 2 15 14 17 26 13 15 -4z m-2740 -1 c3 -5 1 -10 -4 -10 -6 0 -11 5 -11 10 0 6 2 10 4 10 3 0 8 -4 11 -10z m2136 -17 c-12 -20 -14 -14 -5 12 4 9 9 14 11 11 3 -2 0 -13 -6 -23z m556 21 c-3 -3 -12 -4 -19 -1 -8 3 -5 6 6 6 11 1 17 -2 13 -5z m-3442 -14 c-3 -5 -11 -10 -16 -10 -6 0 -7 5 -4 10 3 6 11 10 16 10 6 0 7 -4 4 -10z m95 -43 c0 -5 -6 -5 -13 2 -10 7 -17 7 -24 0 -8 -8 -13 -8 -17 0 -4 6 0 11 9 11 13 0 14 4 4 23 -11 22 -11 22 15 -2 14 -14 26 -29 26 -34z m3217 32 c-5 -17 -2 -20 14 -16 10 3 19 1 19 -4 0 -5 -8 -9 -17 -9 -10 0 -29 -3 -42 -7 l-24 -6 23 31 c28 37 34 40 27 11z m98 -9 c3 -6 -4 -10 -17 -10 -18 0 -20 2 -8 10 19 12 18 12 25 0z m-3385 -4 c0 -11 -19 -15 -25 -6 -3 5 1 10 9 10 9 0 16 -2 16 -4z m1590 -34 c0 -15 -2 -15 -10 -2 -13 20 -13 33 0 25 6 -3 10 -14 10 -23z m1380 -21 c-10 -20 -30 -29 -30 -14 0 10 33 44 37 39 3 -2 0 -14 -7 -25z m-2260 7 l25 2 -24 -10 c-19 -9 -28 -7 -40 6 -13 14 -13 15 -1 8 8 -5 26 -7 40 -6z m775 -6 c-3 -3 -11 0 -18 7 -9 10 -8 11 6 5 10 -3 15 -9 12 -12z m154 -4 c0 -13 -4 -32 -9 -43 -5 -14 -7 -8 -6 22 0 24 4 43 9 43 4 0 7 -10 6 -22z m88 0 c-3 -8 -6 -5 -6 6 -1 11 2 17 5 13 3 -3 4 -12 1 -19z m30 -10 c-3 -7 -5 -2 -5 12 0 14 2 19 5 13 2 -7 2 -19 0 -25z m-473 7 c3 -8 1 -15 -4 -15 -6 0 -10 7 -10 15 0 8 2 15 4 15 2 0 6 -7 10 -15z m303 -42 c-3 -10 -5 -2 -5 17 0 19 2 27 5 18 2 -10 2 -26 0 -35z m-827 24 c0 -8 -11 -12 -27 -11 -39 3 -41 4 -18 14 29 13 45 12 45 -3z m430 -17 c0 -22 -5 -30 -17 -30 -13 0 -14 3 -5 12 7 7 12 20 12 30 0 10 2 18 5 18 3 0 5 -13 5 -30z m30 9 c0 -5 -4 -9 -10 -9 -5 0 -10 7 -10 16 0 8 5 12 10 9 6 -3 10 -10 10 -16z m240 0 c0 -4 -7 -6 -15 -3 -8 4 -15 10 -15 15 0 4 7 6 15 3 8 -4 15 -10 15 -15z m-660 1 c0 -5 -7 -10 -16 -10 -8 0 -12 5 -9 10 3 6 10 10 16 10 5 0 9 -4 9 -10z m1287 4 c-3 -3 -12 -4 -19 -1 -8 3 -5 6 6 6 11 1 17 -2 13 -5z m83 2 c0 -11 -19 -15 -25 -6 -3 5 1 10 9 10 9 0 16 -2 16 -4z m-740 -31 c0 -8 -4 -17 -10 -20 -6 -4 -10 5 -10 20 0 15 4 24 10 20 6 -3 10 -12 10 -20z m-310 5 c0 -5 -5 -10 -11 -10 -5 0 -7 5 -4 10 3 6 8 10 11 10 2 0 4 -4 4 -10z m625 -204 c32 -3 64 -1 70 4 6 5 17 5 24 1 7 -5 22 -6 34 -3 15 4 18 2 12 -9 -8 -12 -6 -12 8 0 13 10 17 10 17 1 0 -10 4 -10 16 1 13 10 17 10 23 0 7 -10 12 -10 30 0 17 11 25 12 42 1 16 -10 24 -10 35 -1 11 9 14 8 14 -4 0 -8 -6 -18 -12 -20 -9 -4 -8 -6 3 -6 8 -1 25 8 37 19 12 11 27 20 34 19 10 0 10 -2 1 -6 -7 -2 -13 -9 -13 -15 0 -6 7 -7 16 -4 9 3 25 -1 37 -9 26 -18 46 -20 29 -3 -17 17 -15 33 3 18 8 -7 22 -9 31 -6 12 5 15 2 10 -9 -3 -9 -2 -13 4 -10 17 10 54 17 80 15 34 -3 53 -3 140 4 84 7 81 -9 -5 -19 -27 -3 -93 -12 -145 -20 -157 -24 -180 -25 -585 -31 -318 -5 -429 -3 -605 11 -243 19 -422 45 -427 61 -8 25 135 32 557 28 234 -2 452 -6 485 -8z"/>
<path d="M3737 10872 c-14 -15 -17 -42 -17 -148 0 -148 7 -167 60 -167 53 0 60 19 60 169 0 107 -3 136 -16 148 -21 22 -67 20 -87 -2z"/>
<path d="M4126 10702 c-10 -16 27 -39 106 -66 89 -30 106 -32 115 -10 7 20 -7 29 -82 53 -82 25 -132 33 -139 23z"/>
<path d="M4507 10563 c-18 -17 0 -37 81 -93 48 -33 102 -72 119 -86 59 -48 100 -1 42 48 -56 47 -143 105 -183 122 -43 18 -50 19 -59 9z"/>
<path d="M5300 10425 c-11 -13 -10 -14 4 -9 9 3 16 10 16 15 0 13 -6 11 -20 -6z"/>
<path d="M5284 10349 c-1 -22 0 -38 3 -36 8 8 12 66 5 71 -4 2 -8 -14 -8 -35z"/>
<path d="M5331 10371 l-22 -20 21 -21 c12 -12 24 -19 28 -16 3 4 -3 13 -14 20 -18 14 -18 15 5 35 13 12 20 21 14 21 -5 0 -20 -9 -32 -19z"/>
<path d="M5375 10370 c-26 -29 -15 -32 15 -4 13 13 20 24 14 24 -6 0 -19 -9 -29 -20z"/>
<path d="M4169 10336 c-6 -13 -9 -31 -6 -39 3 -8 44 -35 92 -61 48 -25 104 -59 125 -76 41 -32 59 -37 78 -18 24 24 13 56 -34 95 -53 46 -165 108 -211 118 -28 6 -34 3 -44 -19z"/>
<path d="M5396 10341 c-9 -9 -13 -21 -9 -25 4 -4 1 -11 -7 -16 -8 -5 -11 -12 -8 -15 4 -4 17 2 29 14 13 12 17 21 11 21 -7 0 -12 5 -12 11 0 6 7 9 15 5 8 -3 15 -1 15 4 0 18 -18 19 -34 1z"/>
<path d="M5420 10290 c0 -5 4 -10 9 -10 6 0 13 5 16 10 3 6 -1 10 -9 10 -9 0 -16 -4 -16 -10z"/>
<path d="M5460 10273 c0 -13 5 -23 10 -23 13 0 13 11 0 30 -8 12 -10 11 -10 -7z"/>
<path d="M5365 10250 c15 -16 19 -17 31 -5 20 19 17 30 -3 14 -13 -11 -17 -11 -20 -1 -3 6 -9 12 -15 12 -6 0 -3 -9 7 -20z"/>
<path d="M5413 10235 c-23 -34 -14 -60 10 -36 9 9 7 10 -8 5 l-20 -7 20 24 c11 13 24 27 29 30 4 4 4 9 -1 12 -4 3 -18 -10 -30 -28z"/>
<path d="M5447 10227 c-3 -8 -2 -19 3 -26 5 -9 9 -4 12 13 5 27 -6 36 -15 13z"/>
<path d="M3741 10212 c-22 -17 -22 -21 -19 -270 3 -238 4 -255 22 -268 27 -19 52 -18 76 6 19 19 20 33 20 275 0 241 -1 255 -19 265 -29 15 -56 12 -80 -8z"/>
<path d="M5370 10181 c0 -5 -8 -11 -17 -13 -15 -3 -14 -5 5 -10 12 -3 20 -2 16 3 -3 5 0 9 5 9 6 0 11 5 11 10 0 6 -4 10 -10 10 -5 0 -10 -4 -10 -9z"/>
<path d="M5409 10164 l-24 -27 33 17 c18 9 30 21 27 26 -8 13 -8 13 -36 -16z"/>
<path d="M5495 10050 c-10 -11 -13 -20 -8 -20 13 0 38 29 31 35 -3 3 -13 -4 -23 -15z"/>
<path d="M5410 10041 c0 -6 4 -13 10 -16 6 -3 7 1 4 9 -7 18 -14 21 -14 7z"/>
<path d="M5470 9960 c0 -5 5 -10 10 -10 6 0 10 5 10 10 0 6 -4 10 -10 10 -5 0 -10 -4 -10 -10z"/>
<path d="M5450 9936 c0 -2 7 -7 16 -10 8 -3 12 -2 9 4 -6 10 -25 14 -25 6z"/>
<path d="M5576 9867 c3 -10 9 -15 12 -12 3 3 0 11 -7 18 -10 9 -11 8 -5 -6z"/>
<path d="M5502 9846 c7 -8 15 -12 17 -11 5 6 -10 25 -20 25 -5 0 -4 -6 3 -14z"/>
<path d="M5570 9830 c0 -5 5 -10 10 -10 6 0 10 5 10 10 0 6 -4 10 -10 10 -5 0 -10 -4 -10 -10z"/>
<path d="M5485 9810 c-3 -5 -2 -10 4 -10 5 0 13 5 16 10 3 6 2 10 -4 10 -5 0 -13 -4 -16 -10z"/>
<path d="M5531 9811 c-7 -5 -9 -11 -5 -14 5 -3 15 1 22 9 14 16 5 18 -17 5z"/>
<path d="M5637 9633 c-4 -3 -7 -13 -7 -22 1 -13 3 -13 11 2 11 19 8 33 -4 20z"/>
<path d="M5697 9598 c-4 -12 -4 -24 -2 -27 3 -2 5 1 5 7 0 7 5 12 10 12 6 0 10 -7 10 -15 0 -20 6 -19 30 5 24 24 25 30 4 30 -8 0 -12 -4 -9 -10 3 -5 -1 -10 -9 -10 -9 0 -16 7 -16 15 0 23 -17 18 -23 -7z"/>
<path d="M5577 9577 c-21 -32 -21 -37 -1 -37 8 0 12 5 8 11 -3 6 -1 15 6 19 7 4 11 13 8 20 -2 8 -10 3 -21 -13z"/>
<path d="M5611 9576 c-12 -15 -5 -46 11 -46 12 0 47 41 47 55 0 6 -11 -3 -24 -18 -14 -16 -25 -22 -25 -15 0 8 5 19 12 26 8 8 8 12 1 12 -6 0 -16 -6 -22 -14z"/>
<path d="M5674 9525 c8 -8 18 -15 22 -15 3 0 1 7 -6 15 -7 8 -17 15 -22 15 -5 0 -3 -7 6 -15z"/>
<path d="M5670 9401 c0 -5 5 -13 10 -16 6 -3 10 -2 10 4 0 5 -4 13 -10 16 -5 3 -10 2 -10 -4z"/>
<path d="M5536 9351 c-6 -9 15 -17 97 -35 16 -4 27 -2 27 4 0 5 -10 10 -23 10 -13 0 -27 3 -31 7 -3 4 -12 8 -19 9 -7 1 -19 5 -28 9 -10 3 -20 2 -23 -4z"/>
<path d="M5660 9356 c0 -2 6 -9 14 -15 11 -9 16 -9 22 0 4 8 3 9 -4 5 -7 -4 -12 -2 -12 3 0 6 -4 11 -10 11 -5 0 -10 -2 -10 -4z"/>
<path d="M5687 9310 c13 -13 56 -23 49 -12 -3 5 -17 12 -32 15 -14 2 -22 1 -17 -3z"/>
<path d="M5765 9280 c11 -5 27 -9 35 -9 13 -1 13 0 0 9 -8 5 -24 9 -35 9 l-20 0 20 -9z"/>
<path d="M5750 10145 c0 -15 18 -40 24 -34 3 3 -1 14 -9 25 -8 10 -14 15 -15 9z"/>
<path d="M5770 10076 c0 -2 9 -6 20 -9 11 -3 20 -1 20 4 0 5 -9 9 -20 9 -11 0 -20 -2 -20 -4z"/>
<path d="M5851 9930 c14 -31 19 -36 19 -24 0 6 -7 19 -16 30 -14 18 -14 18 -3 -6z"/>
<path d="M5901 9774 c0 -11 3 -14 6 -6 3 7 2 16 -1 19 -3 4 -6 -2 -5 -13z"/>
<path d="M5965 9440 c3 -5 10 -10 16 -10 5 0 9 5 9 10 0 6 -7 10 -16 10 -8 0 -12 -4 -9 -10z"/>
<path d="M5780 9440 c0 -5 7 -10 15 -10 8 0 15 5 15 10 0 6 -7 10 -15 10 -8 0 -15 -4 -15 -10z"/>
<path d="M3743 9243 c-29 -11 -10 -23 36 -23 50 0 74 13 45 24 -18 7 -63 7 -81 -1z"/>
<path d="M2867 9194 c-4 -4 -7 -33 -7 -65 0 -32 -3 -60 -7 -62 -5 -3 -65 -8 -135 -12 l-128 -7 0 66 c0 72 -3 75 -59 55 -39 -14 -51 -41 -51 -114 0 -76 44 -113 120 -100 19 3 92 12 162 19 188 20 224 50 202 173 -9 47 -10 48 -49 51 -23 2 -44 0 -48 -4z"/>
<path d="M4597 9194 c-4 -4 -7 -42 -7 -84 0 -115 4 -117 227 -141 167 -18 180 -18 215 -3 43 19 54 51 46 135 -6 59 -14 69 -65 78 -54 10 -63 5 -63 -38 0 -36 -2 -38 -27 -34 -20 3 -24 2 -14 -5 7 -5 11 -14 7 -20 -3 -6 4 -13 16 -15 13 -2 -24 -4 -82 -5 -151 0 -154 1 -160 73 l-5 60 -40 3 c-23 2 -44 0 -48 -4z"/>
<path d="M4798 9153 c6 -2 18 -2 25 0 6 3 1 5 -13 5 -14 0 -19 -2 -12 -5z"/>
<path d="M5190 9110 c-6 -11 -10 -50 -8 -87 3 -73 17 -91 61 -79 26 6 27 8 27 84 0 47 -5 83 -12 90 -19 19 -56 14 -68 -8z"/>
<path d="M2302 9104 c-18 -13 -22 -25 -22 -73 0 -74 17 -99 57 -86 27 10 28 14 31 79 4 91 -16 115 -66 80z"/>
<path d="M4790 9110 c0 -5 10 -10 23 -10 18 0 19 2 7 10 -19 13 -30 13 -30 0z"/>
<path d="M4848 9073 c12 -2 30 -2 40 0 9 3 -1 5 -23 4 -22 0 -30 -2 -17 -4z"/>
<path d="M6040 8835 c0 -8 5 -15 10 -15 6 0 10 7 10 15 0 8 -4 15 -10 15 -5 0 -10 -7 -10 -15z"/>
<path d="M3169 8266 c-2 -2 -25 -6 -52 -9 -26 -3 -52 -9 -57 -12 -6 -4 -8 -27 -6 -53 2 -26 4 -66 5 -90 1 -41 2 -43 19 -26 16 17 17 17 20 -3 2 -15 8 -19 23 -16 16 5 18 8 7 14 -10 7 -9 9 3 9 9 0 22 -7 29 -15 23 -28 30 -4 30 101 0 91 -5 115 -21 100z"/>
<path d="M3083 7993 c-26 -5 -29 -36 -28 -256 0 -169 -1 -167 82 -167 l53 0 0 215 -1 215 -42 -1 c-23 -1 -52 -4 -64 -6z"/>
<path d="M6025 8110 c-3 -5 -1 -10 4 -10 6 0 11 5 11 10 0 6 -2 10 -4 10 -3 0 -8 -4 -11 -10z"/>
<path d="M4800 6790 c0 -5 5 -10 10 -10 6 0 10 5 10 10 0 6 -4 10 -10 10 -5 0 -10 -4 -10 -10z"/>
<path d="M4740 6725 c0 -8 5 -15 10 -15 6 0 10 7 10 15 0 8 -4 15 -10 15 -5 0 -10 -7 -10 -15z"/>
<path d="M4600 6640 c0 -5 5 -10 10 -10 6 0 10 5 10 10 0 6 -4 10 -10 10 -5 0 -10 -4 -10 -10z"/>
<path d="M4720 6415 c0 -8 4 -15 10 -15 5 0 7 7 4 15 -4 8 -8 15 -10 15 -2 0 -4 -7 -4 -15z"/>
<path d="M4740 6319 c0 -5 5 -7 10 -4 6 3 10 8 10 11 0 2 -4 4 -10 4 -5 0 -10 -5 -10 -11z"/>
<path d="M4660 6081 c0 -14 39 -57 40 -43 0 6 -4 12 -10 12 -5 0 -10 9 -10 20 0 11 -4 20 -10 20 -5 0 -10 -4 -10 -9z"/>
<path d="M4716 6072 c-8 -13 10 -52 24 -52 13 0 12 10 -4 39 -8 15 -16 20 -20 13z"/>
<path d="M4630 6062 c1 -14 28 -43 34 -34 3 4 -4 16 -15 25 -10 9 -19 13 -19 9z"/>
<path d="M4663 5963 c9 -2 23 -2 30 0 6 3 -1 5 -18 5 -16 0 -22 -2 -12 -5z"/>
<path d="M4716 5877 c3 -10 9 -15 12 -12 3 3 0 11 -7 18 -10 9 -11 8 -5 -6z"/>
<path d="M4610 5850 c0 -5 5 -10 11 -10 5 0 7 5 4 10 -3 6 -8 10 -11 10 -2 0 -4 -4 -4 -10z"/>
<path d="M4625 5800 c3 -5 8 -10 11 -10 2 0 4 5 4 10 0 6 -5 10 -11 10 -5 0 -7 -4 -4 -10z"/>
<path d="M4600 5779 c0 -5 5 -7 10 -4 6 3 10 8 10 11 0 2 -4 4 -10 4 -5 0 -10 -5 -10 -11z"/>
<path d="M4581 5604 c0 -11 3 -14 6 -6 3 7 2 16 -1 19 -3 4 -6 -2 -5 -13z"/>
<path d="M4580 5405 c0 -8 4 -15 10 -15 5 0 7 7 4 15 -4 8 -8 15 -10 15 -2 0 -4 -7 -4 -15z"/>
<path d="M3751 5084 c0 -11 3 -14 6 -6 3 7 2 16 -1 19 -3 4 -6 -2 -5 -13z"/>
<path d="M4542 5165 c0 -16 2 -22 5 -12 2 9 2 23 0 30 -3 6 -5 -1 -5 -18z"/>
<path d="M4500 5160 c0 -5 5 -10 10 -10 6 0 10 5 10 10 0 6 -4 10 -10 10 -5 0 -10 -4 -10 -10z"/>
<path d="M4566 5145 c-3 -9 0 -15 9 -15 16 0 20 16 6 24 -5 3 -11 -1 -15 -9z"/>
<path d="M4460 5081 c0 -5 5 -13 10 -16 6 -3 10 -2 10 4 0 5 -4 13 -10 16 -5 3 -10 2 -10 -4z"/>
<path d="M4418 5003 c7 -3 16 -2 19 1 4 3 -2 6 -13 5 -11 0 -14 -3 -6 -6z"/>
<path d="M4351 4920 c-9 -5 -5 -9 10 -13 28 -7 31 -6 14 10 -6 6 -18 8 -24 3z"/>
<path d="M4305 4859 c-10 -15 3 -25 16 -12 7 7 7 13 1 17 -6 3 -14 1 -17 -5z"/>
<path d="M4300 4680 c0 -5 -7 -10 -16 -10 -8 0 -12 -5 -9 -10 4 -7 13 -7 26 0 20 11 26 30 9 30 -5 0 -10 -4 -10 -10z"/>
<path d="M4215 4620 c-3 -5 -1 -10 4 -10 6 0 11 5 11 10 0 6 -2 10 -4 10 -3 0 -8 -4 -11 -10z"/>
<path d="M3870 4559 c11 -38 26 -55 17 -19 -4 14 -7 31 -7 38 0 6 -4 12 -9 12 -6 0 -6 -12 -1 -31z"/>
<path d="M3817 4573 c-12 -12 -7 -22 8 -17 8 4 15 10 15 15 0 11 -14 12 -23 2z"/>
<path d="M3840 4541 c0 -5 5 -13 10 -16 6 -3 10 -2 10 4 0 5 -4 13 -10 16 -5 3 -10 2 -10 -4z"/>
<path d="M3760 4502 c0 -5 6 -16 13 -26 13 -18 14 -18 21 -1 4 11 1 22 -6 27 -17 10 -28 10 -28 0z"/>
<path d="M3825 4500 c3 -5 8 -10 11 -10 2 0 4 5 4 10 0 6 -5 10 -11 10 -5 0 -7 -4 -4 -10z"/>
<path d="M6145 3100 c-3 -5 -1 -10 4 -10 6 0 11 5 11 10 0 6 -2 10 -4 10 -3 0 -8 -4 -11 -10z"/>
<path d="M6020 2859 c0 -5 5 -7 10 -4 6 3 10 8 10 11 0 2 -4 4 -10 4 -5 0 -10 -5 -10 -11z"/>
<path d="M5577 2790 c3 -11 9 -20 13 -20 5 0 6 9 3 20 -3 11 -9 20 -13 20 -5 0 -6 -9 -3 -20z"/>
<path d="M5610 2790 c0 -5 5 -10 10 -10 6 0 10 5 10 10 0 6 -4 10 -10 10 -5 0 -10 -4 -10 -10z"/>
<path d="M5498 2785 c-4 -4 -4 -13 -2 -20 3 -7 -3 -15 -13 -18 -17 -4 -17 -5 0 -6 10 0 20 6 23 14 7 17 1 39 -8 30z"/>
<path d="M5440 2776 c0 -2 7 -6 15 -10 8 -3 15 -1 15 4 0 6 -7 10 -15 10 -8 0 -15 -2 -15 -4z"/>
<path d="M6180 2633 c0 -5 5 -15 10 -23 8 -12 10 -11 10 8 0 12 -4 22 -10 22 -5 0 -10 -3 -10 -7z"/>
<path d="M6316 2429 c20 -24 27 -59 12 -56 -7 2 -10 2 -5 0 4 -3 7 -11 7 -18 0 -7 7 -16 16 -19 14 -5 15 -4 5 8 -16 19 -3 49 18 41 35 -15 45 -16 26 -4 -11 7 -25 20 -32 28 -11 14 -13 14 -14 -4 -1 -17 -2 -16 -8 4 -4 14 -13 27 -21 29 -12 4 -13 2 -4 -9z"/>
<path d="M6295 2350 c3 -5 8 -10 11 -10 2 0 4 5 4 10 0 6 -5 10 -11 10 -5 0 -7 -4 -4 -10z"/>
<path d="M6380 2340 c0 -5 5 -10 10 -10 6 0 10 5 10 10 0 6 -4 10 -10 10 -5 0 -10 -4 -10 -10z"/>
<path d="M6322 2304 c-7 -8 -8 -14 -3 -14 10 0 25 19 20 25 -2 1 -10 -3 -17 -11z"/>
<path d="M6425 2310 c-4 -6 -15 -8 -26 -5 -11 4 -19 2 -19 -4 0 -6 -9 -11 -20 -11 -11 0 -23 -6 -26 -14 -6 -15 14 -61 23 -53 2 3 -1 15 -7 27 -13 25 -9 33 13 24 9 -3 13 -12 10 -21 -5 -13 -3 -13 16 -1 17 10 18 14 6 16 -22 5 -18 22 5 22 11 0 20 -7 20 -15 0 -8 4 -15 9 -15 5 0 7 -9 4 -20 -4 -14 0 -20 11 -20 19 0 15 42 -6 67 -11 14 -10 15 10 9 27 -9 29 0 3 14 -14 7 -22 7 -26 0z"/>
<path d="M6272 2246 c7 -8 15 -12 17 -11 5 6 -10 25 -20 25 -5 0 -4 -6 3 -14z"/>
<path d="M6300 2246 c0 -2 7 -7 16 -10 8 -3 12 -2 9 4 -6 10 -25 14 -25 6z"/>
<path d="M6399 2237 c6 -8 8 -17 4 -20 -3 -4 -1 -7 5 -7 7 0 12 9 12 20 0 12 -7 20 -16 20 -13 0 -14 -3 -5 -13z"/>
<path d="M6373 2215 c-9 -10 -9 -16 -2 -20 14 -9 22 0 17 18 -2 13 -5 13 -15 2z"/>
<path d="M6340 2170 c0 -5 5 -10 11 -10 5 0 7 5 4 10 -3 6 -8 10 -11 10 -2 0 -4 -4 -4 -10z"/>
<path d="M6192 1735 c0 -16 2 -22 5 -12 2 9 2 23 0 30 -3 6 -5 -1 -5 -18z"/>
<path d="M6196 1371 c-4 -7 -5 -15 -2 -18 9 -9 19 4 14 18 -4 11 -6 11 -12 0z"/>
<path d="M5366 2530 c-15 -5 -16 -9 -7 -14 7 -5 18 -3 24 3 14 14 6 20 -17 11z"/>
<path d="M5320 2523 c0 -15 18 -35 23 -27 3 5 -1 15 -9 22 -8 7 -14 9 -14 5z"/>
<path d="M5250 2509 c0 -5 5 -7 10 -4 6 3 10 8 10 11 0 2 -4 4 -10 4 -5 0 -10 -5 -10 -11z"/>
<path d="M1682 2063 c-23 -9 -44 -64 -38 -96 13 -63 66 -87 106 -47 27 27 35 65 20 101 -17 41 -50 57 -88 42z"/>
<path d="M1943 2037 c-26 -12 -46 -53 -37 -81 10 -32 45 -66 69 -66 31 0 68 44 68 80 0 53 -53 88 -100 67z"/>
<path d="M1656 1706 c-35 -34 -35 -88 -1 -121 37 -38 76 -32 100 16 30 56 9 111 -47 125 -21 4 -33 0 -52 -20z"/>
<path d="M1917 1670 c-13 -11 -28 -31 -31 -45 -14 -55 50 -129 92 -106 29 16 51 46 58 79 5 26 1 36 -24 62 -35 35 -60 38 -95 10z"/>
<path d="M5716 2224 c-11 -7 -17 -17 -13 -20 3 -4 14 1 23 10 21 22 15 28 -10 10z"/>
<path d="M5498 2214 c-4 -5 0 -18 8 -29 15 -20 17 -12 5 19 -4 11 -10 15 -13 10z"/>
<path d="M5829 2199 c17 -16 20 -24 10 -35 -14 -18 -10 -18 32 1 31 13 32 14 9 15 -14 0 -31 9 -38 20 -7 11 -17 20 -24 20 -6 0 -2 -9 11 -21z"/>
<path d="M5681 2164 c-6 -15 -9 -29 -7 -32 3 -2 10 8 16 23 14 36 7 43 -9 9z"/>
<path d="M5723 2168 c-21 -27 -22 -36 -8 -48 13 -11 14 -10 9 4 -3 9 -1 23 6 31 7 9 11 18 8 20 -3 3 -10 0 -15 -7z"/>
<path d="M5790 2157 c14 -13 27 -23 29 -21 6 5 -10 24 -32 35 -20 10 -20 9 3 -14z"/>
<path d="M5750 2151 c0 -5 7 -12 16 -15 14 -5 15 -4 4 9 -14 17 -20 19 -20 6z"/>
<path d="M5855 2134 c-16 -25 -16 -26 3 -20 15 5 21 1 26 -16 9 -34 7 -43 -5 -31 -8 8 -20 8 -36 2 -13 -5 -36 -6 -51 -3 -23 4 -24 4 -9 -6 14 -9 16 -15 6 -26 -16 -19 -6 -98 15 -119 24 -25 85 -24 99 0 19 32 26 77 16 103 -8 21 -7 23 5 13 11 -9 15 -8 19 3 3 8 2 16 -4 18 -5 2 -6 15 0 33 8 29 -8 63 -23 48 -3 -3 -8 2 -12 11 -9 24 -29 20 -49 -10z m75 -44 c0 -11 -4 -20 -8 -20 -4 0 -8 9 -9 20 -1 11 2 20 8 20 5 0 9 -9 9 -20z"/>
<path d="M5783 2083 c15 -2 37 -2 50 0 12 2 0 4 -28 4 -27 0 -38 -2 -22 -4z"/>
<path d="M5499 2030 c-27 -29 -32 -40 -22 -44 21 -8 25 -7 18 4 -7 12 12 40 26 40 5 0 2 -14 -6 -30 -9 -17 -13 -40 -10 -50 9 -27 53 -60 81 -60 31 0 76 57 63 81 -12 24 -11 29 6 29 13 0 13 3 3 20 -8 12 -29 22 -58 26 -25 4 -50 10 -55 15 -7 5 -25 -8 -46 -31z m76 -89 c2 -13 0 -21 -6 -19 -6 2 -10 7 -10 11 1 4 1 15 1 24 0 22 10 11 15 -16z"/>
<path d="M5810 1710 c-25 -25 -27 -95 -4 -128 13 -19 24 -22 57 -20 35 3 43 8 58 38 15 29 17 42 8 73 -15 56 -80 76 -119 37z"/>
<path d="M5541 1661 c-43 -60 -16 -133 55 -147 47 -9 75 20 77 79 2 42 -2 52 -26 73 -39 33 -80 32 -106 -5z"/>
<path d="M2440 2081 c0 -25 4 -30 28 -33 l27 -3 3 -137 3 -138 29 0 c38 0 42 16 38 159 l-3 113 28 5 c22 4 27 11 27 34 l0 29 -90 0 -90 0 0 -29z"/>
<path d="M2672 1943 l3 -168 28 -3 c15 -2 27 0 27 5 1 4 2 80 3 168 l2 160 -33 3 -32 3 2 -168z"/>
<path d="M2797 2104 c-4 -4 -7 -81 -7 -171 l0 -164 28 3 27 3 0 83 c0 45 1 82 2 82 2 0 21 -36 43 -80 22 -44 44 -80 49 -80 4 0 23 29 41 65 18 36 37 65 41 65 4 0 9 -30 11 -67 3 -65 4 -68 28 -68 l25 0 3 163 2 162 -24 0 c-18 0 -27 -8 -35 -32 -6 -18 -21 -42 -32 -54 -11 -12 -26 -37 -32 -56 -7 -19 -16 -35 -22 -37 -5 -2 -32 38 -60 90 -46 86 -70 111 -88 93z"/>
<path d="M3140 1946 l0 -164 81 -7 c83 -7 95 -4 101 30 3 17 -5 21 -57 30 -60 11 -60 11 -60 45 0 32 2 35 43 43 31 6 42 13 42 26 0 14 -11 20 -45 25 -42 7 -45 9 -45 36 0 32 10 37 80 42 30 3 35 7 35 28 0 25 -2 25 -87 28 l-88 3 0 -165z"/>
<path d="M3552 2095 c-43 -19 -72 -81 -71 -155 1 -108 38 -158 123 -167 38 -5 50 -2 61 13 28 37 19 54 -29 54 -69 0 -87 21 -88 103 0 39 4 73 10 79 7 7 30 14 53 17 44 6 66 28 56 55 -8 20 -69 21 -115 1z"/>
<path d="M3791 2068 c-22 -53 -78 -234 -83 -268 -2 -21 2 -26 24 -28 23 -3 27 1 30 25 3 26 6 28 55 31 49 3 53 1 68 -28 12 -23 22 -30 38 -28 18 2 21 9 19 31 -4 40 -79 276 -93 293 -20 25 -39 15 -58 -28z m59 -145 c8 -32 7 -33 -22 -33 -30 0 -30 1 -24 42 4 22 9 45 13 51 7 12 24 -17 33 -60z"/>
<path d="M3975 2101 c-3 -5 -2 -80 1 -165 l7 -156 29 0 c27 0 28 2 28 49 0 48 1 49 35 55 19 4 47 17 62 30 24 21 27 31 28 86 0 55 -3 64 -28 86 -23 20 -39 24 -92 24 -35 0 -66 -4 -70 -9z m130 -81 c9 -40 -16 -80 -50 -80 -23 0 -25 4 -25 48 0 56 4 62 41 62 22 0 29 -6 34 -30z"/>
<path d="M4260 2103 c-37 -14 -60 -47 -60 -86 0 -32 6 -46 35 -73 20 -18 48 -39 63 -46 15 -8 28 -23 30 -36 3 -23 1 -23 -55 -21 -66 3 -80 -14 -44 -50 50 -50 146 -13 158 61 7 48 -11 77 -77 120 -78 51 -64 95 27 81 33 -6 34 -5 31 23 -3 27 -6 29 -48 31 -25 1 -52 -1 -60 -4z"/>
<path d="M4430 1976 l0 -136 29 -32 c26 -29 35 -33 81 -33 45 0 55 4 75 29 19 24 25 46 30 120 4 50 5 111 3 136 -3 42 -5 45 -31 45 l-29 0 -2 -121 c-2 -66 -6 -126 -10 -132 -11 -18 -52 -14 -71 5 -15 14 -17 34 -14 132 l4 116 -32 3 -33 3 0 -135z"/>
<path d="M4696 2101 c-4 -5 -3 -79 0 -165 l7 -155 65 -7 c74 -8 97 1 97 37 0 25 -1 26 -65 28 l-39 1 -3 133 -3 132 -27 3 c-14 2 -29 -1 -32 -7z"/>
<path d="M4917 2103 c-4 -3 -7 -80 -7 -170 l0 -163 91 0 90 0 -3 33 c-3 31 -4 32 -55 35 l-53 3 0 40 c0 34 3 39 23 39 46 0 68 12 65 34 -2 17 -11 22 -45 24 -36 3 -44 7 -49 28 -4 14 -4 28 -1 31 4 3 32 8 64 12 54 6 58 8 61 34 l3 27 -89 0 c-49 0 -92 -3 -95 -7z"/>
<path d="M3473 1613 c-204 -4 -218 -7 -172 -48 19 -18 44 -19 467 -17 417 1 448 3 471 20 55 41 47 42 -251 42 -155 0 -292 2 -303 3 -11 2 -107 1 -212 0z"/>
<path d="M3541 1441 c-9 -6 -11 -18 -7 -35 l6 -26 224 0 c236 0 253 3 244 47 -3 17 -21 18 -228 20 -124 2 -231 -1 -239 -6z"/>
<path d="M5100 1346 c0 -6 11 -13 25 -14 14 -1 25 2 25 7 0 5 -11 11 -25 13 -15 3 -25 1 -25 -6z"/>
<path d="M5788 1253 c7 -3 16 -2 19 1 4 3 -2 6 -13 5 -11 0 -14 -3 -6 -6z"/>
<path d="M5533 1203 c9 -2 23 -2 30 0 6 3 -1 5 -18 5 -16 0 -22 -2 -12 -5z"/>
<path d="M5390 1178 c0 -7 5 -20 10 -28 8 -12 10 -9 10 13 0 15 -4 27 -10 27 -5 0 -10 -6 -10 -12z"/>
<path d="M5427 1163 c-4 -3 -7 -13 -7 -22 0 -13 2 -13 13 1 6 9 19 18 27 21 10 4 8 6 -6 6 -11 1 -24 -2 -27 -6z"/>
<path d="M5337 1143 c-4 -3 -7 -11 -7 -17 0 -6 5 -5 12 2 6 6 9 14 7 17 -3 3 -9 2 -12 -2z"/>
<path d="M5321 1094 c0 -11 3 -14 6 -6 3 7 2 16 -1 19 -3 4 -6 -2 -5 -13z"/>
<path d="M5291 1027 c-15 -39 -14 -45 5 -19 8 12 13 28 11 35 -3 6 -10 -1 -16 -16z"/>
<path d="M4800 1122 c0 -7 -7 -12 -16 -12 -8 0 -12 -4 -9 -10 3 -5 10 -10 15 -10 10 0 22 31 15 38 -3 3 -5 0 -5 -6z"/>
<path d="M4866 1115 c-3 -8 -12 -12 -21 -9 -22 9 -19 -9 4 -23 16 -10 22 -9 35 11 14 22 12 36 -5 36 -4 0 -9 -7 -13 -15z"/>
<path d="M4910 1118 c0 -7 -7 -26 -15 -42 -11 -20 -12 -33 -5 -40 7 -7 10 -3 10 11 0 12 4 23 9 25 14 5 25 58 12 58 -6 0 -11 -6 -11 -12z"/>
<path d="M5005 1080 c3 -5 8 -10 11 -10 2 0 4 5 4 10 0 6 -5 10 -11 10 -5 0 -7 -4 -4 -10z"/>
<path d="M4715 1070 c-3 -5 -1 -10 4 -10 6 0 11 5 11 10 0 6 -2 10 -4 10 -3 0 -8 -4 -11 -10z"/>
<path d="M4810 1069 c0 -5 5 -7 10 -4 6 3 10 8 10 11 0 2 -4 4 -10 4 -5 0 -10 -5 -10 -11z"/>
<path d="M4840 1051 c0 -5 5 -13 10 -16 6 -3 10 -2 10 4 0 5 -4 13 -10 16 -5 3 -10 2 -10 -4z"/>
<path d="M4731 1024 c0 -11 3 -14 6 -6 3 7 2 16 -1 19 -3 4 -6 -2 -5 -13z"/>
<path d="M4762 1015 c0 -16 2 -22 5 -12 2 9 2 23 0 30 -3 6 -5 -1 -5 -18z"/>
<path d="M4830 1009 c0 -5 5 -7 10 -4 6 3 10 8 10 11 0 2 -4 4 -10 4 -5 0 -10 -5 -10 -11z"/>
<path d="M4870 1010 c0 -5 5 -10 10 -10 6 0 10 5 10 10 0 6 -4 10 -10 10 -5 0 -10 -4 -10 -10z"/>
<path d="M4706 1003 c-4 -5 -12 -9 -17 -9 -22 -3 -23 -5 -9 -14 19 -12 33 -13 26 -1 -4 5 0 11 6 14 7 2 10 7 7 11 -3 3 -9 3 -13 -1z"/>
<path d="M4722 969 c-14 -22 -7 -25 14 -5 8 8 11 17 6 20 -4 2 -13 -4 -20 -15z"/>
<path d="M4577 923 c-4 -3 -7 -11 -7 -17 0 -6 5 -5 12 2 6 6 9 14 7 17 -3 3 -9 2 -12 -2z"/>
<path d="M4680 910 c0 -5 5 -10 10 -10 6 0 10 5 10 10 0 6 -4 10 -10 10 -5 0 -10 -4 -10 -10z"/>
<path d="M4545 880 c-3 -6 1 -7 9 -4 18 7 21 14 7 14 -6 0 -13 -4 -16 -10z"/>
<path d="M4101 755 c0 -5 4 -18 7 -28 7 -16 9 -16 27 -1 16 13 17 15 3 10 -10 -3 -22 2 -27 12 -6 9 -10 13 -10 7z"/>
<path d="M4215 730 c3 -5 11 -10 16 -10 6 0 7 5 4 10 -3 6 -11 10 -16 10 -6 0 -7 -4 -4 -10z"/>
<path d="M1998 763 c7 -3 16 -2 19 1 4 3 -2 6 -13 5 -11 0 -14 -3 -6 -6z"/>
<path d="M5845 1050 c-3 -5 -1 -10 4 -10 6 0 11 5 11 10 0 6 -2 10 -4 10 -3 0 -8 -4 -11 -10z"/>
<path d="M5671 941 c-10 -6 -10 -10 -1 -16 13 -8 24 -1 19 14 -3 6 -10 7 -18 2z"/>
<path d="M3950 410 c0 -5 5 -10 11 -10 5 0 7 5 4 10 -3 6 -8 10 -11 10 -2 0 -4 -4 -4 -10z"/>
<path d="M592 7547 c-28 -30 -28 -35 4 -63 31 -30 35 -30 62 -1 28 29 28 38 -1 65 -29 28 -38 28 -65 -1z"/>
<path d="M6882 7547 c-12 -13 -22 -26 -22 -29 0 -7 48 -58 54 -58 9 0 56 51 56 60 0 13 -41 50 -55 50 -6 0 -21 -10 -33 -23z"/>
<path d="M695 7123 c-25 -46 -103 -89 -193 -104 -39 -7 -61 -16 -59 -23 2 -6 38 -16 79 -23 104 -15 152 -43 184 -105 19 -36 29 -35 44 2 13 32 83 108 114 126 18 9 16 13 -26 43 -24 17 -57 52 -73 76 -15 25 -33 45 -39 45 -6 0 -20 -17 -31 -37z m50 -93 c12 -20 -6 -50 -30 -50 -27 0 -36 17 -23 43 9 19 43 23 53 7z"/>
<path d="M6804 7128 c-23 -44 -37 -56 -107 -94 l-62 -33 48 -21 c52 -23 100 -67 124 -114 15 -29 16 -29 29 -10 55 76 95 102 180 117 37 7 69 18 71 23 2 6 -27 18 -64 28 -82 20 -132 51 -158 100 -24 44 -40 46 -61 4z m59 -100 c7 -21 -12 -48 -33 -48 -22 0 -25 12 -10 41 12 21 36 25 43 7z"/>
<path d="M457 6372 c-20 -22 -22 -55 -4 -71 21 -17 203 -95 344 -147 118 -44 125 -45 148 -30 50 33 24 66 -92 116 -43 18 -138 59 -211 91 -73 33 -141 59 -151 59 -10 0 -25 -8 -34 -18z"/>
<path d="M6905 6329 c-306 -130 -310 -132 -313 -165 -5 -50 19 -62 81 -40 135 48 403 158 419 173 10 9 18 26 18 38 0 24 -29 55 -51 55 -8 -1 -77 -28 -154 -61z"/>
<path d="M472 6008 c-7 -7 -12 -24 -12 -39 0 -36 32 -48 237 -89 184 -37 213 -35 213 11 0 36 -25 49 -140 73 -41 8 -111 24 -155 35 -92 24 -126 26 -143 9z"/>
<path d="M6915 5991 c-38 -10 -114 -28 -167 -40 -53 -12 -102 -28 -108 -36 -16 -19 -9 -45 15 -60 17 -11 51 -7 213 26 107 21 200 43 208 50 15 12 18 37 8 63 -8 22 -78 20 -169 -3z"/>
<path d="M453 5579 c-20 -20 -15 -48 10 -59 25 -11 397 -38 439 -32 35 5 52 33 35 56 -14 19 -91 28 -342 41 -100 5 -133 4 -142 -6z"/>
<path d="M6791 5575 c-174 -14 -199 -23 -186 -64 6 -19 14 -21 85 -21 117 0 382 21 403 31 21 12 22 33 1 53 -18 19 -66 19 -303 1z"/>
<path d="M598 5353 c-87 -3 -98 -6 -103 -24 -14 -44 6 -49 189 -49 120 0 176 4 184 12 18 18 14 46 -7 58 -19 10 -46 10 -263 3z"/>
<path d="M6678 5335 c-17 -37 5 -57 56 -53 37 3 41 6 44 32 4 34 -10 46 -56 46 -25 0 -35 -6 -44 -25z"/>
<path d="M223 5344 c-7 -3 -13 -16 -13 -30 0 -30 22 -36 120 -32 l75 3 0 30 0 30 -85 2 c-47 1 -91 -1 -97 -3z"/>
<path d="M6892 5318 l3 -33 85 0 85 0 3 33 3 32 -91 0 -91 0 3 -32z"/>
<path d="M7161 5331 c-9 -15 -7 -23 5 -36 13 -12 33 -15 93 -13 l76 3 0 30 0 30 -82 3 c-73 2 -83 1 -92 -17z"/>
<path d="M790 5099 c-47 -10 -132 -28 -190 -40 -140 -28 -169 -44 -149 -81 14 -26 52 -23 265 22 212 45 234 52 234 78 0 46 -30 50 -160 21z"/>
<path d="M6613 5113 c-7 -2 -13 -15 -13 -28 0 -31 14 -40 95 -59 125 -28 330 -66 358 -66 23 0 47 23 47 44 0 17 -84 42 -263 77 -111 21 -204 39 -207 38 -3 0 -11 -3 -17 -6z"/>
<path d="M730 4809 c-180 -50 -195 -57 -195 -89 0 -23 4 -25 45 -24 25 0 90 12 145 27 222 61 233 66 220 107 -9 29 -46 26 -215 -21z"/>
<path d="M6613 4843 c-19 -7 -16 -51 5 -62 9 -5 58 -18 107 -30 50 -12 125 -31 168 -42 99 -26 151 -23 155 9 5 30 -31 44 -217 87 -172 39 -202 44 -218 38z"/>
<path d="M770 4491 c-146 -55 -170 -67 -170 -84 0 -41 90 -51 153 -17 20 11 77 36 126 56 90 36 111 55 90 80 -19 24 -69 15 -199 -35z"/>
<path d="M6597 4533 c-4 -3 -7 -16 -7 -28 0 -26 37 -45 163 -86 135 -43 154 -45 162 -18 11 34 -17 51 -158 98 -123 41 -148 47 -160 34z"/>
<path d="M517 4122 c-31 -32 -29 -47 13 -79 l28 -23 27 35 26 35 -21 30 c-27 37 -39 38 -73 2z"/>
<path d="M6969 4117 l-27 -32 30 -34 30 -34 29 31 c16 17 29 35 29 40 0 11 -50 62 -59 61 -3 0 -18 -15 -32 -32z"/>
<path d="M567 3492 c-22 -24 -21 -35 1 -55 26 -24 46 -21 61 7 27 49 -26 88 -62 48z"/>
<path d="M6922 3498 c-18 -18 -15 -42 7 -62 18 -17 21 -17 45 -1 31 20 33 36 8 58 -22 20 -43 22 -60 5z"/>
</g>
</svg>