<svg xmlns="http://www.w3.org/2000/svg" version="1.0" width="394.000000pt" height="748.000000pt" viewBox="0 0 394.000000 748.000000" preserveAspectRatio="xMidYMid meet">

<g transform="translate(0.000000,748.000000) scale(0.100000,-0.100000)" fill="#263642" stroke="none">
<path d="M1655 7354 c-114 -21 -300 -85 -414 -144 -241 -124 -451 -309 -601 -530 -51 -75 -151 -279 -175 -357 -22 -73 -32 -84 -130 -148 -134 -86 -190 -175 -190 -300 0 -125 60 -212 195 -284 l60 -32 0 -1779 0 -1780 -57 -29 c-157 -80 -237 -264 -180 -413 22 -58 108 -140 194 -185 75 -41 81 -47 110 -136 94 -285 321 -590 583 -784 154 -114 399 -212 625 -248 114 -19 373 -19 486 -1 276 45 548 166 742 332 211 179 397 445 477 685 34 100 47 117 133 161 129 67 187 160 187 298 0 129 -54 221 -165 283 l-60 33 0 1734 c0 954 4 1756 8 1782 7 43 13 51 64 84 124 83 181 245 138 391 -22 75 -69 128 -165 187 -93 57 -99 65 -150 201 -105 283 -403 635 -667 788 -147 85 -343 154 -528 187 -142 24 -395 26 -520 4z m517 -193 c358 -62 673 -270 876 -579 55 -85 172 -319 172 -345 0 -13 -49 -16 -333 -22 -402 -9 -2134 1 -2197 12 -42 8 -45 10 -43 38 4 47 125 282 192 372 189 253 535 474 826 528 111 21 373 18 507 -4z m1127 -1151 c101 -7 152 -15 169 -26 53 -35 67 -143 24 -186 -17 -17 -41 -21 -183 -28 -90 -5 -789 -9 -1552 -10 l-1388 0 -19 46 c-29 66 -26 101 15 162 l36 52 1377 0 c798 0 1438 -4 1521 -10z m-19 -2240 l0 -1770 -1345 0 -1345 0 0 1770 0 1770 1345 0 1345 0 0 -1770z m125 -1978 c46 -9 65 -17 82 -39 49 -61 34 -174 -25 -187 -43 -10 -1078 -25 -1712 -25 -777 0 -1305 12 -1351 32 -83 35 -95 94 -34 182 l38 56 1471 -4 c972 -3 1491 -8 1531 -15z m-185 -471 c0 -19 -78 -188 -118 -258 -109 -186 -271 -358 -448 -472 -164 -108 -331 -171 -542 -207 -230 -39 -567 14 -787 123 -221 111 -465 354 -594 594 -32 59 -91 206 -91 226 0 2 580 3 1290 3 808 0 1290 -4 1290 -9z"/>
<path d="M1705 5011 c-279 -76 -513 -259 -631 -493 -105 -209 -135 -451 -81 -659 80 -306 254 -520 531 -650 255 -119 586 -114 841 13 196 98 359 281 461 516 54 125 60 173 46 390 -15 249 -30 302 -129 451 -107 162 -283 312 -444 379 -112 46 -206 63 -374 68 -125 3 -161 1 -220 -15z m387 -185 c90 -17 143 -38 232 -90 172 -101 321 -293 346 -447 13 -81 13 -345 0 -424 -28 -175 -206 -384 -408 -481 -161 -77 -387 -98 -550 -51 -223 65 -452 287 -521 507 -138 438 140 916 577 990 78 13 246 11 324 -4z"/>
<path d="M1850 4597 l-25 -13 -3 -242 c-1 -133 1 -263 5 -289 l8 -46 120 -69 c185 -106 253 -139 305 -145 43 -5 51 -3 74 20 64 64 22 114 -196 240 l-135 77 -6 193 c-3 105 -9 205 -13 220 -12 49 -86 79 -134 54z"/>
<path d="M854 2996 c-18 -13 -19 -28 -19 -221 0 -205 0 -207 24 -226 52 -43 108 -13 132 71 14 50 19 279 6 323 -14 53 -100 84 -143 53z"/>
<path d="M1370 2997 l-25 -13 0 -199 c0 -139 4 -206 12 -221 14 -25 50 -34 96 -25 53 11 62 43 62 216 -1 179 -11 220 -61 241 -41 17 -52 17 -84 1z"/>
<path d="M1880 2997 c-38 -19 -45 -73 -33 -264 11 -182 16 -195 76 -195 60 0 76 10 88 55 16 59 16 327 0 365 -19 46 -81 64 -131 39z"/>
<path d="M2388 2999 c-37 -14 -42 -48 -35 -247 7 -206 18 -226 110 -213 55 7 62 35 62 238 0 171 -1 184 -21 203 -24 25 -78 33 -116 19z"/>
<path d="M2890 2997 l-25 -13 0 -199 c0 -139 4 -206 12 -221 14 -25 50 -34 96 -25 53 11 61 42 62 226 0 192 -4 211 -50 231 -42 17 -63 17 -95 1z"/>
</g>
</svg>