<svg xmlns="http://www.w3.org/2000/svg" version="1.0" width="450.000000pt" height="910.000000pt" viewBox="0 0 450.000000 910.000000" preserveAspectRatio="xMidYMid meet">

<g transform="translate(0.000000,910.000000) scale(0.100000,-0.100000)" fill="#000000" stroke="none">
<path d="M1895 8950 c-285 -32 -611 -148 -813 -287 -417 -287 -696 -734 -778 -1242 -16 -100 -21 -338 -9 -462 8 -85 2 -102 -63 -194 -77 -108 -104 -208 -89 -324 20 -150 128 -262 282 -290 32 -6 72 -11 87 -11 17 0 722 316 1676 751 906 413 1664 760 1684 770 72 37 121 188 100 309 -34 190 -159 308 -344 325 -136 13 -149 19 -250 119 -193 191 -430 336 -728 446 -182 67 -306 90 -505 95 -93 2 -206 0 -250 -5z m390 -221 c256 -33 506 -134 715 -287 114 -84 278 -227 270 -235 -30 -29 -1984 -930 -2380 -1097 -25 -10 -83 -36 -130 -56 -113 -49 -220 -83 -236 -77 -15 6 -18 46 -15 238 5 316 115 626 321 904 153 207 301 332 515 437 339 165 614 216 940 173z m1425 -697 c41 -40 65 -105 55 -145 -11 -41 -220 -149 -810 -419 -1710 -784 -2476 -1129 -2493 -1124 -32 11 -100 84 -107 116 -4 17 -2 61 5 98 l11 68 1172 534 c645 294 1215 554 1267 578 318 147 696 308 765 325 63 15 97 7 135 -31z"/>
<path d="M490 4056 l0 -1904 -65 -31 c-85 -39 -171 -120 -203 -191 -36 -79 -41 -177 -12 -252 27 -73 102 -143 207 -195 92 -45 125 -77 142 -134 38 -129 150 -333 260 -469 72 -90 224 -244 307 -312 234 -191 560 -321 909 -362 615 -74 1237 153 1611 587 151 176 240 316 311 492 24 61 51 120 59 133 8 12 56 42 107 65 101 48 147 90 188 172 21 43 24 64 24 150 0 86 -3 107 -25 148 -34 68 -79 111 -166 158 l-75 41 4 1882 c1 1034 7 1891 11 1904 l8 22 -121 0 -121 0 0 -1905 0 -1905 -1570 0 -1570 0 0 1905 0 1905 -110 0 -110 0 0 -1904z m3508 -2134 c73 -12 107 -37 123 -93 13 -41 6 -94 -15 -121 -20 -27 -89 -36 -346 -44 -408 -14 -2975 -10 -3129 4 -141 14 -159 19 -203 60 -47 43 -39 77 41 189 l16 23 1725 -4 c1110 -2 1748 -7 1788 -14z m-218 -507 c0 -9 -31 -75 -68 -148 -65 -128 -164 -271 -254 -369 -105 -115 -306 -262 -474 -346 -60 -30 -266 -100 -359 -122 -196 -45 -444 -51 -650 -15 -117 20 -328 87 -430 135 -323 155 -652 507 -756 809 -11 30 -19 58 -19 63 0 4 677 8 1505 8 1339 0 1505 -2 1505 -15z"/>
<path d="M2068 5410 c-69 -11 -185 -49 -290 -95 -222 -98 -422 -284 -525 -490 -41 -81 -90 -249 -103 -351 -18 -145 19 -339 94 -501 204 -432 702 -677 1216 -598 397 61 676 270 858 645 50 105 61 151 62 260 0 138 -19 361 -36 420 -36 125 -112 240 -248 375 -235 233 -472 332 -816 340 -85 2 -181 0 -212 -5z m408 -215 c48 -9 113 -26 143 -38 261 -106 491 -350 521 -554 13 -90 13 -351 -1 -433 -25 -159 -189 -367 -374 -476 -80 -46 -208 -96 -300 -115 -125 -26 -312 -26 -422 1 -288 69 -577 338 -649 605 -9 33 -18 114 -21 180 -4 105 -1 132 21 219 35 135 98 245 205 358 141 149 291 227 501 261 66 11 295 6 376 -8z"/>
<path d="M2170 4942 c-30 -24 -34 -91 -25 -385 l7 -237 82 -44 c241 -131 366 -188 426 -193 56 -5 61 -4 89 25 71 70 25 118 -256 266 l-136 72 2 80 c2 106 -15 343 -28 378 -19 50 -118 73 -161 38z"/>
<path d="M1024 3231 c-29 -13 -34 -51 -34 -257 0 -221 11 -254 88 -254 82 0 116 83 116 285 0 151 -7 184 -48 210 -30 20 -93 28 -122 16z"/>
<path d="M1632 3233 c-12 -2 -30 -16 -39 -29 -14 -22 -15 -50 -10 -212 5 -179 14 -238 40 -254 17 -11 105 -10 127 2 30 16 43 107 38 265 -3 77 -10 152 -16 167 -18 45 -82 72 -140 61z"/>
<path d="M2220 3227 c-47 -17 -53 -52 -45 -254 7 -167 15 -221 37 -235 18 -11 106 -10 128 2 31 17 42 84 42 255 0 164 -8 207 -39 224 -33 17 -87 21 -123 8z"/>
<path d="M2813 3229 c-25 -7 -34 -17 -43 -47 -21 -77 -4 -384 24 -427 14 -22 24 -25 71 -25 96 0 109 35 108 285 -1 145 -9 187 -40 204 -30 15 -86 20 -120 10z"/>
<path d="M3403 3229 c-19 -6 -35 -18 -39 -32 -4 -12 -6 -96 -5 -187 2 -258 10 -280 95 -280 79 0 94 16 107 120 15 112 6 312 -15 345 -9 13 -33 29 -53 34 -44 12 -47 12 -90 0z"/>
</g>
</svg>