<svg version="1.0" xmlns="http://www.w3.org/2000/svg" width="1122.000000pt" height="734.000000pt" viewBox="0 0 1122.000000 734.000000" preserveAspectRatio="xMidYMid meet">

<g transform="translate(0.000000,734.000000) scale(0.100000,-0.100000)" fill="#000000" stroke="none">
<path d="M3275 6989 c-650 -59 -1236 -462 -1534 -1056 -21 -43 -322 -690 -669 -1438 -667 -1438 -697 -1510 -744 -1750 -20 -105 -23 -149 -23 -355 1 -216 3 -245 27 -360 84 -393 257 -712 533 -985 129 -128 229 -204 392 -298 210 -120 440 -198 688 -232 166 -23 455 -16 610 15 235 46 512 161 700 288 239 163 455 395 595 639 23 40 131 265 241 500 l199 428 0 -133 c0 -484 155 -908 465 -1273 200 -234 521 -450 825 -553 225 -76 509 -111 755 -94 55 4 676 88 1380 187 1703 241 1757 249 1852 272 559 134 1020 501 1273 1014 255 515 260 1122 14 1643 -101 214 -209 368 -379 537 -282 282 -619 457 -1020 531 -79 15 -148 19 -330 18 l-230 0 -1490 -212 c-819 -117 -1535 -221 -1590 -232 -314 -64 -643 -227 -884 -440 l-91 -80 24 52 c13 29 81 177 151 328 222 477 251 553 295 763 156 748 -166 1537 -800 1958 -364 242 -807 356 -1235 318z m450 -243 c465 -79 866 -343 1128 -741 178 -272 270 -591 266 -929 -1 -127 -11 -242 -22 -253 -8 -7 -2911 1344 -2915 1357 -6 18 182 196 289 272 225 162 511 272 796 308 94 12 349 4 458 -14z m-120 -1486 c787 -364 1432 -665 1435 -667 14 -13 -111 -293 -696 -1553 -624 -1346 -706 -1518 -731 -1527 -10 -4 -2986 1368 -3005 1386 -11 9 23 102 87 241 325 710 1272 2741 1300 2788 l36 61 72 -33 c39 -18 716 -331 1502 -696z m5513 -960 c25 -139 459 -3267 454 -3272 -4 -4 -53 -17 -107 -28 -129 -26 -3041 -436 -3161 -445 l-92 -7 -6 29 c-15 74 -456 3231 -454 3248 2 16 18 23 78 37 73 17 2987 431 3145 448 107 10 139 8 143 -10z m439 -40 c566 -145 1009 -578 1189 -1160 55 -178 76 -460 50 -663 -17 -133 -66 -320 -112 -429 -128 -304 -346 -573 -609 -750 -106 -71 -265 -153 -275 -141 -5 7 -451 3150 -450 3176 0 12 80 -1 207 -33z m-4027 -510 c0 -15 440 -3132 445 -3157 5 -20 1 -23 -22 -23 -92 1 -320 70 -479 145 -584 275 -955 857 -956 1500 0 170 13 280 52 428 98 381 319 704 640 939 82 60 195 128 262 158 51 22 58 23 58 10z m-3514 -1755 c791 -367 1443 -671 1448 -676 20 -18 -180 -207 -325 -306 -263 -179 -574 -279 -899 -288 -472 -13 -911 167 -1244 509 -337 346 -510 837 -465 1316 11 110 14 124 33 117 7 -3 660 -305 1452 -672z"/>
<path d="M3285 6326 c-48 -21 -70 -53 -70 -100 0 -22 8 -52 18 -66 22 -33 1109 -540 1157 -540 96 0 146 110 83 180 -21 22 -174 98 -566 279 -296 137 -550 252 -565 255 -15 3 -40 -1 -57 -8z"/>
<path d="M2600 5145 c-531 -91 -959 -456 -1125 -961 -50 -154 -68 -289 -62 -484 4 -153 8 -190 35 -290 142 -547 549 -936 1105 -1057 116 -25 419 -25 532 0 209 45 412 132 563 241 585 422 761 1207 411 1841 -207 377 -593 646 -1019 710 -115 18 -337 18 -440 0z m468 -234 c234 -51 430 -158 597 -326 175 -175 289 -395 331 -640 25 -143 15 -369 -23 -505 -126 -451 -483 -780 -940 -866 -108 -20 -310 -20 -420 0 -378 69 -697 313 -864 661 -55 114 -83 209 -104 345 -19 122 -19 207 1 339 40 269 161 501 363 694 178 170 424 285 672 317 102 12 284 4 387 -19z"/>
<path d="M3165 4681 c-11 -5 -28 -17 -37 -28 -25 -27 -418 -878 -418 -904 0 -11 50 -156 110 -322 125 -341 131 -352 210 -352 40 0 55 5 76 26 50 50 45 77 -60 365 -53 144 -96 267 -96 274 0 7 83 192 185 412 102 219 185 410 185 424 0 78 -83 134 -155 105z"/>
<path d="M7480 3839 c-421 -53 -806 -304 -1031 -674 -254 -418 -269 -965 -38 -1393 74 -138 131 -215 249 -333 168 -170 346 -280 565 -352 133 -44 222 -59 390 -64 187 -6 335 14 495 68 477 159 836 564 941 1059 38 182 32 450 -16 635 -129 501 -520 891 -1021 1020 -169 44 -362 56 -534 34z m425 -240 c468 -93 847 -484 929 -958 106 -618 -271 -1201 -878 -1360 -268 -70 -556 -41 -811 84 -348 169 -571 462 -656 860 -20 92 -17 342 5 445 88 408 373 741 754 880 219 80 423 95 657 49z"/>
<path d="M8059 2605 c-282 -40 -444 -67 -458 -77 -21 -15 -377 -482 -400 -525 -30 -57 4 -135 67 -153 72 -22 89 -7 276 241 93 123 172 227 175 231 4 4 200 35 436 68 237 33 443 66 459 72 36 14 66 63 66 107 0 24 -9 42 -34 67 -31 31 -39 34 -92 33 -33 -1 -255 -29 -495 -64z"/>
<path d="M9960 3457 c-14 -7 -33 -29 -43 -49 -18 -36 -17 -39 68 -645 57 -402 91 -616 101 -631 9 -13 31 -30 50 -38 73 -30 154 22 154 100 0 45 -160 1167 -171 1204 -19 60 -99 89 -159 59z"/>
<path d="M5113 2778 c-33 -9 -70 -47 -78 -82 -9 -38 162 -1213 181 -1245 21 -35 52 -51 100 -51 49 0 104 54 104 100 0 31 -154 1149 -165 1197 -13 58 -82 97 -142 81z"/>
<path d="M1226 1869 c-40 -11 -64 -36 -77 -79 -14 -46 7 -97 49 -122 16 -10 262 -126 548 -259 325 -151 535 -243 562 -246 74 -10 122 34 122 111 0 68 -17 78 -595 344 -297 137 -549 251 -560 254 -11 3 -33 1 -49 -3z"/>
</g>
</svg>