<svg version="1.0" xmlns="http://www.w3.org/2000/svg" width="1250.000000pt" height="886.000000pt" viewBox="0 0 1250.000000 886.000000" preserveAspectRatio="xMidYMid meet">

<g transform="translate(0.000000,886.000000) scale(0.100000,-0.100000)" fill="#263642" stroke="none">
<path d="M8918 8501 c-21 -4 -46 -16 -57 -25 -10 -9 -65 -33 -122 -52 -148 -50 -1068 -314 -2099 -603 -362 -102 -497 -148 -513 -174 -14 -26 -17 -303 -4 -381 15 -87 26 -35 38 174 6 113 14 208 18 211 3 3 227 68 496 143 270 76 758 213 1085 306 927 262 1062 296 1145 285 45 -5 55 -3 96 24 61 41 85 69 72 82 -14 14 -109 20 -155 10z"/>
<path d="M11425 8091 c-27 -6 -30 -10 -29 -45 2 -47 23 -71 57 -62 13 3 53 27 87 52 47 35 59 48 49 55 -16 10 -119 10 -164 0z"/>
<path d="M11275 8004 c-33 -8 -106 -28 -161 -45 l-102 -32 -5 -671 c-3 -381 -9 -684 -14 -701 -9 -26 -14 -30 -44 -27 -19 1 -105 2 -193 2 l-159 0 -46 48 c-25 26 -92 99 -148 162 -178 201 -336 329 -519 422 l-122 62 -140 -33 c-176 -42 -205 -40 -384 27 -82 31 -175 58 -232 68 -93 16 -101 16 -219 -5 -141 -25 -444 -103 -737 -191 -338 -102 -376 -110 -492 -108 -102 1 -106 0 -373 -81 -237 -72 -788 -231 -1690 -486 -148 -42 -423 -119 -610 -170 -187 -51 -488 -135 -670 -185 -575 -162 -640 -178 -649 -169 -5 4 -13 58 -17 120 -5 63 -14 118 -21 126 -17 21 -97 12 -202 -22 -91 -29 -112 -31 -132 -10 -35 35 -124 6 -124 -40 0 -48 70 -42 284 24 54 17 107 31 117 31 38 0 50 -40 47 -151 l-3 -104 -380 -93 c-209 -51 -389 -95 -401 -97 -11 -2 -38 -17 -60 -31 -57 -40 -206 -93 -496 -178 -582 -171 -807 -283 -1023 -507 -137 -143 -245 -306 -305 -462 -17 -43 -53 -155 -80 -250 -48 -165 -72 -234 -138 -397 -95 -232 -165 -613 -166 -900 -1 -197 4 -214 61 -198 21 6 79 28 129 49 116 49 176 59 206 33 26 -23 81 -141 97 -207 33 -138 32 -267 -4 -293 -22 -16 -130 -41 -218 -50 l-67 -7 0 49 c0 157 -54 279 -151 340 -54 34 -71 31 -108 -21 -81 -113 -82 -243 -2 -336 42 -51 100 -78 162 -79 61 0 86 -21 150 -126 31 -52 60 -89 75 -94 14 -6 21 -15 18 -23 -6 -17 60 -107 151 -207 150 -164 274 -277 440 -400 71 -54 166 -129 210 -167 103 -89 176 -143 305 -230 255 -170 407 -227 776 -290 138 -23 188 -27 379 -27 247 -1 279 4 545 79 265 76 315 85 441 84 89 -1 138 4 224 24 97 23 625 178 698 206 45 17 66 13 72 -12 4 -13 9 -159 13 -324 7 -283 8 -303 28 -329 50 -67 67 -64 724 135 184 56 376 115 425 131 50 16 245 74 435 130 548 161 1432 424 1835 547 99 30 260 76 358 103 219 61 242 71 270 124 20 39 21 59 28 374 7 383 -8 336 134 406 87 44 339 130 630 216 309 92 553 174 625 210 94 48 135 86 195 180 123 195 129 201 319 306 117 64 194 135 239 221 78 150 115 302 126 510 8 150 8 152 102 208 128 79 223 223 293 446 20 64 44 123 54 131 9 9 50 30 91 46 83 35 141 71 141 89 0 13 -35 4 -154 -37 -82 -28 -98 -27 -94 7 3 26 6 28 53 29 83 2 230 69 230 104 0 21 -59 17 -156 -10 -79 -23 -82 -23 -95 -5 -17 23 -18 61 -3 71 6 3 15 1 20 -7 11 -19 103 -17 166 5 59 20 106 59 101 84 -5 25 -41 26 -118 3 -162 -50 -200 -37 -200 65 l0 55 43 19 c23 10 80 26 125 36 91 19 145 48 150 80 6 38 -18 45 -94 28 -98 -22 -153 -43 -197 -72 -22 -15 -41 -22 -46 -16 -10 10 -44 164 -45 204 -1 23 4 25 78 37 83 14 192 48 214 65 19 16 14 46 -9 59 -35 18 -233 -26 -297 -67 -22 -14 -23 -13 -70 88 -27 57 -77 148 -110 203 -34 54 -62 105 -62 112 0 30 225 105 266 89 30 -11 -4 -33 -79 -51 -138 -34 -166 -68 -61 -73 60 -3 253 14 263 23 7 7 -171 185 -185 185 -21 0 -190 -70 -218 -91 -31 -23 -58 -17 -64 13 -3 15 62 49 123 64 48 11 107 44 102 57 -8 25 -76 30 -191 12 -136 -20 -145 -18 -275 79 -47 35 -105 76 -129 91 -24 16 -45 39 -49 54 -4 14 -8 336 -8 716 l0 689 130 37 c158 45 188 56 180 69 -7 12 -4 12 -80 -6z m-2174 -818 c108 -27 170 -56 279 -129 350 -234 741 -734 1024 -1312 271 -551 442 -1190 465 -1734 16 -388 -32 -727 -134 -936 -49 -101 -92 -157 -164 -209 -93 -69 -221 -119 -221 -87 0 5 16 50 35 99 110 285 161 688 137 1074 -38 604 -185 1142 -472 1723 -232 471 -484 831 -792 1131 -136 132 -161 152 -342 274 -137 92 -166 123 -129 134 41 12 221 -4 314 -28z m-310 -77 c111 -54 217 -132 354 -261 438 -411 733 -837 978 -1413 319 -752 439 -1509 336 -2122 -25 -153 -90 -397 -123 -460 -51 -101 -94 -123 -431 -223 -415 -123 -439 -130 -487 -136 -56 -8 -55 -15 -28 116 68 336 80 985 24 1340 -47 299 -197 816 -339 1165 -31 77 -57 158 -58 180 l-2 39 105 38 c58 21 126 41 151 44 42 6 47 4 66 -22 39 -56 123 -296 123 -351 0 -30 -67 -74 -156 -103 -88 -30 -93 -44 -13 -38 70 6 188 49 214 78 16 18 16 23 -4 90 -30 98 -105 269 -218 495 -111 220 -190 356 -239 405 -44 45 -75 45 -214 0 -58 -18 -123 -34 -144 -34 -38 -1 -41 1 -96 82 -175 254 -506 604 -727 771 -68 51 -123 97 -123 102 0 18 102 56 435 158 182 57 335 104 340 106 6 3 49 3 96 2 79 -3 94 -7 180 -48z m1110 -16 c110 -54 292 -218 504 -453 229 -254 358 -445 515 -765 223 -455 377 -921 426 -1290 21 -160 29 -543 15 -701 -14 -161 -30 -223 -83 -337 -47 -98 -88 -142 -186 -200 -180 -106 -320 -133 -164 -32 38 24 89 50 113 57 62 18 117 79 173 190 70 139 86 229 93 524 10 427 -29 674 -181 1129 -258 771 -734 1491 -1186 1792 -110 74 -126 77 -290 63 -145 -12 -200 -5 -143 18 67 28 152 41 239 39 79 -2 100 -7 155 -34z m-2356 -238 c73 -44 160 -114 329 -265 365 -326 633 -686 885 -1190 290 -582 466 -1194 521 -1815 16 -175 13 -527 -5 -679 -29 -250 -87 -483 -131 -536 -27 -31 -64 -41 -64 -16 0 22 -15 27 -49 15 -32 -11 -40 -24 -18 -32 24 -9 -8 -25 -103 -52 -103 -29 -464 -137 -785 -233 -244 -74 -621 -185 -975 -287 -375 -109 -479 -139 -890 -260 -201 -59 -385 -113 -410 -120 -42 -12 -743 -219 -1040 -307 -74 -22 -151 -44 -170 -50 -19 -5 -90 -27 -158 -49 -148 -48 -212 -59 -212 -37 0 8 29 75 64 149 138 289 169 467 182 1046 l7 331 51 23 c75 35 116 81 116 128 0 45 -35 87 -81 95 -16 3 -43 9 -59 12 -17 3 -37 15 -45 27 -7 12 -28 96 -45 187 -100 524 -274 1067 -472 1466 -47 96 -78 171 -76 184 2 19 17 28 90 50 90 28 158 69 158 96 0 16 -16 19 -25 4 -12 -20 -107 -61 -183 -80 -96 -24 -152 -46 -272 -105 -63 -31 -104 -45 -122 -42 -24 3 -28 0 -28 -20 0 -36 -34 -29 -69 14 -33 40 -67 126 -56 143 14 22 181 76 470 150 165 43 194 46 228 29 20 -9 20 -9 4 4 -26 21 -103 28 -177 16 -142 -22 -143 -22 -173 1 -16 12 -69 77 -119 144 -51 66 -112 146 -137 176 -129 157 -330 348 -439 417 -47 30 -68 49 -60 54 14 8 361 106 808 229 162 44 399 110 525 145 127 35 345 96 485 134 221 60 425 117 995 276 66 19 226 63 355 99 275 76 1069 304 1185 340 106 33 121 32 190 -9z m3455 -414 c63 -31 154 -83 202 -115 108 -72 245 -212 323 -332 106 -161 244 -479 281 -647 22 -97 29 -349 15 -474 -23 -197 -77 -364 -153 -478 -48 -71 -132 -161 -170 -181 -25 -13 -28 -12 -38 5 -5 11 -17 80 -26 153 -72 613 -214 1068 -506 1628 -87 166 -137 250 -205 344 -53 72 -63 104 -38 123 11 7 31 13 46 13 32 0 54 -24 263 -284 75 -92 136 -164 136 -158 0 13 -90 150 -148 224 -66 83 -152 217 -152 234 0 22 40 9 170 -55z m463 -218 c11 -10 -13 -33 -34 -33 -22 0 -24 11 -7 28 13 13 31 16 41 5z m-2451 -260 c32 -34 128 -186 164 -260 33 -66 28 -73 -69 -103 -127 -39 -167 -54 -167 -62 0 -13 45 -9 142 12 51 12 110 20 132 18 33 -3 41 -7 49 -31 13 -41 -7 -81 -51 -100 -31 -14 -140 -49 -218 -71 -18 -6 -32 14 -117 171 -94 174 -149 286 -162 330 -5 18 0 25 24 38 39 20 180 72 212 78 13 2 27 5 30 6 3 0 17 -11 31 -26z m-6159 -406 c42 -18 215 -157 296 -237 132 -132 380 -426 416 -493 10 -19 15 -42 12 -50 -4 -10 -36 -25 -79 -37 -113 -32 -162 -60 -166 -93 -2 -15 5 -39 16 -55 41 -57 36 -63 -68 -88 -52 -13 -101 -21 -108 -19 -23 8 -2 25 29 25 35 0 36 23 2 28 -24 4 -83 -59 -83 -88 0 -28 44 -26 145 5 106 33 130 32 166 -6 26 -28 34 -31 68 -26 21 2 69 23 107 46 73 44 112 51 136 24 49 -56 184 -336 284 -590 93 -237 125 -363 90 -363 -15 0 -26 -49 -26 -120 0 -61 -47 -159 -94 -195 -19 -15 -53 -29 -76 -32 -43 -6 -47 -12 -27 -32 6 -6 12 -31 12 -54 0 -38 2 -42 25 -42 22 0 26 5 31 42 3 29 16 54 43 83 60 67 95 129 123 220 l27 85 18 -41 c36 -83 141 -564 154 -704 9 -90 -5 -105 -116 -130 -122 -27 -464 -170 -446 -187 11 -12 97 9 131 33 41 27 75 31 75 8 0 -22 -79 -54 -154 -61 -60 -5 -65 -4 -80 19 -25 39 -62 203 -91 401 -28 197 -92 462 -159 669 -53 163 -79 219 -123 265 -32 35 -35 36 -88 30 -65 -7 -228 -57 -305 -95 -37 -18 -56 -34 -58 -48 -5 -38 136 -445 145 -417 2 6 -23 94 -57 197 -33 102 -60 193 -60 203 0 10 9 24 21 31 34 21 188 78 262 96 82 21 100 13 142 -58 73 -124 195 -564 254 -911 44 -258 66 -481 53 -530 -11 -40 -33 -38 -46 3 l-12 33 -18 -41 c-11 -25 -33 -51 -57 -67 -46 -30 -124 -42 -159 -23 l-24 13 35 19 34 19 -42 -6 c-62 -8 -88 6 -106 57 -22 62 -29 148 -14 178 7 14 33 35 59 47 51 24 69 43 41 43 -31 -1 -99 -37 -117 -61 -13 -20 -16 -54 -16 -211 0 -178 10 -253 30 -232 4 5 10 20 12 34 2 21 10 26 43 30 l40 5 -42 13 c-44 13 -63 35 -63 71 0 34 15 32 80 -14 77 -54 101 -56 203 -15 136 54 147 43 147 -145 0 -118 -11 -241 -26 -288 -9 -29 -263 -141 -361 -160 -31 -6 -32 -5 -38 37 -8 51 1 106 18 111 7 2 34 6 60 10 77 10 90 30 85 130 -5 95 -24 135 -63 135 -14 0 -33 -9 -42 -20 -10 -11 -28 -20 -40 -20 -16 0 -27 -9 -34 -27 -14 -36 -26 -230 -19 -308 l5 -60 60 1 c66 1 201 39 306 86 48 21 70 37 78 56 38 92 72 455 53 567 -14 85 -9 92 74 105 124 21 150 7 57 -30 -32 -13 -65 -30 -73 -38 -13 -13 -12 -14 15 -8 17 4 54 18 84 32 68 31 96 30 144 -3 37 -26 40 -26 90 -13 80 20 160 58 183 87 l21 27 12 -22 c39 -73 40 -482 1 -737 -38 -253 -119 -531 -183 -627 -48 -71 -119 -102 -507 -217 -351 -105 -439 -114 -756 -81 -121 12 -222 26 -227 30 -4 3 14 22 40 40 173 123 284 287 368 543 122 375 132 825 29 1387 -87 477 -239 962 -408 1299 -192 386 -531 776 -835 960 -94 57 -164 85 -264 108 -41 9 -65 19 -59 25 5 5 44 29 88 54 135 78 320 144 674 239 218 59 454 127 470 136 22 12 56 11 93 -4z m-1326 -692 c145 -49 287 -149 449 -316 349 -362 628 -910 789 -1552 120 -477 138 -1192 39 -1533 -54 -189 -131 -332 -231 -430 -68 -67 -116 -95 -208 -119 -74 -19 -175 -20 -200 -2 -29 22 -11 34 57 39 162 13 332 144 427 328 109 210 161 484 161 853 0 589 -137 1162 -405 1692 -146 289 -223 402 -425 624 -129 141 -241 233 -353 292 -169 88 -276 106 -412 69 -83 -22 -104 -23 -90 -1 8 15 80 51 130 67 70 22 187 17 272 -11z m-30 -157 c113 -43 181 -83 286 -170 200 -166 384 -419 567 -783 209 -413 316 -756 367 -1175 25 -203 25 -702 1 -840 -52 -293 -183 -545 -334 -645 -83 -55 -162 -71 -290 -57 -127 14 -164 29 -309 127 -136 92 -172 121 -162 131 4 4 36 11 72 15 189 23 347 210 425 504 51 195 44 595 -16 965 -33 199 -176 566 -320 819 -165 291 -381 517 -574 601 -77 34 -219 34 -302 1 -87 -34 -93 -24 -53 96 32 94 96 222 142 286 45 61 125 122 194 148 81 30 187 22 306 -23z m-317 -588 c214 -73 458 -356 651 -755 155 -321 236 -680 246 -1090 7 -306 -19 -450 -119 -653 -54 -111 -122 -185 -194 -211 -93 -35 -213 -25 -251 21 -9 11 0 12 47 10 44 -3 67 1 99 18 94 47 184 162 241 304 55 136 64 198 64 441 1 416 -52 681 -201 1012 -114 253 -253 465 -404 614 -209 207 -353 251 -553 170 -43 -17 -80 -30 -82 -28 -9 9 128 129 163 144 92 39 186 40 293 3z m-108 -179 c138 -42 368 -280 518 -536 255 -438 365 -1089 255 -1522 -63 -248 -183 -379 -360 -391 -68 -4 -73 -3 -162 43 -101 52 -209 135 -247 192 -14 20 -24 38 -23 39 1 1 27 -6 58 -16 65 -22 311 -45 376 -35 34 5 49 15 77 48 94 116 137 286 137 542 0 275 -53 524 -173 813 -140 337 -400 608 -603 629 -122 13 -205 -42 -277 -182 -24 -47 -46 -85 -50 -85 -16 0 -7 81 15 143 55 150 145 272 232 314 42 20 61 23 120 19 39 -2 87 -9 107 -15z m-69 -297 c267 -135 503 -516 591 -954 48 -238 56 -393 32 -581 -32 -234 -104 -359 -209 -359 l-39 0 40 45 c84 96 131 254 139 470 4 114 1 163 -16 264 -34 198 -123 435 -219 585 -104 161 -243 305 -340 353 -52 25 -68 28 -177 30 -146 2 -135 1 -135 12 0 18 103 122 139 141 54 28 130 26 194 -6z m-26 -254 c285 -141 546 -749 502 -1171 -27 -262 -112 -410 -236 -409 l-38 1 40 19 c113 55 154 181 155 475 0 256 -28 377 -140 612 -103 216 -233 388 -338 450 -52 31 -159 42 -215 24 -77 -26 -162 -168 -175 -291 -4 -39 -7 -49 -13 -35 -21 53 10 170 67 257 57 86 114 110 248 104 63 -4 91 -10 143 -36z m-36 -86 c100 -60 211 -237 327 -521 85 -205 96 -266 97 -493 0 -181 -2 -198 -22 -243 -79 -171 -195 -234 -320 -175 -80 38 -251 224 -289 314 -23 54 -7 65 108 73 69 6 102 13 121 27 96 69 77 359 -34 520 -67 98 -119 103 -278 28 l-94 -44 6 142 c3 104 10 160 25 205 63 198 198 262 353 167z m-411 -459 c0 -19 -4 -35 -10 -35 -5 0 -10 16 -10 35 0 19 5 35 10 35 6 0 10 -16 10 -35z m4102 -182 c26 -24 23 -68 -7 -91 -38 -30 -153 -75 -295 -117 -174 -51 -222 -73 -215 -96 8 -25 -15 -25 -48 1 -56 44 -55 174 1 186 27 6 254 65 422 110 103 28 118 29 142 7z m-4078 -85 c58 -68 83 -187 55 -267 -19 -55 -34 -30 -40 70 -6 103 -12 119 -76 197 -23 30 -41 58 -37 63 9 15 59 -18 98 -63z m-78 -113 c39 -68 39 -164 0 -149 -22 8 -37 54 -43 127 -7 81 7 88 43 22z m3754 -85 c0 -5 -14 -10 -31 -10 -17 0 -28 4 -24 10 3 6 17 10 31 10 13 0 24 -4 24 -10z m4904 -152 c8 -31 6 -570 -2 -632 l-7 -48 -290 -85 c-331 -95 -804 -236 -1205 -357 -151 -46 -430 -130 -620 -186 -190 -56 -388 -114 -440 -130 -52 -16 -167 -49 -255 -75 -216 -64 -451 -135 -680 -205 -387 -120 -486 -140 -516 -103 -11 12 -15 75 -17 282 -2 146 -1 298 3 336 l6 71 142 42 c78 23 327 95 552 161 543 158 1557 456 2015 592 207 62 1025 299 1145 333 119 32 161 33 169 4z m-8218 -340 c81 -88 87 -100 17 -39 -67 58 -86 81 -65 81 4 0 26 -19 48 -42z"/>
<path d="M8265 6910 c-10 -16 4 -30 30 -30 35 0 54 10 48 26 -6 16 -68 19 -78 4z"/>
<path d="M8078 6859 c-77 -11 -144 -47 -124 -66 12 -12 229 55 220 68 -6 10 -16 10 -96 -2z"/>
<path d="M8594 6353 l-172 -56 92 -107 91 -107 108 34 c165 52 267 93 267 108 0 8 -36 52 -81 99 -63 67 -87 86 -108 85 -14 0 -103 -25 -197 -56z"/>
<path d="M9525 4805 c-206 -58 -230 -68 -233 -98 -4 -32 33 -176 61 -234 11 -25 26 -43 36 -43 9 -1 94 23 190 52 l173 53 -5 47 c-6 52 -62 225 -79 245 -13 16 0 18 -143 -22z"/>
<path d="M9746 2845 c-25 -25 -19 -35 19 -35 41 0 87 19 82 34 -6 19 -83 19 -101 1z"/>
<path d="M9594 2820 c-67 -23 -104 -48 -104 -69 0 -41 54 -55 83 -23 22 24 21 31 -3 25 -14 -4 -20 0 -20 12 0 13 9 16 48 15 73 -3 74 -2 70 27 -4 34 -12 35 -74 13z"/>
<path d="M6975 6654 c-116 -31 -235 -65 -770 -219 -242 -69 -570 -162 -730 -206 -319 -89 -343 -96 -690 -199 -501 -149 -1004 -275 -1144 -288 l-75 -7 109 -90 c408 -335 712 -765 966 -1367 158 -374 310 -865 369 -1188 43 -240 51 -346 57 -732 9 -595 -7 -710 -148 -1091 -22 -59 -29 -91 -22 -98 18 -18 81 -1 1323 362 663 194 868 253 1240 359 878 249 1458 442 1377 458 -28 6 -153 -28 -667 -178 -1015 -297 -1495 -435 -2335 -675 -694 -197 -815 -229 -827 -217 -6 6 -2 40 13 93 24 94 48 146 75 171 21 18 137 55 504 159 140 40 282 80 315 89 33 10 211 61 395 115 184 53 484 139 665 191 182 52 380 110 440 129 61 19 344 104 630 190 661 198 715 216 726 237 20 37 40 222 45 418 20 705 -188 1590 -535 2273 -136 266 -268 470 -426 657 -266 315 -683 682 -769 679 -12 0 -61 -11 -111 -25z m175 -84 c5 -8 8 -19 7 -25 -6 -19 -70 -55 -131 -74 -109 -34 -200 -71 -239 -98 -32 -22 -38 -31 -35 -57 2 -22 11 -35 30 -44 33 -16 125 4 313 68 160 54 155 54 149 -22 -2 -35 -13 -180 -24 -323 -11 -143 -22 -279 -25 -301 l-6 -41 -58 12 c-32 6 -63 15 -70 19 -22 14 -49 83 -91 236 -23 85 -45 160 -48 167 -5 8 -36 4 -117 -17 -123 -32 -653 -185 -1115 -322 -649 -192 -875 -254 -1080 -298 -58 -12 -193 -47 -300 -76 l-195 -54 -172 174 c-95 96 -173 179 -173 185 0 5 19 15 43 21 23 6 94 27 157 45 303 90 1552 443 2195 620 127 35 336 93 464 130 329 93 336 95 429 92 61 -1 85 -6 92 -17z m131 -108 c145 -93 574 -551 706 -754 43 -66 51 -88 34 -88 -32 0 -439 213 -508 266 -21 16 -38 41 -47 72 l-15 47 0 -52 c-2 -117 172 -895 264 -1183 24 -74 77 -271 119 -437 84 -330 125 -464 152 -494 9 -10 30 -19 46 -19 37 0 75 -20 163 -85 84 -61 216 -146 383 -244 67 -39 129 -82 137 -95 15 -22 27 -103 40 -259 l6 -77 -65 42 c-35 24 -178 129 -318 234 -275 207 -430 320 -511 372 l-52 33 40 -36 c62 -55 302 -247 486 -388 188 -144 325 -259 365 -306 19 -23 29 -48 32 -82 5 -56 4 -57 -72 -34 -73 22 -75 19 -13 -25 31 -23 61 -49 67 -60 15 -28 12 -92 -5 -117 -21 -30 -107 -59 -805 -268 -344 -103 -706 -212 -805 -242 -484 -148 -957 -278 -981 -269 -24 9 -51 78 -107 271 -79 272 -166 485 -197 485 -16 0 -11 -23 15 -65 25 -40 34 -82 15 -70 -6 4 -28 31 -50 60 -22 30 -49 59 -61 65 -27 15 -118 0 -269 -46 -201 -60 -329 -89 -340 -78 -27 27 17 58 154 109 91 34 174 77 159 82 -7 3 -55 -9 -106 -26 -120 -40 -188 -49 -206 -27 -11 14 -9 20 18 45 47 44 132 73 229 79 45 2 82 9 82 14 0 16 -57 68 -75 68 -9 0 -23 -7 -31 -15 -9 -8 -27 -18 -42 -21 -83 -19 -105 -27 -124 -50 -33 -37 -78 -26 -78 19 0 15 5 18 24 13 16 -4 32 1 50 15 15 12 33 18 42 15 20 -8 71 19 85 46 14 26 7 80 -21 170 -29 93 -35 98 -135 98 -73 0 -86 3 -95 19 -13 25 -13 86 1 134 9 32 18 42 55 58 24 11 53 18 63 14 10 -3 33 -34 51 -68 49 -91 89 -147 106 -147 9 0 41 -27 72 -61 31 -33 76 -72 99 -86 53 -31 67 -53 50 -78 -19 -25 -60 -16 -67 15 -4 17 -14 26 -30 28 -32 5 -57 28 -81 74 -35 69 -61 64 -34 -8 37 -96 174 -198 441 -326 191 -91 272 -109 539 -115 250 -6 318 1 427 46 232 97 568 347 699 519 69 92 78 97 126 70 35 -19 42 -20 68 -7 53 25 57 104 6 136 -16 10 -17 8 -13 -13 4 -20 0 -24 -19 -24 l-24 -1 28 -20 c53 -40 23 -81 -32 -43 -31 22 -26 47 42 221 79 199 104 294 123 466 20 186 15 302 -21 460 -62 277 -187 565 -318 736 -57 74 -241 245 -293 273 -34 17 -44 29 -44 47 0 14 -7 32 -16 42 -35 39 9 69 100 69 l53 0 7 48 c3 27 11 132 16 233 10 190 22 312 44 459 10 69 10 86 -1 88 -7 2 -90 -24 -184 -58 -209 -74 -263 -86 -296 -65 -29 20 -29 40 1 60 32 21 363 124 402 124 17 1 49 -11 75 -27z m-370 -438 c12 -25 38 -128 60 -227 43 -201 54 -241 76 -275 8 -13 12 -26 9 -30 -4 -3 -48 15 -99 41 -147 73 -433 137 -615 137 -308 0 -754 -188 -973 -409 -124 -126 -295 -386 -322 -491 -6 -22 -8 -23 -21 -10 -17 17 -83 186 -182 470 l-66 185 26 21 c31 27 143 64 606 200 994 291 1405 412 1440 424 39 13 40 13 61 -36z m722 -274 c88 -47 169 -100 154 -100 -4 0 -33 13 -65 29 -73 37 -160 63 -167 50 -10 -15 5 -29 31 -29 42 0 90 -26 112 -61 33 -55 88 -224 172 -534 166 -610 284 -1054 305 -1144 12 -52 27 -97 34 -99 21 -7 4 70 -106 483 -188 707 -293 1143 -293 1215 0 16 5 32 11 35 6 4 8 13 5 21 -8 20 3 17 43 -13 57 -41 101 -86 117 -115 8 -15 32 -108 55 -205 72 -318 306 -1285 356 -1471 19 -73 33 -136 29 -139 -7 -7 -182 99 -290 176 -51 36 -84 67 -92 88 -8 18 -32 108 -53 200 -22 92 -44 179 -50 193 -9 23 -10 22 -10 -15 0 -40 70 -403 84 -439 6 -14 4 -17 -6 -14 -20 7 -50 110 -123 438 -72 317 -94 400 -132 497 -26 67 -104 378 -178 708 -55 246 -62 295 -46 295 6 0 53 -22 103 -50z m-1414 -139 c10 -7 14 -24 13 -50 -2 -31 1 -43 14 -48 22 -8 35 16 28 54 -5 28 -3 34 20 44 40 19 68 1 80 -52 14 -56 40 -60 44 -8 2 21 12 45 23 55 19 17 23 17 47 3 35 -19 40 -54 11 -78 l-22 -18 49 -6 c27 -3 75 -15 105 -27 l57 -21 -39 -124 c-40 -132 -50 -188 -34 -194 19 -7 55 108 78 252 13 79 27 149 31 156 16 25 106 4 106 -25 0 -9 -23 -48 -36 -62 -16 -15 -8 -39 16 -52 23 -12 35 3 43 54 4 22 11 44 16 49 17 17 60 -2 76 -33 15 -30 15 -31 -17 -60 -24 -22 -29 -33 -21 -41 14 -14 96 -51 91 -41 -2 4 -10 20 -18 35 -18 36 -3 48 55 45 35 -3 40 -6 43 -30 2 -15 -4 -38 -13 -52 -18 -27 -9 -52 27 -75 26 -16 31 -10 18 23 -25 66 -1 92 57 61 48 -26 57 -47 38 -91 -19 -47 -19 -70 1 -78 12 -5 15 -2 10 9 -10 27 39 67 77 63 43 -4 47 -31 8 -67 -17 -16 -31 -32 -31 -36 0 -3 11 -21 24 -38 13 -18 35 -55 49 -82 24 -49 105 -135 127 -135 21 0 9 30 -21 52 -43 32 -62 70 -45 93 24 33 49 13 90 -67 32 -65 37 -80 26 -93 -11 -13 -4 -24 44 -74 67 -71 71 -96 24 -137 l-33 -27 37 7 c30 5 41 3 58 -14 44 -44 8 -97 -60 -86 -47 7 -51 -4 -14 -33 19 -15 41 -21 75 -21 43 0 49 -3 55 -24 3 -13 1 -34 -6 -45 -9 -18 -20 -21 -68 -21 -56 0 -122 27 -122 50 0 5 -9 14 -21 21 -17 8 -38 6 -103 -15 -45 -14 -91 -34 -100 -45 -18 -19 -18 -21 1 -53 10 -18 31 -39 45 -47 24 -14 35 -13 120 12 120 34 133 34 169 -5 l29 -32 0 26 c0 48 51 61 66 16 11 -34 -4 -67 -34 -74 -49 -11 -52 -13 -52 -49 0 -36 13 -47 24 -20 7 19 50 20 65 1 7 -8 11 -30 9 -48 -3 -32 -4 -33 -44 -30 -47 4 -56 -10 -42 -65 9 -36 50 -69 69 -57 15 9 8 -53 -22 -181 -37 -159 -48 -192 -81 -241 -25 -37 -39 -49 -58 -49 -38 0 -35 25 10 79 42 51 49 76 26 95 -17 15 -31 -2 -40 -49 -3 -19 -20 -52 -37 -72 -16 -21 -37 -55 -46 -76 -34 -83 -242 -346 -330 -419 -112 -93 -249 -171 -336 -192 -27 -6 -72 -24 -100 -39 -47 -24 -65 -27 -185 -32 -78 -3 -132 -9 -132 -15 0 -6 34 -9 85 -7 53 2 85 0 85 -7 0 -29 -246 -27 -279 3 -23 21 -102 46 -146 46 -26 0 -31 -4 -31 -22 2 -39 -30 -31 -89 22 -66 60 -144 112 -156 104 -5 -3 -9 -14 -9 -25 0 -29 -15 -23 -74 30 -68 62 -90 74 -146 81 -37 4 -46 9 -48 28 -2 13 -10 22 -20 22 -48 0 -178 138 -263 281 -73 122 -219 507 -219 578 0 21 6 32 21 36 18 6 15 10 -26 36 -53 34 -57 61 -10 69 l30 6 -33 17 c-18 10 -38 29 -44 43 -11 23 -8 29 26 61 38 36 36 56 -4 46 -10 -3 -21 0 -25 7 -10 17 17 319 31 338 6 9 18 13 28 9 13 -5 16 -21 16 -76 0 -38 4 -72 9 -76 13 -7 31 27 31 58 0 14 7 30 16 38 13 11 19 9 37 -14 16 -19 43 -32 94 -45 107 -28 151 -63 123 -97 -18 -22 -73 -19 -87 4 -15 24 -55 34 -88 21 -38 -15 -19 -34 58 -59 82 -27 121 -29 145 -7 21 18 42 82 34 104 -5 16 -80 54 -152 77 -74 24 -181 78 -203 103 -18 20 -36 102 -23 102 4 0 24 -9 46 -20 67 -34 80 -24 28 21 -51 44 -59 69 -32 107 19 27 38 28 75 1 28 -20 59 -20 59 -1 0 4 -16 23 -35 42 -38 37 -46 78 -20 100 11 10 23 9 57 -2 75 -26 88 -6 33 46 -40 38 -43 58 -15 86 27 27 34 26 80 -16 61 -56 76 -28 23 44 -32 43 -27 66 15 70 41 4 60 -11 64 -50 l3 -31 58 53 c32 29 64 65 72 80 13 25 12 30 -12 63 -26 36 -26 37 -8 57 13 14 29 20 49 18 26 -3 32 -9 39 -40 11 -45 33 -55 66 -30 33 24 38 42 12 42 -25 0 -45 34 -37 64 11 45 88 57 101 17 9 -29 44 -56 56 -44 6 6 3 18 -11 35 -29 38 -25 54 22 88 56 41 76 39 83 -7 10 -56 13 -63 30 -63 14 0 20 16 17 52 -1 10 3 29 8 43 14 36 50 30 69 -10 19 -42 41 -65 62 -65 29 0 31 16 8 69 -11 27 -18 55 -14 60 8 13 75 14 94 2z m425 -20 c10 -11 16 -31 14 -48 -6 -58 -88 -34 -88 26 0 15 3 31 7 34 13 14 50 7 67 -12z m1460 -225 c146 -474 426 -1638 426 -1770 0 -24 -2 -27 -15 -16 -23 19 -43 92 -240 885 -200 804 -235 955 -235 1005 0 60 28 15 64 -104z m-3374 29 c32 -30 95 -189 178 -445 63 -192 76 -257 67 -328 -10 -80 -26 -90 -205 -133 l-152 -36 27 25 c25 23 27 30 22 81 -8 86 -188 615 -230 678 -24 36 -47 43 -47 16 0 -34 30 -141 88 -324 33 -101 62 -197 65 -214 14 -68 -66 123 -127 308 -37 109 -74 210 -82 223 -19 28 -46 31 -68 8 -22 -21 -20 -28 10 -61 29 -30 68 -109 80 -158 7 -30 7 -30 -26 10 -41 51 -170 231 -170 237 0 10 316 110 445 142 43 10 97 -2 125 -29z m3447 3 c16 -15 23 -33 23 -60 0 -21 15 -79 34 -127 75 -194 239 -733 316 -1042 23 -90 46 -170 51 -178 7 -12 8 -10 4 9 -94 481 -123 598 -199 803 -80 217 -88 243 -84 264 7 32 36 -38 118 -285 146 -441 259 -943 263 -1172 2 -110 -9 -123 -63 -68 -50 50 -75 116 -115 303 -20 94 -88 375 -152 625 -63 250 -135 535 -158 632 -24 98 -52 209 -63 248 -20 75 -15 86 25 48z m-2656 -88 c35 -19 15 -90 -26 -90 -36 0 -59 62 -33 88 15 15 33 15 59 2z m1887 -186 c3 -34 -18 -60 -43 -50 -39 15 -24 90 18 84 16 -2 23 -11 25 -34z m-2813 -517 c25 -44 33 -87 15 -87 -5 0 -17 26 -26 58 -9 31 -18 60 -21 65 -2 4 -2 7 1 7 3 0 17 -20 31 -43z m351 -148 c11 -19 -21 -40 -92 -60 -74 -20 -180 -26 -169 -9 11 18 64 41 138 60 84 22 113 24 123 9z m2539 -39 c0 -18 -69 -38 -134 -39 -54 -1 -46 11 25 39 57 23 109 23 109 0z m-2536 -69 c25 -16 -5 -39 -79 -61 -37 -11 -74 -28 -81 -37 -13 -15 -8 -15 59 -9 60 6 72 5 72 -8 0 -18 -60 -39 -86 -30 -63 20 -77 30 -95 67 -17 33 -18 42 -7 52 27 27 186 45 217 26z m2496 -1 c4 -6 -8 -10 -29 -10 -20 0 -36 5 -36 10 0 6 13 10 29 10 17 0 33 -4 36 -10z m-2490 -200 c0 -26 -65 -61 -110 -58 -53 4 -56 35 -5 61 42 21 115 20 115 -3z m1 -92 c9 -15 -60 -78 -86 -78 -26 0 -26 29 1 64 22 28 72 36 85 14z m2614 -602 c0 -34 -45 -68 -77 -60 -25 7 -25 6 -18 -34 11 -65 -10 -101 -50 -86 -24 9 -18 54 15 110 34 60 73 94 106 94 19 0 24 -5 24 -24z m-159 -196 c10 -6 19 -17 19 -24 0 -18 -267 -288 -303 -306 -22 -11 -32 -12 -47 -2 -27 16 -28 16 -35 -18 -9 -39 -42 -80 -65 -80 -11 0 -35 -14 -55 -31 -63 -56 -119 -14 -57 43 15 14 37 29 49 32 60 19 311 222 406 330 32 36 61 66 63 66 3 0 14 -5 25 -10z m-1705 -290 c24 -17 44 -33 44 -35 0 -3 -19 -2 -43 1 l-42 6 0 -33 c0 -27 -4 -35 -22 -37 -28 -4 -65 32 -56 55 7 22 53 73 66 73 4 0 28 -14 53 -30z m78 -111 c54 -64 20 -106 -43 -53 -40 34 -44 84 -7 84 15 0 34 -12 50 -31z m137 11 c23 -13 25 -40 2 -40 -18 0 -53 28 -53 42 0 11 27 10 51 -2z m845 -35 c-22 -19 -37 -36 -35 -38 2 -1 17 -7 34 -13 16 -5 35 -20 42 -34 16 -32 11 -35 -22 -14 -26 17 -28 17 -41 -1 -8 -10 -14 -22 -14 -27 0 -4 -20 -8 -44 -8 -26 0 -48 -6 -56 -15 -20 -24 -50 -28 -71 -9 -40 36 -13 75 63 88 23 4 61 26 100 56 69 57 104 67 44 15z m-846 -45 c11 -11 20 -29 20 -40 0 -16 -7 -20 -30 -20 -44 0 -87 50 -63 73 13 14 54 6 73 -13z m300 -19 c14 -28 12 -94 -4 -116 -12 -17 -18 -18 -55 -6 -50 15 -62 36 -32 57 14 10 20 22 16 34 -4 12 2 24 17 34 30 21 45 20 58 -3z m-162 -37 c45 -29 11 -52 -44 -29 -24 10 -34 20 -34 36 0 18 4 20 28 14 15 -3 37 -13 50 -21z m430 -22 c5 -31 -25 -82 -48 -82 -16 0 -20 7 -20 35 0 59 60 101 68 47z m-134 -15 c10 -7 17 -22 15 -33 -5 -23 -66 -32 -99 -14 -22 12 -27 45 -7 53 24 10 73 7 91 -6z m-641 -78 c25 -6 56 -28 85 -59 26 -26 55 -50 66 -52 14 -2 24 -24 41 -93 13 -49 55 -182 94 -295 39 -112 71 -209 71 -215 0 -18 -887 -285 -949 -285 -15 0 -14 10 9 245 5 55 10 172 11 260 1 88 4 207 8 265 l6 104 220 68 c224 68 271 76 338 57z"/>
<path d="M7421 6110 c0 -33 1 -34 11 -12 8 17 8 26 0 34 -9 9 -12 4 -11 -22z"/>
<path d="M7166 5540 c-38 -43 -41 -69 -5 -49 20 10 55 76 46 85 -2 3 -21 -14 -41 -36z"/>
<path d="M8070 3200 c-25 -5 -137 -40 -249 -77 -193 -63 -260 -93 -268 -120 -8 -22 35 -53 72 -53 78 0 381 85 507 142 37 17 74 28 83 25 20 -8 75 -96 75 -121 0 -17 -6 -15 -38 17 -46 45 -58 46 -193 8 -154 -44 -338 -89 -391 -96 -58 -9 -60 -19 -18 -92 32 -56 46 -62 97 -42 15 6 129 42 253 80 124 38 256 81 293 95 37 14 71 24 74 20 3 -3 -8 -21 -26 -41 -22 -26 -31 -46 -31 -71 0 -49 16 -77 41 -69 31 10 24 -30 -14 -72 l-33 -36 -115 -3 c-65 -2 -153 -12 -204 -23 -49 -11 -151 -33 -225 -49 -168 -37 -230 -46 -230 -33 0 10 73 36 132 46 l36 7 -28 61 c-15 34 -45 99 -66 145 l-39 83 -38 -50 c-20 -28 -42 -51 -47 -51 -23 0 -8 48 25 80 65 63 33 85 -36 23 -72 -65 -83 -109 -50 -204 72 -211 148 -268 314 -240 92 17 269 73 366 118 66 30 83 34 126 28 45 -5 55 -3 92 24 25 18 51 49 67 83 68 140 47 283 -49 334 -47 24 -54 50 -12 46 25 -3 27 -1 18 17 -24 44 -72 66 -151 68 -41 1 -95 -2 -120 -7z m146 -35 c-11 -8 -29 -15 -40 -15 -30 0 -151 -35 -370 -106 -109 -36 -200 -63 -202 -61 -15 15 146 79 361 145 165 51 161 50 220 51 46 0 48 -1 31 -14z m-619 -410 c5 -17 -36 -75 -63 -87 -21 -10 -27 -9 -35 3 -15 24 -10 39 21 70 29 30 69 37 77 14z m358 -171 c-22 -17 -94 -38 -102 -30 -8 8 77 46 102 45 20 0 20 0 0 -15z m-291 -31 c6 -14 -8 -33 -24 -33 -3 0 -11 4 -18 8 -17 12 -4 42 18 42 10 0 21 -8 24 -17z m123 -4 l28 -11 -24 -9 c-31 -12 -81 -2 -81 17 0 17 37 18 77 3z"/>
<path d="M8190 2908 c-148 -44 -402 -133 -435 -151 -66 -37 -58 -97 14 -97 56 1 381 80 476 116 18 7 18 6 -3 -20 -12 -16 -22 -33 -22 -37 0 -16 47 -10 69 9 21 17 21 19 6 75 -18 71 -42 117 -58 116 -6 -1 -28 -6 -47 -11z"/>
<path d="M7265 2694 c-11 -2 -45 -9 -75 -15 -30 -6 -138 -38 -239 -71 -294 -94 -325 -99 -380 -57 -26 21 -41 17 -41 -11 0 -23 -19 -30 -87 -30 -96 0 -412 -74 -428 -100 -10 -16 27 -12 131 16 214 58 240 64 282 64 23 0 42 -4 42 -9 0 -18 -30 -33 -55 -27 -21 5 -27 2 -35 -18 -18 -48 39 -243 85 -286 21 -20 31 -22 78 -17 29 3 103 25 163 50 60 25 216 79 346 122 314 101 388 149 388 246 0 40 -35 116 -60 129 -22 12 -88 20 -115 14z m66 -37 c72 -49 75 -119 8 -192 -46 -50 -90 -69 -324 -139 -206 -62 -275 -78 -275 -62 0 7 -9 21 -20 31 -14 12 -17 25 -13 45 3 16 -3 52 -12 80 -15 44 -15 54 -4 66 14 13 344 115 442 136 55 11 68 5 97 -51 l19 -36 -6 57 c-3 31 -3 64 0 72 9 23 49 20 88 -7z m-718 -185 c26 -29 44 -83 51 -156 4 -38 11 -77 16 -86 8 -15 4 -19 -26 -24 -19 -4 -55 -16 -80 -27 -78 -33 -94 -25 -108 52 -3 20 -20 57 -37 83 -34 51 -34 90 1 101 28 9 42 -3 34 -28 -6 -20 -5 -21 11 -7 12 10 15 23 12 47 -5 31 -4 33 22 33 16 0 34 7 41 15 17 20 43 19 63 -3z"/>
<path d="M7233 2460 c-61 -35 -67 -45 -20 -35 46 11 109 44 102 55 -10 16 -27 12 -82 -20z"/>
<path d="M6978 2374 c-54 -16 -71 -34 -34 -34 32 0 106 29 106 41 0 12 -16 10 -72 -7z"/>
<path d="M6794 2320 c-12 -5 -25 -13 -29 -19 -10 -17 26 -13 70 8 40 19 40 19 10 20 -16 0 -40 -4 -51 -9z"/>
<path d="M7606 5570 c3 -25 25 -130 49 -235 23 -104 55 -246 69 -314 35 -158 69 -265 74 -233 8 49 -143 709 -182 792 l-16 35 6 -45z"/>
<path d="M7850 5576 c0 -2 7 -23 16 -47 8 -24 71 -262 139 -529 115 -454 143 -553 144 -522 3 53 -222 976 -257 1055 -12 26 -26 47 -31 47 -6 0 -11 -2 -11 -4z"/>
<path d="M7840 4620 c0 -16 5 -30 10 -30 6 0 10 14 10 30 0 17 -4 30 -10 30 -5 0 -10 -13 -10 -30z"/>
<path d="M7870 4513 c0 -33 40 -123 47 -106 6 16 -24 120 -37 128 -6 4 -10 -6 -10 -22z"/>
<path d="M8165 4373 c11 -96 127 -546 146 -567 14 -15 12 -4 -26 162 -76 336 -135 535 -120 405z"/>
<path d="M6090 5406 c0 -44 42 -231 55 -244 10 -11 17 -12 35 -2 13 7 37 10 55 7 53 -9 59 1 40 74 -25 100 -46 159 -56 159 -11 0 -13 -16 -9 -102 1 -43 -2 -68 -9 -68 -15 0 -27 26 -46 100 -22 85 -65 135 -65 76z"/>
<path d="M6010 5368 c0 -40 37 -248 46 -257 3 -3 12 3 21 14 11 15 13 36 9 89 -10 112 -76 246 -76 154z"/>
<path d="M5923 5303 c7 -57 56 -195 67 -188 19 12 -44 235 -66 235 -4 0 -4 -21 -1 -47z"/>
<path d="M6796 5318 c-21 -32 -46 -111 -46 -146 0 -44 28 -6 51 69 25 82 23 118 -5 77z"/>
<path d="M5655 5180 c-8 -14 35 -88 70 -120 27 -24 27 -24 -9 47 -37 75 -50 90 -61 73z"/>
<path d="M6951 5137 c-19 -24 -41 -85 -41 -116 0 -19 11 -43 30 -64 52 -60 32 -92 -40 -64 -22 8 -81 40 -133 71 -136 81 -186 96 -347 103 -163 6 -241 -8 -365 -66 -275 -129 -480 -361 -531 -602 -12 -56 -15 -112 -11 -229 6 -212 26 -280 123 -426 55 -81 125 -167 131 -160 10 10 -11 49 -71 129 -70 94 -107 176 -130 289 -48 233 -23 438 75 605 19 32 79 103 134 158 114 114 213 178 357 232 78 30 109 36 202 40 174 8 248 -13 441 -125 174 -101 203 -130 289 -294 103 -196 144 -355 133 -521 -10 -153 -78 -347 -144 -412 -17 -16 -36 -49 -42 -71 -20 -77 -134 -168 -315 -255 -123 -58 -204 -79 -317 -79 -147 0 -317 43 -406 103 -76 52 -77 61 -21 147 l23 35 -25 -18 c-68 -48 -85 -56 -108 -50 -21 5 -23 3 -14 -13 21 -39 133 -136 185 -159 183 -84 473 -99 641 -33 124 48 305 198 401 333 126 177 176 324 176 525 0 158 -28 266 -126 488 -42 94 -55 177 -32 206 13 18 16 14 41 -60 28 -85 59 -144 76 -144 17 0 11 46 -9 71 -24 31 -17 47 53 128 31 36 54 67 51 69 -6 7 -67 -34 -94 -62 -34 -37 -51 -33 -51 9 0 29 8 44 43 78 24 23 49 52 55 64 16 30 15 83 -1 83 -8 0 -55 -36 -106 -80 -95 -82 -128 -99 -116 -57 4 12 15 31 25 42 47 54 30 78 -21 29 -20 -20 -42 -33 -48 -30 -17 11 -13 58 9 101 11 22 18 45 15 52 -6 17 -30 17 -44 0z m81 -319 c-10 -22 -11 -21 -11 12 -1 26 2 31 11 22 8 -8 8 -17 0 -34z"/>
<path d="M5550 5116 c0 -7 25 -41 55 -75 64 -72 73 -101 25 -76 -17 9 -54 34 -83 55 -52 40 -77 49 -77 29 0 -6 29 -41 64 -77 35 -37 76 -87 90 -112 l25 -44 19 45 c16 38 29 50 73 72 30 15 74 45 98 68 42 39 44 42 26 55 -28 21 -44 17 -56 -13 -12 -34 -48 -73 -65 -73 -7 0 -35 27 -64 60 -45 52 -104 100 -124 100 -3 0 -6 -6 -6 -14z"/>
<path d="M6205 4833 c3 -27 24 -140 46 -253 22 -113 42 -240 46 -282 7 -94 6 -95 -112 -42 -157 71 -231 97 -300 105 -48 6 -91 20 -138 44 -78 40 -117 45 -117 15 0 -13 14 -27 41 -41 23 -11 43 -29 46 -39 4 -15 9 -16 31 -8 30 11 77 -4 248 -80 51 -23 120 -48 155 -57 91 -24 99 -30 99 -71 0 -47 54 -104 98 -104 54 0 112 66 112 127 0 16 -16 53 -35 83 -67 103 -140 410 -132 553 4 87 -2 97 -63 97 l-32 0 7 -47z m208 -689 c3 -4 -1 -17 -10 -31 -21 -32 -76 -30 -81 4 -2 14 3 23 15 26 28 7 69 8 76 1z"/>
<path d="M6056 4852 c-8 -23 8 -62 24 -62 15 0 12 43 -4 65 -13 18 -14 18 -20 -3z"/>
<path d="M6830 4748 c0 -37 20 -68 45 -68 22 0 26 17 8 31 -9 8 -24 28 -35 44 l-18 30 0 -37z"/>
<path d="M5393 4687 c78 -76 89 -93 62 -103 -24 -9 -59 3 -99 35 -42 34 -93 48 -109 32 -13 -13 -3 -22 108 -91 43 -28 87 -50 97 -50 19 0 58 66 58 97 0 34 -39 81 -92 111 -102 57 -109 49 -25 -31z"/>
<path d="M7401 4540 c-48 -11 -111 -41 -111 -53 0 -15 83 0 134 25 69 33 58 47 -23 28z"/>
<path d="M5050 4375 c0 -14 7 -28 15 -32 22 -8 28 2 21 32 -8 33 -36 33 -36 0z"/>
<path d="M7004 4385 c-9 -22 3 -56 31 -90 l25 -30 0 38 c0 20 6 46 13 57 10 17 9 22 -3 30 -23 15 -60 12 -66 -5z"/>
<path d="M7056 4022 c-23 -83 -35 -152 -25 -152 9 0 23 41 44 130 17 76 18 80 6 80 -4 0 -16 -26 -25 -58z"/>
<path d="M5703 4055 c-21 -40 -23 -72 -7 -86 13 -10 17 -10 25 2 10 17 11 56 0 84 -8 19 -8 19 -18 0z"/>
<path d="M7296 3978 c-18 -14 -18 -15 3 -35 40 -37 222 -79 244 -57 13 14 -16 45 -63 69 -62 31 -157 43 -184 23z m144 -33 c11 -13 8 -15 -17 -15 -16 0 -38 7 -49 15 -18 13 -17 14 17 15 21 0 42 -7 49 -15z"/>
<path d="M5320 3944 c-59 -27 -110 -69 -110 -91 0 -9 -9 -11 -30 -6 -35 6 -34 8 -15 -47 8 -23 15 -55 15 -71 0 -15 5 -31 10 -34 6 -3 37 11 70 31 46 28 75 39 118 42 31 3 61 10 65 16 12 16 -2 138 -19 164 -18 28 -36 28 -104 -4z m55 -49 l-40 -34 28 -1 c47 0 26 -21 -52 -52 -95 -38 -123 -33 -45 9 37 20 53 34 44 37 -8 2 -22 6 -30 9 -14 4 103 67 125 67 6 0 -8 -16 -30 -35z"/>
<path d="M6130 3914 c-25 -26 -36 -42 -25 -36 26 13 92 82 79 82 -5 0 -30 -21 -54 -46z"/>
<path d="M7605 3876 c-21 -32 -33 -126 -17 -126 29 0 63 103 44 136 -9 15 -11 14 -27 -10z"/>
<path d="M7261 3862 c-22 -41 57 -102 134 -102 64 0 42 20 -57 50 -36 11 -55 26 -45 36 2 2 55 -12 117 -31 62 -19 116 -33 119 -29 19 19 -125 84 -200 91 -50 5 -58 3 -68 -15z"/>
<path d="M5750 3786 c0 -8 14 -26 31 -41 24 -19 35 -23 43 -15 8 8 2 19 -22 41 -35 32 -52 37 -52 15z"/>
<path d="M7232 3753 c8 -43 177 -90 226 -64 38 20 24 28 -57 35 -56 5 -87 13 -105 27 -31 25 -69 26 -64 2z"/>
<path d="M6924 3725 c-8 -31 10 -55 27 -38 14 14 8 55 -8 60 -7 3 -15 -7 -19 -22z"/>
<path d="M5511 3545 c-83 -63 -111 -99 -111 -141 0 -40 19 -122 30 -129 4 -2 48 33 98 80 50 46 100 88 111 95 43 23 20 -17 -59 -105 -82 -89 -106 -122 -96 -132 11 -11 94 48 180 129 l89 84 -55 47 c-30 26 -59 47 -65 47 -5 0 -19 -14 -32 -30 -12 -17 -26 -28 -32 -24 -9 5 -34 -7 -105 -52 -16 -10 8 21 54 69 45 47 82 91 82 97 0 21 -30 9 -89 -35z m49 -129 c0 -15 -55 -66 -71 -66 -19 0 -8 29 22 54 34 29 49 33 49 12z"/>
<path d="M6038 3544 c31 -14 32 -16 32 -77 0 -57 3 -66 30 -92 32 -31 37 -24 21 33 -7 25 -6 35 6 47 13 14 13 18 -2 41 -20 31 -73 64 -100 63 -15 0 -12 -4 13 -15z"/>
<path d="M6190 3458 c0 -7 10 -29 22 -48 l23 -35 3 27 c2 15 -2 36 -8 48 -12 22 -40 28 -40 8z"/>
<path d="M6922 3372 l-43 -37 99 -98 c55 -53 102 -97 106 -97 20 0 -2 38 -59 102 -36 39 -65 75 -65 80 0 18 26 6 91 -41 63 -46 120 -81 134 -81 22 0 -8 44 -81 120 -101 105 -116 109 -182 52z"/>
<path d="M5709 3333 c-36 -39 -115 -144 -128 -170 -19 -38 6 -27 55 23 44 46 89 106 113 152 17 33 -9 29 -40 -5z"/>
<path d="M5950 3186 c0 -8 9 -18 20 -21 26 -8 26 -53 0 -136 -13 -44 -16 -67 -9 -74 14 -13 36 18 50 70 20 73 67 140 87 121 2 -3 7 -47 10 -98 2 -51 9 -102 15 -112 9 -18 10 -18 23 7 21 39 29 138 15 180 -11 31 -20 39 -67 57 -65 24 -144 27 -144 6z"/>
<path d="M6644 3160 c4 -19 11 -62 17 -95 17 -107 16 -105 54 -105 48 0 46 22 -11 129 -55 103 -69 120 -60 71z"/>
<path d="M6523 3144 c-15 -39 25 -234 48 -234 24 0 16 179 -10 229 -14 25 -29 27 -38 5z"/>
<path d="M6254 3129 c-6 -11 13 -39 27 -39 5 0 9 9 9 19 0 21 -26 36 -36 20z"/>
<path d="M4578 5306 c-71 -19 -81 -31 -75 -91 4 -40 127 -398 142 -413 1 -2 42 9 89 23 70 21 86 30 82 43 -3 9 -14 53 -26 97 -34 127 -88 287 -110 323 -22 35 -32 37 -102 18z"/>
<path d="M4715 4789 c-27 -11 -54 -24 -59 -29 -14 -14 54 -200 79 -216 42 -28 135 22 135 72 0 37 -29 145 -46 172 -18 27 -43 27 -109 1z"/>
<path d="M8621 3900 c0 -29 1 -32 10 -17 7 11 7 23 0 35 -9 14 -10 11 -10 -18z"/>
<path d="M8645 3787 c-11 -25 -1 -135 13 -149 9 -9 12 3 11 53 -1 35 -4 75 -9 89 -6 22 -8 23 -15 7z"/>
<path d="M5393 2394 c-11 -29 6 -137 41 -259 18 -66 31 -126 29 -132 -7 -19 -53 -16 -93 6 -30 15 -79 80 -80 104 0 19 31 3 60 -30 l32 -36 -7 34 c-14 64 -22 72 -72 66 -25 -2 -49 -9 -55 -15 -11 -11 4 -45 47 -109 14 -20 24 -46 23 -57 -3 -19 2 -21 53 -19 61 2 161 33 190 59 28 26 23 76 -19 200 -49 143 -84 204 -118 204 -13 0 -27 -7 -31 -16z m117 -182 c35 -108 41 -195 13 -190 -29 5 -51 66 -74 197 -33 197 -5 194 61 -7z"/>
<path d="M5690 2181 c-5 -11 -10 -40 -10 -65 0 -59 -14 -96 -48 -123 -20 -17 -23 -23 -10 -23 49 0 80 32 90 94 2 14 19 23 68 35 80 20 83 36 15 73 -59 33 -90 35 -105 9z"/>
<path d="M5901 2077 c-40 -83 -102 -130 -168 -126 -28 2 -48 -3 -60 -14 -42 -37 -265 -117 -329 -117 -20 0 -57 13 -87 30 -104 59 -119 28 -16 -33 78 -46 79 -46 309 29 277 90 379 152 396 240 12 66 -12 61 -45 -9z"/>
<path d="M3420 5675 c20 -24 75 -61 65 -44 -16 28 -49 59 -63 59 -12 0 -12 -3 -2 -15z"/>
<path d="M3550 5582 c0 -8 135 -141 250 -247 36 -33 -5 11 -90 98 -85 86 -156 157 -157 157 -2 0 -3 -3 -3 -8z"/>
<path d="M3960 5152 c0 -14 58 -96 86 -122 l27 -25 -13 25 c-15 28 -90 130 -96 130 -2 0 -4 -4 -4 -8z"/>
<path d="M4118 4934 c13 -24 112 -121 112 -110 0 11 -61 81 -94 107 -25 20 -27 20 -18 3z"/>
<path d="M4250 4775 c0 -12 24 -55 32 -55 11 0 10 17 -2 41 -9 17 -30 27 -30 14z"/>
<path d="M8990 2845 c0 -19 5 -35 10 -35 6 0 10 16 10 35 0 19 -4 35 -10 35 -5 0 -10 -16 -10 -35z"/>
<path d="M4893 2785 c0 -27 2 -38 4 -22 2 15 2 37 0 50 -2 12 -4 0 -4 -28z"/>
<path d="M4916 2539 c-8 -40 -6 -125 4 -164 5 -20 8 9 9 83 0 61 -1 112 -3 112 -2 0 -6 -14 -10 -31z"/>
<path d="M8941 2540 c0 -29 1 -32 10 -17 7 11 7 23 0 35 -9 14 -10 11 -10 -18z"/>
<path d="M4907 1935 c-4 -82 -9 -179 -12 -215 -4 -53 -3 -58 5 -30 17 65 32 283 23 340 -8 50 -10 40 -16 -95z"/>
<path d="M4861 1550 c0 -33 1 -34 11 -12 8 17 8 26 0 34 -9 9 -12 4 -11 -22z"/>
<path d="M4830 1445 c0 -14 5 -25 10 -25 6 0 10 11 10 25 0 14 -4 25 -10 25 -5 0 -10 -11 -10 -25z"/>
<path d="M11168 5903 c-29 -7 -21 -38 46 -182 98 -209 168 -405 251 -703 29 -104 42 -123 74 -113 39 12 51 34 51 93 0 156 -179 692 -282 844 -42 62 -78 77 -140 61z"/>
<path d="M2701 4614 c-124 -38 -221 -80 -221 -95 0 -54 162 -259 205 -259 26 0 112 55 125 80 8 14 2 25 -30 54 -45 40 -65 43 -133 20 -25 -9 -54 -14 -64 -11 -36 8 167 84 290 108 68 14 92 32 77 59 -17 32 -83 80 -110 80 -14 -1 -76 -17 -139 -36z"/>
<path d="M3260 4582 c0 -23 30 -52 53 -52 24 0 21 23 -6 48 -28 27 -47 28 -47 4z"/>
<path d="M3658 4489 c-19 -11 -25 -49 -8 -49 16 0 51 40 45 50 -8 12 -15 12 -37 -1z"/>
<path d="M2926 4463 c-36 -36 -59 -81 -52 -100 12 -29 163 8 173 43 2 6 -7 26 -20 45 -30 45 -64 49 -101 12z"/>
<path d="M2935 4315 c-257 -89 -275 -98 -255 -136 24 -46 52 -69 85 -69 41 0 254 55 316 82 52 22 67 46 55 91 -7 30 -44 77 -59 77 -7 -1 -70 -21 -142 -45z"/>
<path d="M3893 3898 c-23 -30 -22 -39 8 -72 38 -44 74 -48 91 -11 8 18 9 35 2 53 -12 34 -30 30 -27 -6 4 -44 -3 -55 -29 -41 -32 17 -39 30 -32 62 6 29 2 34 -13 15z"/>
<path d="M3600 3797 c0 -50 -46 -62 -79 -21 -19 24 -21 25 -21 7 0 -47 71 -70 103 -35 18 20 23 72 7 72 -5 0 -10 -10 -10 -23z"/>
<path d="M3820 3699 c-63 -9 -110 -31 -155 -70 -75 -67 -94 -166 -55 -293 17 -54 33 -79 83 -132 l62 -67 -43 8 c-48 8 -53 -1 -19 -33 l24 -22 26 21 c54 42 53 55 -6 93 -75 47 -95 80 -112 178 -7 46 -16 91 -20 100 -5 12 0 17 17 20 17 2 26 14 36 43 27 82 98 123 196 111 52 -6 117 -39 155 -80 14 -14 28 -26 33 -26 18 0 6 22 -34 66 -64 70 -119 94 -188 83z"/>
<path d="M3773 3595 c-17 -7 -36 -22 -42 -34 -26 -48 0 -135 48 -161 20 -10 21 -8 21 33 0 24 -7 52 -15 63 -23 30 -18 49 20 83 39 34 26 41 -32 16z"/>
<path d="M3874 3575 c-9 -22 4 -35 37 -35 37 0 79 -40 79 -75 0 -64 -63 -126 -132 -130 -25 -1 -44 -8 -50 -19 -5 -9 -14 -16 -20 -16 -19 0 -68 52 -68 73 0 23 -28 20 -43 -5 -27 -42 58 -108 139 -108 54 0 133 25 167 52 51 41 55 145 9 207 -17 24 -87 70 -105 71 -4 0 -10 -7 -13 -15z m79 -256 c-11 -12 -29 -19 -39 -17 -16 3 -13 8 16 26 40 25 53 20 23 -9z"/>
<path d="M3391 3317 c-25 -30 -24 -73 2 -103 22 -25 28 -27 53 -19 36 13 43 35 12 35 -26 0 -68 25 -68 41 0 5 15 9 33 9 41 0 49 7 36 31 -11 22 -51 25 -68 6z"/>
<path d="M3070 3149 c0 -17 4 -28 10 -24 6 3 10 17 10 31 0 13 -4 24 -10 24 -5 0 -10 -14 -10 -31z"/>
<path d="M3106 3035 c3 -16 25 -120 47 -230 l42 -200 31 -3 c28 -3 339 60 349 70 9 8 -17 293 -29 318 -23 51 -126 30 -126 -26 0 -14 9 -70 21 -125 11 -55 19 -112 17 -127 l-3 -27 -18 27 c-10 14 -26 66 -36 115 -32 155 -50 171 -152 133 -33 -12 -67 -19 -74 -16 -8 3 -28 31 -44 63 -22 42 -29 50 -25 28z m411 -81 c2 -5 -7 -21 -19 -34 l-23 -25 -3 23 c-6 38 34 69 45 36z m-269 -214 c3 -74 2 -92 -8 -84 -16 16 -46 195 -36 219 15 40 39 -33 44 -135z m264 -2 c-10 -22 -11 -21 -11 12 -1 26 2 31 11 22 8 -8 8 -17 0 -34z"/>
<path d="M3476 2592 c24 -22 144 -91 144 -84 0 11 -60 67 -87 81 -25 13 -72 15 -57 3z"/>
<path d="M3452 2509 c7 -20 45 -42 52 -30 4 6 -7 17 -25 26 -22 12 -30 13 -27 4z"/>
<path d="M3375 2460 c-9 -15 3 -30 24 -30 21 0 44 23 34 33 -10 11 -51 8 -58 -3z"/>
<path d="M3483 2423 c-22 -8 -14 -33 13 -43 18 -7 33 -6 55 6 17 8 38 14 47 13 30 -3 35 1 22 16 -12 15 -108 20 -137 8z"/>
<path d="M3342 2357 c-26 -27 -28 -37 -7 -37 20 0 57 38 50 50 -9 15 -20 12 -43 -13z"/>
<path d="M3473 2265 c-3 -9 -2 -19 1 -23 8 -8 38 10 44 26 6 18 -38 14 -45 -3z"/>
<path d="M3547 2109 c-58 -13 -137 -50 -131 -60 10 -16 163 31 185 57 13 16 5 17 -54 3z"/>
<path d="M3605 2035 c-5 -2 -31 -6 -57 -10 -71 -9 -78 -21 -78 -128 0 -103 14 -137 55 -137 34 0 80 43 93 88 13 43 16 192 5 191 -5 0 -12 -2 -18 -4z m-41 -61 c8 -20 8 -102 0 -131 -7 -26 -29 -30 -38 -7 -3 9 -6 35 -6 59 0 72 28 121 44 79z"/>
<path d="M1310 2376 c0 -2 -4 -27 -10 -56 -11 -57 -4 -108 13 -91 15 15 22 151 8 151 -6 0 -11 -2 -11 -4z"/>
<path d="M6279 7150 c-144 -23 -363 -89 -445 -134 -89 -49 -123 -111 -87 -155 l19 -23 33 28 c27 22 80 39 294 94 400 102 427 111 427 130 0 9 -11 27 -25 40 -19 18 -37 23 -92 26 -37 1 -93 -1 -124 -6z m81 -61 c-33 -14 -443 -115 -500 -123 -94 -15 8 24 300 112 70 22 250 31 200 11z"/>
<path d="M6650 7047 c-145 -27 -781 -202 -940 -258 -118 -41 -125 -50 -122 -146 2 -36 5 -43 23 -43 51 0 346 83 864 242 300 92 354 114 348 138 -14 53 -91 83 -173 67z"/>
<path d="M11865 5979 c-75 -9 -159 -36 -186 -59 -50 -41 0 -46 250 -24 66 6 73 5 70 -11 -3 -12 -24 -22 -75 -35 -83 -21 -174 -65 -174 -83 0 -22 23 -37 58 -37 62 0 272 53 272 69 0 13 -71 126 -97 153 -29 31 -51 36 -118 27z"/>
<path d="M12070 5583 c-82 -14 -216 -68 -225 -91 -11 -29 22 -47 82 -45 62 2 176 34 211 58 27 20 29 61 3 75 -20 10 -27 11 -71 3z"/>
<path d="M12070 5286 c-150 -46 -195 -74 -174 -108 10 -16 120 -3 199 23 77 27 107 59 89 97 -9 20 -11 20 -114 -12z"/>
</g>
</svg>